P3
64 64
255
255
255
255
255
255
255
255
255
255
255
255
255
255
255
255
255
255
255
255
255
255
255
255
255
255
255
255
255
255
255
255
255
255
255
255
255
255
255
255
255
255
255
255
255
255
255
255
255
255
255
255
255
255
255
255
255
255
255
255
255
255
255
255
255
255
255
255
255
255
250
245
245
241
228
226
235
206
202
220
160
150
200
116
104
160
78
73
131
49
54
117
38
44
113
36
42
134
57
61
169
88
82
176
100
89
170
102
97
176
122
119
195
158
157
223
204
203
239
228
227
250
245
245
255
255
255
255
255
255
255
255
255
255
255
255
255
255
255
255
255
255
255
255
255
255
255
255
255
255
255
255
255
255
255
255
255
255
255
255
255
255
255
255
255
255
255
255
255
255
255
255
255
255
255
255
255
255
255
255
255
255
255
255
255
255
255
255
255
255
255
255
255
255
255
255
255
255
255
255
255
255
255
255
255
255
255
255
255
255
255
255
255
255
255
255
255
255
255
255
255
255
255
255
255
255
255
255
255
255
255
255
255
255
255
255
255
255
255
255
255
255
255
255
255
255
255
255
255
255
255
255
255
255
255
255
224
197
196
179
108
105
159
67
58
151
41
29
160
27
13
171
31
11
164
42
24
167
75
69
190
114
121
225
166
175
245
195
201
248
194
193
231
152
144
215
128
112
219
126
97
206
114
82
190
99
71
165
74
52
143
53
32
158
69
51
180
114
101
218
197
197
255
255
255
255
255
255
255
255
255
255
255
255
255
255
255
255
255
255
255
255
255
255
255
255
255
255
255
255
255
255
255
255
255
255
255
255
255
255
255
255
255
255
255
255
255
255
255
255
255
255
255
255
255
255
255
255
255
255
255
255
255
255
255
255
255
255
255
255
255
255
255
255
255
255
255
255
255
255
255
255
255
255
255
255
255
255
255
255
255
255
255
255
255
255
255
255
255
255
255
255
255
255
255
255
255
255
255
255
255
255
255
255
255
255
255
255
255
248
242
241
211
172
171
145
43
41
138
25
20
140
30
16
143
31
12
147
30
16
156
46
29
171
82
65
179
112
107
201
144
159
233
185
205
248
222
236
251
243
251
239
211
209
220
167
164
194
131
123
184
112
92
196
118
84
204
116
77
207
115
72
211
115
70
189
87
45
149
47
17
107
28
21
85
37
40
200
169
171
247
241
241
255
255
255
255
255
255
255
255
255
255
255
255
255
255
255
255
255
255
255
255
255
255
255
255
255
255
255
255
255
255
255
255
255
255
255
255
255
255
255
255
255
255
255
255
255
255
255
255
255
255
255
255
255
255
255
255
255
255
255
255
255
255
255
255
255
255
255
255
255
255
255
255
255
255
255
255
255
255
255
255
255
255
255
255
255
255
255
255
255
255
255
255
255
255
255
255
255
255
255
255
255
255
249
243
242
196
129
116
160
55
39
148
33
18
150
33
14
153
33
15
151
30
14
146
44
27
150
67
48
150
84
65
159
94
82
183
121
126
207
152
166
235
185
201
245
203
213
230
186
192
191
135
131
175
110
104
168
102
91
167
99
88
167
96
85
175
99
74
185
104
66
190
107
61
198
113
62
200
110
56
179
91
49
126
46
27
116
15
20
128
29
43
175
109
122
248
242
242
255
255
255
255
255
255
255
255
255
255
255
255
255
255
255
255
255
255
255
255
255
255
255
255
255
255
255
255
255
255
255
255
255
255
255
255
255
255
255
255
255
255
255
255
255
255
255
255
255
255
255
255
255
255
255
255
255
255
255
255
255
255
255
255
255
255
255
255
255
255
255
255
255
255
255
255
255
255
255
255
255
255
255
255
255
255
255
255
255
255
253
252
251
221
181
175
157
36
15
161
33
13
164
34
13
164
35
14
161
36
10
155
34
15
153
56
35
148
79
56
144
80
62
150
82
66
161
93
83
179
114
121
197
135
143
201
139
145
203
137
138
188
120
114
173
102
90
168
95
82
163
90
77
162
89
78
161
88
74
158
87
71
162
88
63
168
93
60
181
103
58
183
103
54
187
102
48
190
103
47
166
72
38
116
13
17
120
3
27
126
22
27
210
179
177
253
251
251
255
255
255
255
255
255
255
255
255
255
255
255
255
255
255
255
255
255
255
255
255
255
255
255
255
255
255
255
255
255
255
255
255
255
255
255
255
255
255
255
255
255
255
255
255
255
255
255
255
255
255
255
255
255
255
255
255
255
255
255
255
255
255
255
255
255
255
255
255
255
255
255
255
255
255
255
255
255
255
255
255
236
220
219
168
86
76
150
34
18
155
32
16
160
32
16
165
32
15
167
33
14
161
39
18
156
67
45
148
80
59
144
78
61
150
80
64
156
85
70
166
95
85
177
106
107
182
115
115
180
113
112
177
109
101
172
99
86
165
91
74
158
87
69
157
86
69
161
87
73
157
85
71
155
83
66
154
82
63
154
83
60
161
85
58
171
91
54
175
96
48
180
101
48
182
100
45
180
93
44
150
43
27
120
20
16
120
27
22
152
84
80
234
220
219
255
255
255
255
255
255
255
255
255
255
255
255
255
255
255
255
255
255
255
255
255
255
255
255
255
255
255
255
255
255
255
255
255
255
255
255
255
255
255
255
255
255
255
255
255
255
255
255
255
255
255
255
255
255
255
255
255
255
255
255
255
255
255
255
255
255
255
255
255
255
255
255
255
255
255
207
180
179
126
28
23
133
30
20
142
33
21
150
32
20
156
32
17
162
33
18
160
40
21
163
74
51
149
83
61
146
77
61
149
76
62
150
79
62
156
83
67
165
89
79
171
93
85
169
93
84
171
93
85
168
92
80
163
86
72
163
84
65
157
82
63
160
85
69
161
87
72
158
85
68
155
81
61
151
80
57
151
80
58
156
79
60
159
81
55
164
86
53
171
94
52
177
99
50
182
101
47
182
98
43
160
72
39
120
31
21
120
26
27
119
25
24
210
179
179
255
255
255
255
255
255
255
255
255
255
255
255
255
255
255
255
255
255
255
255
255
255
255
255
255
255
255
255
255
255
255
255
255
255
255
255
255
255
255
255
255
255
255
255
255
255
255
255
255
255
255
255
255
255
255
255
255
255
255
255
255
255
255
255
255
255
255
255
255
179
122
123
104
23
24
122
29
23
130
32
22
132
32
23
140
32
21
148
32
20
153
41
23
161
78
51
152
84
60
149
77
60
149
77
61
150
79
63
154
80
65
159
82
68
164
84
71
164
83
69
163
80
66
163
81
66
163
83
67
159
79
62
158
80
60
156
79
61
156
80
62
155
79
61
157
80
63
157
79
63
153
79
58
149
77
56
151
77
57
154
78
56
156
78
53
159
80
48
171
93
49
179
99
49
186
107
49
182
101
48
169
86
45
126
33
22
119
24
24
118
25
22
178
125
123
255
255
255
255
255
255
255
255
255
255
255
255
255
255
255
255
255
255
255
255
255
255
255
255
255
255
255
255
255
255
255
255
255
255
255
255
255
255
255
255
255
255
255
255
255
255
255
255
255
255
255
255
255
255
255
255
255
255
255
255
255
255
255
178
82
69
128
20
18
95
21
24
111
27
25
127
31
22
125
30
23
130
32
23
138
35
22
157
78
52
148
84
58
146
79
58
148
75
61
152
79
64
154
81
66
156
79
66
161
82
69
164
83
66
164
82
64
164
82
63
162
80
63
160
79
64
160
80
63
159
81
61
157
79
61
155
78
59
155
77
58
152
75
57
154
77
59
152
76
57
151
77
55
152
77
55
152
76
52
154
75
49
156
75
45
157
77
41
167
89
48
176
97
48
179
100
44
183
106
46
204
119
67
131
41
23
119
26
24
121
25
23
153
76
76
255
255
255
255
255
255
255
255
255
255
255
255
255
255
255
255
255
255
255
255
255
255
255
255
255
255
255
255
255
255
255
255
255
255
255
255
255
255
255
255
255
255
255
255
255
255
255
255
255
255
255
255
255
255
255
255
255
196
127
98
157
34
17
129
19
20
86
18
20
100
24
25
129
31
25
129
30
26
128
30
22
149
67
48
151
84
59
146
78
59
147
76
61
148
76
62
153
79
65
156
82
67
159
82
68
162
83
69
168
85
72
169
85
72
170
87
71
168
85
69
164
82
68
161
82
65
160
81
61
157
80
61
154
77
58
154
76
57
152
75
57
152
74
56
154
75
58
153
76
54
155
80
54
152
76
53
152
73
48
155
76
43
156
75
43
156
77
47
164
86
46
180
102
47
190
110
46
209
122
53
207
122
63
128
40
18
126
34
22
129
35
23
168
99
90
255
255
255
255
255
255
255
255
255
255
255
255
255
255
255
255
255
255
255
255
255
255
255
255
255
255
255
255
255
255
255
255
255
255
255
255
255
255
255
255
255
255
255
255
255
255
255
255
255
255
255
198
139
109
170
73
31
149
35
15
126
23
19
85
18
21
89
21
24
124
30
26
129
30
21
150
64
43
155
85
61
147
77
61
146
77
60
147
76
61
149
76
63
154
79
66
159
81
68
161
83
70
168
88
74
171
90
80
173
90
81
172
87
78
170
86
76
169
85
75
166
82
69
162
84
66
158
80
63
155
77
59
153
74
57
152
74
53
152
74
53
153
76
55
154
78
55
154
78
55
151
77
54
152
76
49
159
77
41
161
76
37
156
75
44
154
75
45
166
83
42
183
101
43
194
113
49
219
137
62
178
99
40
135
55
14
138
53
20
139
53
18
163
98
69
255
255
255
255
255
255
255
255
255
255
255
255
255
255
255
255
255
255
255
255
255
255
255
255
255
255
255
255
255
255
255
255
255
255
255
255
255
255
255
255
255
255
255
255
255
223
184
165
182
101
61
160
60
24
142
37
18
125
26
22
87
19
22
76
21
22
111
27
24
133
45
29
153
81
56
147
77
58
146
74
61
147
74
61
148
74
61
151
77
64
156
80
67
161
83
69
168
89
77
173
94
85
176
97
92
177
97
92
177
95
90
174
92
86
172
89
80
168
86
75
165
85
72
160
80
63
158
77
60
154
74
56
152
74
52
152
73
52
153
76
52
153
77
54
153
76
54
152
74
54
155
75
47
164
80
37
162
79
37
155
74
48
153
74
44
162
74
33
166
79
28
170
88
34
195
116
47
193
116
47
145
69
16
139
62
16
141
64
16
132
54
13
183
135
119
255
255
255
255
255
255
255
255
255
255
255
255
255
255
255
255
255
255
255
255
255
255
255
255
255
255
255
255
255
255
255
255
255
255
255
255
255
255
255
238
217
208
193
126
98
165
85
49
144
47
22
138
35
21
126
27
23
90
18
19
70
19
22
97
23
21
150
74
53
147
78
55
147
76
60
147
74
60
147
76
63
152
79
66
157
80
68
162
84
73
167
89
76
173
96
87
176
98
92
174
95
91
178
99
94
178
99
95
172
91
85
170
90
82
166
87
75
163
82
72
161
79
65
160
77
63
158
76
60
155
75
57
153
73
52
153
75
52
154
76
53
151
74
51
152
75
52
158
75
41
164
78
33
156
77
41
151
73
51
154
72
44
159
72
32
170
78
29
171
80
22
174
86
20
175
95
25
149
72
22
134
50
14
137
57
16
130
47
14
129
36
16
215
185
176
255
255
255
255
255
255
255
255
255
255
255
255
255
255
255
255
255
255
255
255
255
255
255
255
255
255
255
255
255
255
255
255
255
244
237
232
196
138
109
190
128
101
166
100
72
144
66
40
139
46
29
139
39
27
114
27
26
75
19
20
110
44
36
153
80
61
146
76
58
147
76
60
149
75
62
150
78
67
157
82
70
163
84
74
165
86
79
169
90
83
175
97
93
179
100
96
182
102
99
182
102
100
182
101
99
180
100
97
176
96
91
169
89
84
166
86
79
165
83
71
161
78
63
157
75
56
159
77
60
157
73
57
152
73
52
151
73
54
152
74
51
152
72
48
157
73
43
157
75
40
152
73
48
152
73
51
157
73
43
164
76
33
176
82
25
187
87
15
191
89
11
184
89
10
161
78
20
129
41
11
136
50
14
143
58
13
150
54
14
148
54
11
240
226
217
255
255
255
255
255
255
255
255
255
255
255
255
255
255
255
255
255
255
255
255
255
255
255
255
255
255
255
254
253
253
196
159
135
181
131
99
189
132
103
176
120
93
158
95
66
144
60
34
147
45
25
131
30
23
93
22
22
137
70
57
146
76
60
144
75
59
146
76
61
149
77
62
156
82
69
164
84
72
170
87
77
173
94
87
177
99
96
184
103
104
191
108
110
195
110
115
192
110
117
194
112
118
186
105
111
188
107
112
181
102
103
179
98
95
172
90
83
169
86
77
162
79
62
160
76
56
155
72
56
151
73
51
152
71
55
154
71
49
157
72
47
155
73
45
154
74
46
152
71
45
154
72
45
159
75
39
170
80
32
178
86
25
186
88
16
190
91
14
190
93
13
171
86
14
137
51
12
140
54
14
153
71
12
160
73
7
155
66
5
176
112
69
253
252
251
255
255
255
255
255
255
255
255
255
255
255
255
255
255
255
255
255
255
255
255
255
255
255
255
226
209
199
166
117
85
167
118
86
178
128
98
176
126
97
162
104
73
143
63
34
145
40
20
141
32
19
116
31
25
143
72
56
144
74
58
145
74
60
147
75
61
151
78
64
161
84
68
170
87
79
177
92
87
182
100
95
186
102
103
193
110
112
199
113
120
202
115
124
204
118
127
200
117
124
196
114
120
191
110
117
189
109
113
183
103
104
179
96
94
170
85
81
163
79
67
158
76
59
156
74
59
153
73
54
154
73
55
155
72
49
156
71
45
155
73
47
154
72
49
154
72
47
156
72
43
165
77
35
168
80
31
169
81
27
171
80
22
175
85
23
171
83
16
174
88
17
146
61
14
137
54
9
150
67
6
159
72
5
157
68
6
149
63
6
221
191
172
255
255
255
255
255
255
255
255
255
255
255
255
255
255
255
255
255
255
255
255
255
250
247
246
158
114
80
151
108
73
151
107
72
163
114
82
168
115
86
161
97
64
150
58
26
152
33
10
153
30
10
132
35
24
146
75
57
146
74
59
146
74
61
147
74
62
152
77
64
159
84
68
165
87
77
171
92
86
178
98
94
186
104
105
194
109
112
199
111
120
199
111
121
197
110
118
195
110
117
193
110
116
189
107
113
187
109
114
185
105
111
176
96
96
167
86
83
160
80
72
156
74
63
153
71
58
154
71
57
153
70
51
156
71
48
155
71
43
155
73
48
154
73
46
156
71
42
160
74
41
166
75
31
163
74
27
163
72
25
162
72
22
163
77
25
154
72
20
159
78
20
150
67
16
151
64
6
164
73
5
171
78
6
165
74
7
160
72
4
161
69
8
249
244
241
255
255
255
255
255
255
255
255
255
255
255
255
255
255
255
255
255
255
192
167
146
146
103
68
140
96
62
141
91
57
151
91
55
157
86
52
156
70
36
149
38
14
149
26
10
147
28
8
133
38
25
143
73
56
145
74
60
145
73
62
148
74
62
153
78
64
159
82
70
167
90
80
174
95
89
180
100
96
187
106
108
194
109
113
196
111
115
197
110
113
199
114
117
197
113
116
194
112
113
191
110
115
189
108
114
185
105
111
179
99
100
170
86
85
162
81
77
161
76
71
156
72
63
156
72
60
155
70
54
156
70
50
153
70
44
155
73
48
155
72
44
154
69
39
158
70
34
163
76
28
159
71
24
161
72
21
160
72
19
157
70
19
155
70
20
156
74
21
150
68
16
164
76
10
175
84
6
173
80
8
165
75
4
169
76
4
172
75
8
195
141
110
255
255
255
255
255
255
255
255
255
255
255
255
255
255
255
248
245
243
145
105
72
134
92
56
128
86
52
131
77
46
138
66
33
145
54
24
141
37
18
134
25
16
126
21
19
123
24
18
119
35
25
142
74
56
142
73
58
147
75
64
152
76
64
158
81
68
162
84
74
170
90
84
177
96
92
182
102
100
189
110
111
193
113
115
195
114
113
200
117
117
201
116
118
196
114
114
191
112
109
188
109
110
186
103
106
183
100
101
175
93
92
172
87
85
169
87
81
167
82
78
162
78
69
159
75
64
159
72
58
156
69
52
156
72
50
157
72
49
156
69
42
158
69
36
160
71
31
159
69
24
160
69
22
160
69
22
160
70
20
158
70
19
158
71
22
158
75
21
152
69
21
147
62
8
156
68
8
159
68
5
165
72
4
174
80
7
171
77
7
163
78
28
249
243
240
255
255
255
255
255
255
255
255
255
255
255
255
208
191
178
124
80
44
123
78
47
119
77
48
119
69
41
119
50
27
125
36
19
118
31
22
115
26
25
111
24
25
104
23
26
106
32
30
139
71
59
143
73
61
146
75
63
151
75
64
159
83
70
163
85
72
171
93
84
183
98
95
186
104
103
191
110
115
193
110
114
196
114
114
195
114
112
195
115
113
195
112
112
188
106
105
185
103
101
183
102
101
181
96
94
176
91
89
173
89
85
171
87
81
169
85
80
166
83
73
161
75
64
160
73
60
156
71
55
155
69
52
159
69
48
157
70
40
157
69
31
156
67
22
155
66
21
155
65
23
155
67
19
159
70
21
157
70
20
157
72
23
160
75
22
153
71
20
133
45
10
138
45
6
157
63
8
175
78
6
177
84
7
169
75
7
150
59
4
215
180
163
255
255
255
255
255
255
255
255
255
255
255
255
133
88
61
118
72
43
108
66
41
109
68
43
105
60
37
100
47
31
97
38
29
98
37
31
104
34
30
107
31
29
104
27
29
106
33
31
135
65
53
143
73
60
151
79
67
159
83
71
168
90
77
170
92
79
176
94
85
184
100
94
189
106
103
188
107
108
188
106
106
191
110
111
192
111
112
191
109
110
191
106
107
190
103
104
191
105
108
193
105
110
187
101
103
182
97
97
175
91
88
173
88
83
171
87
81
167
86
76
167
86
72
163
80
65
159
74
57
156
71
51
158
70
43
159
68
34
160
68
28
161
70
23
163
72
24
162
70
23
159
66
22
160
69
26
162
74
22
162
77
22
160
75
20
155
75
23
139
47
9
152
54
9
163
69
4
171
78
5
173
81
5
163
70
7
148
53
4
153
64
23
255
255
255
255
255
255
255
255
255
220
208
200
117
70
39
112
66
40
102
60
38
98
60
40
95
54
36
87
48
34
80
43
35
86
43
36
99
37
30
103
33
28
97
26
27
107
34
32
132
62
52
147
76
66
155
83
72
167
92
83
172
97
87
176
94
87
189
99
97
195
109
111
197
111
116
196
113
115
196
114
114
194
111
112
193
110
113
195
112
114
199
114
116
204
118
119
204
116
123
194
110
116
184
104
107
181
103
103
176
97
94
173
97
92
169
96
89
161
90
81
156
81
73
157
78
70
159
77
64
157
73
52
159
70
40
157
67
30
157
69
27
162
72
27
167
75
29
165
73
26
160
67
25
158
66
26
157
69
24
162
76
22
162
74
20
155
72
23
142
54
11
169
73
10
170
77
7
169
77
2
171
79
5
158
65
6
146
50
4
146
50
5
228
205
192
255
255
255
255
255
255
160
128
112
109
64
38
105
60
39
96
55
39
89
52
36
86
50
36
77
46
34
73
45
38
75
42
35
84
33
31
85
28
27
79
28
28
103
37
33
130
66
56
136
72
68
141
80
76
153
91
87
163
98
91
172
100
93
183
105
100
190
110
110
196
113
114
205
118
120
209
121
124
204
118
122
207
121
127
205
120
124
203
117
120
205
117
119
200
114
121
190
108
115
184
107
111
179
107
109
170
101
103
159
95
96
151
92
93
141
85
87
129
72
71
130
66
66
132
63
55
144
65
52
159
71
44
160
70
35
158
69
32
159
68
29
164
73
29
162
71
26
157
66
22
156
66
24
156
69
24
158
73
24
156
71
22
150
69
23
121
47
16
159
72
10
175
83
5
176
83
6
171
79
7
154
62
5
147
52
2
153
59
5
195
135
95
255
255
255
249
246
246
133
87
70
97
54
35
97
54
39
88
51
36
83
48
38
77
46
36
73
43
34
66
43
37
62
40
34
62
34
31
61
32
31
60
30
27
98
43
36
124
65
60
113
59
59
114
63
64
118
67
70
120
72
74
141
86
86
151
92
87
172
99
98
182
101
96
196
107
104
202
111
109
203
114
114
209
123
124
198
112
112
190
105
102
187
104
98
180
102
100
166
97
99
147
86
88
129
70
77
116
64
72
108
60
66
109
60
68
114
62
68
114
59
64
119
57
59
125
58
57
124
52
45
141
58
40
156
69
34
157
69
31
157
67
30
163
71
31
162
71
26
156
66
21
153
65
25
153
68
29
155
71
24
153
70
21
149
68
23
100
36
17
134
55
16
173
80
4
174
82
5
164
72
7
149
57
5
145
49
3
154
60
3
176
101
45
251
247
244
238
231
228
119
66
43
97
50
33
88
49
34
84
46
33
77
43
34
71
42
35
67
40
35
62
40
34
56
39
32
54
36
31
54
34
34
56
33
31
96
44
39
115
55
53
113
60
59
113
62
62
90
46
55
88
49
59
91
48
53
98
46
54
128
68
69
148
79
71
167
89
77
186
99
86
193
106
98
202
116
113
188
102
101
172
95
89
168
94
88
140
73
68
118
53
51
93
33
36
99
42
50
102
50
59
101
48
50
116
60
57
118
60
60
123
60
60
133
64
65
131
63
64
135
62
55
139
58
41
155
66
33
163
70
32
162
70
31
163
72
29
162
70
24
155
65
19
152
67
29
151
69
28
154
74
26
155
72
23
151
69
20
91
33
20
112
38
19
160
67
8
163
73
6
158
65
4
146
53
6
146
50
6
160
64
7
163
79
19
242
232
224
225
213
207
114
57
32
102
51
34
87
47
33
78
44
34
71
42
34
64
39
34
62
39
34
58
39
33
55
37
32
51
36
35
54
32
28
69
32
21
121
55
41
141
71
51
153
89
66
151
89
68
178
126
116
132
77
61
162
100
80
186
126
84
160
86
54
149
76
54
160
87
67
172
96
72
178
99
79
196
114
100
199
139
127
189
138
124
188
136
116
185
129
91
180
116
75
168
110
84
151
96
83
152
103
95
146
79
57
170
100
61
131
67
53
146
62
43
160
73
39
160
98
98
143
68
57
146
60
38
154
62
33
160
66
30
158
68
31
161
72
31
158
70
25
148
59
20
143
59
28
141
64
37
139
59
28
138
55
18
168
92
47
86
33
19
106
32
18
150
55
8
153
58
4
151
55
5
142
48
7
147
53
9
161
71
8
158
72
4
233
215
201
193
171
160
110
56
32
102
50
33
85
46
33
72
41
32
65
39
32
60
38
32
58
37
31
54
36
31
53
34
28
89
52
40
108
51
40
112
57
45
99
43
43
101
35
46
93
27
42
87
24
41
86
23
43
97
32
50
94
32
45
111
55
57
132
62
50
144
74
58
124
57
41
130
64
53
151
72
58
171
86
77
159
76
65
151
77
57
136
56
46
108
34
32
84
18
25
81
18
37
85
24
49
86
28
51
111
43
61
134
58
61
100
31
52
143
58
52
117
38
41
86
24
44
111
41
64
153
70
76
161
69
37
157
64
33
155
63
31
156
66
30
155
65
27
144
57
25
140
53
22
153
63
30
155
60
30
128
40
19
100
35
31
67
19
21
118
50
41
162
70
39
157
61
18
146
46
5
139
41
7
141
48
8
148
61
5
149
63
3
210
174
149
161
134
121
95
51
34
91
47
34
78
45
32
69
41
32
62
41
32
58
39
33
57
38
33
53
38
33
95
58
42
78
29
26
79
26
41
61
19
38
74
22
42
97
26
48
101
26
51
105
31
56
107
33
62
111
37
71
108
43
74
109
45
70
118
50
66
102
34
51
140
81
67
130
66
56
169
100
94
207
152
151
172
111
109
130
71
71
92
22
38
91
22
41
101
30
53
107
34
63
106
38
69
100
37
65
107
42
68
120
52
68
104
41
64
105
41
65
107
39
68
99
36
66
104
37
70
99
26
80
163
76
64
154
63
35
153
65
31
158
64
32
153
59
26
146
60
19
187
110
51
155
71
21
142
56
22
134
48
27
76
14
20
118
50
57
153
69
68
161
60
51
163
64
42
155
56
20
148
47
6
155
62
7
160
66
6
146
58
4
186
132
101
133
105
90
88
51
35
82
45
34
73
43
34
64
41
32
60
40
33
56
40
34
57
39
33
54
37
32
113
64
46
89
40
50
108
37
60
112
43
70
90
28
47
99
29
48
98
26
48
87
26
46
81
24
45
78
25
47
74
28
50
80
32
50
91
39
53
92
36
53
119
54
62
147
81
79
174
102
105
183
114
116
148
72
73
133
60
67
96
23
42
94
27
45
101
31
52
92
27
49
76
24
43
67
22
41
64
24
41
79
32
46
79
34
51
77
32
58
87
30
69
97
35
77
101
35
56
101
31
68
138
58
62
164
73
43
157
64
31
168
81
30
178
102
33
169
95
34
150
66
23
147
58
24
140
54
22
124
39
31
144
64
68
156
65
64
153
44
43
144
26
33
149
33
40
154
52
26
155
61
5
171
77
8
166
76
7
147
60
3
167
103
61
112
81
64
83
49
35
74
44
34
69
42
35
59
39
34
58
39
33
54
39
32
53
37
32
80
50
38
120
75
59
87
49
58
115
46
67
123
50
73
112
46
62
106
40
55
90
33
44
71
26
37
61
21
33
59
26
42
62
31
51
68
32
52
74
36
58
78
29
53
123
51
57
123
46
47
150
64
58
167
73
71
155
59
54
138
56
45
108
39
43
115
52
67
104
40
54
85
25
39
79
31
45
73
33
48
64
30
47
61
32
51
66
31
54
72
28
51
64
20
52
78
27
62
101
34
52
102
34
56
123
45
60
149
68
53
174
94
45
177
90
31
166
72
27
156
65
16
154
63
22
145
58
24
137
50
24
147
61
50
164
76
69
157
51
49
151
30
27
136
10
27
134
7
33
155
44
39
160
68
7
162
76
5
152
67
4
141
58
6
160
86
35
93
63
49
74
47
36
66
44
35
58
41
34
54
39
36
53
40
34
52
39
33
58
37
31
153
99
72
107
67
54
80
45
56
120
48
70
123
56
75
124
64
75
114
53
63
85
39
51
89
41
55
93
46
61
76
40
58
89
53
76
97
51
78
105
58
84
99
41
68
139
65
62
154
76
66
188
104
89
195
109
105
184
102
94
154
74
63
144
68
65
112
49
62
98
39
57
106
46
65
104
48
72
110
61
88
89
44
64
87
43
57
98
44
67
108
38
62
92
27
52
82
23
51
101
34
50
108
34
55
118
45
61
220
170
175
213
145
103
172
80
21
158
68
28
165
72
25
158
70
24
142
58
23
149
52
28
162
65
50
166
68
52
147
35
38
158
40
38
149
28
37
139
16
44
164
49
62
160
68
10
154
69
3
153
67
4
156
69
6
166
83
18
84
53
41
71
46
38
58
39
33
53
39
32
51
38
32
52
39
32
50
39
33
69
47
45
182
126
114
107
60
63
96
57
74
146
70
100
133
64
86
128
71
81
120
60
70
99
44
59
98
42
59
110
51
71
93
46
68
109
62
95
109
57
90
116
61
93
127
67
91
142
69
55
167
86
71
194
107
95
196
109
108
183
99
92
159
78
64
150
63
42
134
60
59
113
54
75
120
58
90
111
50
78
111
57
87
107
54
80
108
57
79
119
62
88
106
34
55
104
29
45
110
35
46
120
44
57
122
42
62
123
46
61
165
88
72
154
69
48
160
69
35
161
74
36
165
75
29
158
70
23
143
58
20
151
53
28
157
53
38
157
50
44
152
40
42
160
46
42
160
47
41
149
24
51
170
54
73
159
68
16
161
74
6
167
76
6
171
82
8
167
83
8
80
51
42
68
44
39
54
38
35
48
36
32
47
37
32
47
37
33
49
38
33
51
38
34
54
28
26
105
66
61
80
38
54
160
80
110
147
77
99
137
79
89
123
61
72
119
55
72
117
55
71
116
53
71
120
55
76
121
56
83
122
59
86
124
63
90
124
66
82
167
100
87
174
92
75
195
106
97
197
108
107
184
95
89
159
72
61
160
74
53
128
47
51
127
59
81
136
74
101
133
73
100
134
70
95
130
66
90
123
60
83
125
60
79
123
48
63
123
42
56
128
43
54
133
51
60
135
54
66
138
61
67
152
68
46
142
51
41
158
68
41
162
74
34
164
73
27
159
70
22
145
57
20
150
52
25
147
46
34
122
16
26
146
38
44
171
58
52
167
53
43
151
31
55
176
59
79
168
72
21
166
78
6
164
79
4
162
76
4
158
77
3
80
56
47
61
42
35
48
37
32
46
36
33
47
36
33
47
38
32
51
37
32
54
34
31
55
29
31
96
62
60
87
45
59
162
91
117
148
81
96
135
67
72
123
49
57
129
54
69
134
71
87
139
76
90
138
71
87
136
69
84
138
69
87
135
68
84
143
74
73
160
89
75
172
90
72
195
107
99
196
108
106
176
87
77
164
75
64
152
72
57
150
73
72
127
48
63
145
75
89
144
81
98
143
79
94
141
76
89
138
70
87
140
63
77
138
57
70
138
58
74
134
56
70
134
53
61
142
62
73
149
67
64
138
50
38
147
56
50
154
64
38
157
66
29
158
66
26
158
68
24
145
55
20
154
59
26
141
44
33
120
18
38
146
38
53
176
64
76
170
53
51
150
41
60
172
64
75
159
70
14
148
67
3
148
66
2
154
71
4
166
84
16
85
66
61
53
39
34
44
36
34
46
37
33
47
36
33
48
36
33
52
33
32
46
26
26
40
19
26
48
27
30
119
75
74
163
91
106
149
79
88
128
57
61
131
53
62
135
60
72
144
78
88
152
82
91
153
83
93
152
82
95
152
80
91
149
75
77
151
77
57
160
83
61
175
92
71
199
109
100
194
105
99
176
87
70
164
76
61
162
75
59
150
67
52
143
62
60
155
80
84
152
84
91
155
87
96
156
86
97
154
84
97
154
80
91
151
72
84
149
71
86
150
74
86
144
65
75
149
63
62
150
63
48
139
47
43
149
58
43
154
63
34
155
64
26
155
64
26
154
66
23
144
55
21
158
63
30
158
64
48
140
44
58
155
54
68
190
83
99
176
62
62
142
38
53
171
73
68
146
63
8
142
62
4
150
68
7
155
71
4
173
97
33
102
89
86
46
37
36
46
36
35
50
35
33
51
31
29
47
26
27
39
20
24
32
16
24
26
15
26
23
12
22
54
30
31
169
111
110
144
79
81
136
68
78
149
81
92
145
83
91
144
75
79
158
84
87
161
89
97
162
92
100
164
91
94
168
92
79
149
73
48
163
86
63
182
94
78
198
109
103
191
102
95
179
88
70
167
81
61
162
74
57
153
66
48
154
71
56
158
82
79
166
95
103
168
99
107
168
97
108
167
98
107
164
95
103
166
92
102
164
88
102
161
83
92
166
87
80
157
71
57
146
55
44
147
58
48
150
60
39
152
62
30
153
62
23
153
63
26
153
65
23
147
56
23
160
64
32
166
68
47
151
57
67
153
58
72
191
90
107
171
59
60
153
50
64
134
54
45
121
49
17
135
58
10
146
65
5
152
68
6
183
116
62
132
122
119
51
36
37
51
32
31
47
27
28
40
20
26
32
17
23
26
14
22
24
14
23
24
14
23
22
15
24
26
13
20
132
66
70
194
134
132
165
113
111
156
93
97
162
99
104
165
95
99
169
98
101
173
104
107
176
105
105
174
102
93
155
79
60
150
75
57
168
85
65
188
100
88
201
110
109
192
102
97
182
90
73
170
81
63
161
77
59
155
74
57
152
73
57
157
81
69
177
109
99
174
108
106
180
111
119
179
108
114
175
107
113
174
102
104
176
96
90
177
96
86
166
79
67
152
62
53
157
67
56
155
65
48
152
61
38
152
63
28
152
62
21
151
61
22
149
65
24
147
57
26
162
63
30
162
65
47
143
45
54
157
60
79
200
100
117
165
56
58
168
67
77
94
30
26
65
23
18
79
32
21
105
42
18
128
55
10
190
139
101
170
161
159
50
30
31
41
23
27
33
18
26
29
16
25
26
14
24
24
14
24
23
14
23
21
14
22
21
14
22
25
11
20
145
69
85
165
77
86
134
62
56
154
79
69
166
91
79
172
98
90
170
94
87
162
86
77
148
66
57
151
68
58
166
87
80
166
88
72
179
90
72
205
112
106
214
122
127
198
103
100
186
89
73
176
83
66
177
87
75
167
81
70
156
77
69
175
101
104
169
92
90
160
78
73
161
83
73
150
69
61
162
86
81
166
90
87
154
69
63
150
64
61
155
60
58
156
62
52
155
67
49
158
65
43
156
62
36
156
64
28
154
60
21
152
61
23
147
64
23
143
54
26
158
59
30
145
46
39
140
42
51
150
51
68
189
86
99
160
52
62
160
63
71
77
25
21
48
21
26
38
19
27
47
21
25
67
28
22
184
162
155
209
205
205
38
21
25
29
17
25
24
15
23
23
15
22
24
13
23
25
13
22
22
13
22
21
15
22
22
14
22
23
9
19
153
75
89
160
75
82
130
58
50
135
54
45
138
51
41
138
49
41
140
53
47
160
73
69
185
101
97
191
110
109
176
96
86
171
88
71
183
92
79
216
120
120
227
134
144
203
106
104
189
88
74
185
84
73
186
84
82
181
82
73
157
69
55
176
104
108
194
117
121
197
113
121
191
111
113
179
93
96
173
85
85
163
72
72
156
66
66
154
64
62
152
60
57
152
58
50
153
61
43
159
64
40
156
64
34
154
62
29
153
63
22
154
64
22
146
61
25
140
55
25
154
54
29
133
38
36
149
53
55
159
57
55
167
64
69
155
51
64
133
42
42
81
25
23
51
21
24
33
17
25
37
18
24
39
19
27
209
204
206
228
226
227
40
29
38
25
14
23
25
14
23
24
14
23
24
14
23
24
12
22
22
14
22
20
15
22
22
14
22
24
8
18
151
69
85
159
77
83
133
64
55
146
74
63
162
84
72
172
93
83
179
100
91
180
102
94
189
109
103
190
109
110
172
88
81
170
88
77
172
90
82
199
105
100
206
112
110
190
92
89
179
77
67
174
79
75
183
81
83
184
77
70
164
64
57
159
81
86
193
112
118
202
115
121
194
110
114
187
104
106
183
99
98
176
96
93
174
90
86
171
84
80
166
82
70
160
74
56
156
67
48
153
65
41
154
63
36
152
61
27
149
61
23
151
64
27
141
57
27
137
52
27
142
47
28
145
51
49
164
62
60
155
49
44
140
39
50
161
59
63
132
30
20
116
30
25
67
20
19
33
15
23
31
17
24
43
32
38
228
226
227
245
245
245
63
54
61
25
14
23
25
13
23
25
13
23
25
14
23
21
15
22
22
14
22
21
15
22
21
14
22
25
8
18
150
67
82
152
75
79
135
67
59
146
71
60
161
82
71
171
92
81
175
94
84
184
100
93
190
106
103
184
105
107
159
77
74
114
31
33
111
35
36
168
83
78
176
88
82
168
78
73
118
38
37
56
4
11
82
19
25
161
64
63
158
53
52
153
72
78
188
109
115
199
112
117
196
109
114
189
102
105
180
94
93
173
89
85
169
86
80
168
84
76
163
79
65
159
73
53
155
70
49
151
66
46
151
62
38
147
59
25
148
59
24
151
61
26
140
54
24
135
50
26
140
50
39
140
47
47
149
49
46
134
36
41
155
56
65
172
51
45
190
46
29
183
39
30
140
32
26
53
17
20
29
15
25
67
55
64
245
245
245
255
255
255
107
99
106
25
13
23
25
13
23
25
13
23
24
14
23
21
15
22
21
14
22
21
14
22
20
14
22
24
10
19
136
63
77
148
71
77
131
66
58
144
72
60
158
82
70
166
88
76
174
95
83
184
100
94
187
105
103
178
102
102
161
81
80
138
51
57
143
60
64
140
61
61
135
49
51
131
39
44
116
37
46
121
43
55
131
44
55
151
50
60
138
39
45
161
77
87
194
111
118
197
111
116
195
107
113
188
101
104
181
94
92
169
86
79
164
86
76
163
80
69
160
76
59
155
69
51
153
71
48
149
67
46
148
62
37
146
60
29
147
60
29
144
60
32
135
53
27
133
49
30
146
52
54
150
55
56
147
51
46
149
50
47
160
52
47
168
45
41
154
24
30
146
14
28
155
24
33
109
22
28
35
14
22
108
101
106
255
255
255
255
255
255
197
194
197
25
14
23
24
14
23
24
14
23
24
14
23
21
15
22
21
14
22
22
14
22
22
14
21
24
12
21
103
48
61
145
69
76
125
63
56
138
70
59
156
83
71
164
87
77
173
95
84
179
101
94
182
103
101
174
98
95
168
94
88
156
79
78
146
77
73
154
88
90
153
85
93
151
82
90
153
89
97
150
79
83
159
78
83
164
75
83
169
85
89
188
106
110
191
112
118
189
110
115
189
106
111
184
99
99
176
92
87
165
84
75
162
84
72
163
83
69
157
76
59
153
70
55
150
68
51
147
67
48
147
62
40
146
61
33
147
61
34
139
56
32
132
52
29
127
44
29
140
39
50
155
48
53
158
50
51
153
45
41
153
43
43
138
26
36
138
20
46
137
22
48
141
21
46
140
26
37
49
15
22
196
195
198
255
255
255
255
255
255
255
255
255
45
33
42
22
16
23
25
13
23
24
13
23
21
14
22
23
14
22
26
13
23
25
13
23
24
12
22
48
21
31
127
62
72
125
60
56
135
69
61
148
78
66
162
85
74
172
93
84
174
99
90
174
100
93
175
100
94
167
97
89
157
95
88
147
87
83
151
95
98
157
105
110
160
105
111
159
97
111
147
86
93
155
95
100
165
95
97
177
100
101
182
103
106
185
106
111
182
105
109
178
104
104
175
98
97
171
90
84
164
84
74
162
83
71
157
78
63
153
71
57
155
72
56
149
70
55
145
65
48
146
62
38
147
62
38
142
60
38
137
55
34
130
50
29
126
45
28
132
34
19
135
32
26
141
39
33
150
48
43
141
40
41
131
27
44
143
37
57
141
31
53
140
23
49
145
29
44
88
38
45
255
255
255
255
255
255
255
255
255
255
255
255
171
167
170
24
13
23
25
13
23
25
13
23
24
13
22
25
13
22
26
13
23
25
13
24
23
14
22
21
13
22
61
28
38
121
61
59
135
69
60
145
76
63
155
82
70
167
92
84
164
90
83
162
95
86
163
97
89
157
99
91
147
93
87
150
93
91
151
99
105
148
102
109
151
101
108
155
98
106
145
89
91
147
92
95
152
94
97
160
99
100
165
100
101
171
101
104
171
101
104
164
94
95
164
93
94
165
89
83
162
81
72
160
81
68
155
77
62
154
75
60
152
72
53
147
69
53
141
62
42
147
62
40
148
64
42
137
57
42
132
52
37
131
51
31
127
42
24
140
39
16
137
42
18
144
45
27
146
45
38
134
37
43
139
44
62
150
46
61
148
35
53
141
28
48
144
29
44
202
170
174
255
255
255
255
255
255
255
255
255
255
255
255
241
241
241
47
36
45
25
13
23
25
13
23
25
13
23
25
13
23
26
13
23
23
14
23
22
14
23
20
12
25
53
27
40
120
59
59
133
69
60
141
74
60
150
79
68
152
83
74
152
88
78
151
93
80
151
96
89
143
93
87
130
78
74
136
75
75
127
69
78
107
60
70
111
63
71
136
80
85
130
77
80
140
86
90
144
91
92
150
100
98
154
98
96
161
100
100
164
100
102
160
91
91
155
84
81
154
83
79
160
80
72
157
77
65
154
75
61
152
74
56
151
72
58
146
68
51
145
66
46
144
65
48
136
57
45
123
50
40
124
47
36
129
50
35
124
41
26
144
40
18
138
45
23
147
45
26
149
44
34
123
27
35
122
26
43
143
37
49
160
43
55
155
32
48
162
52
65
249
242
242
255
255
255
255
255
255
255
255
255
255
255
255
255
255
255
122
115
122
25
13
25
25
13
23
26
14
24
25
14
23
24
14
23
24
14
23
23
14
23
22
12
23
45
25
37
110
57
61
132
68
61
138
72
60
148
81
70
141
77
68
145
85
76
143
90
85
131
78
80
126
70
71
144
77
83
151
74
87
157
80
94
170
91
108
159
81
97
163
85
97
159
87
96
138
76
83
133
78
81
133
83
84
150
96
96
156
100
102
161
101
103
157
92
89
154
84
75
151
78
69
156
79
72
153
75
64
153
74
60
151
73
56
150
72
55
149
71
53
145
68
49
134
61
48
126
53
45
123
49
41
125
48
37
126
48
35
126
42
25
141
40
17
137
45
24
147
45
24
157
49
32
130
30
34
127
27
49
138
30
51
157
38
50
158
32
40
197
125
131
255
255
255
255
255
255
255
255
255
255
255
255
255
255
255
255
255
255
242
242
242
28
16
28
25
13
23
25
13
23
23
15
23
22
15
23
22
13
24
23
13
24
22
13
21
37
22
33
97
52
61
128
66
60
135
71
60
140
76
65
135
72
65
142
83
80
124
70
72
127
70
74
155
81
89
144
66
81
136
59
77
137
60
81
141
61
81
138
59
79
138
57
77
145
61
78
159
81
95
157
87
97
139
82
87
123
72
76
139
89
93
151
98
100
151
92
91
154
85
77
148
75
64
149
73
67
150
72
62
152
75
59
147
70
55
149
74
55
150
72
53
133
60
53
115
46
47
118
48
42
123
47
42
122
45
37
118
44
31
132
46
29
148
49
25
135
45
23
142
46
27
155
50
29
136
34
37
136
40
61
143
38
56
159
36
47
157
33
42
250
243
243
255
255
255
255
255
255
255
255
255
255
255
255
255
255
255
255
255
255
255
255
255
178
174
178
23
13
22
24
12
23
22
15
23
22
15
23
22
13
22
22
14
22
21
16
23
25
14
24
81
43
53
123
63
57
134
71
59
138
73
63
128
69
66
119
66
65
116
58
64
119
56
67
111
39
60
118
37
64
132
49
75
134
49
76
133
50
77
128
46
71
125
39
64
127
41
66
127
44
67
117
40
61
121
47
64
116
51
64
108
53
63
125
75
80
126
72
76
140
80
78
146
76
66
148
74
64
151
72
60
153
75
59
146
70
54
133
63
53
135
62
53
117
51
50
112
47
49
115
46
44
124
46
40
125
46
37
115
42
29
134
45
27
147
51
23
128
44
24
132
39
29
144
42
29
130
32
38
149
48
64
160
43
50
162
36
45
222
179
182
255
255
255
255
255
255
255
255
255
255
255
255
255
255
255
255
255
255
255
255
255
255
255
255
251
251
251
80
73
81
23
13
24
22
14
23
21
14
22
21
14
22
21
14
22
21
14
22
24
15
24
61
32
43
116
62
65
131
70
62
136
71
66
107
54
57
117
64
66
113
54
60
119
56
67
143
72
95
158
75
102
171
79
110
177
85
119
168
78
112
167
77
110
180
91
123
177
89
122
163
76
107
150
70
95
134
62
80
117
52
65
115
56
66
106
53
62
115
61
71
106
53
58
134
68
67
146
73
63
151
74
62
144
70
58
135
61
55
121
56
54
124
55
53
111
47
47
111
44
44
114
40
40
118
45
40
122
44
35
116
39
27
138
46
29
142
50
20
120
41
23
121
36
31
137
38
31
134
31
34
172
50
54
177
47
42
183
87
92
253
251
252
255
255
255
255
255
255
255
255
255
255
255
255
255
255
255
255
255
255
255
255
255
255
255
255
255
255
255
219
218
220
23
13
24
23
13
24
22
13
24
22
13
24
22
13
24
23
13
24
23
13
23
41
24
35
91
48
56
124
63
63
131
70
67
105
50
51
126
67
68
135
74
78
137
72
76
135
62
72
150
71
84
168
80
103
174
87
113
173
85
113
175
86
115
180
90
118
168
81
104
160
72
91
152
70
83
144
68
76
142
70
76
148
81
84
143
82
86
138
79
85
122
62
68
120
58
62
144
70
66
147
68
59
133
57
54
121
53
52
117
53
52
115
48
49
112
45
46
109
40
41
117
45
44
109
38
38
111
40
36
118
36
29
141
48
30
139
51
24
135
60
33
111
27
15
139
40
31
161
47
46
180
57
57
179
54
47
240
221
221
255
255
255
255
255
255
255
255
255
255
255
255
255
255
255
255
255
255
255
255
255
255
255
255
255
255
255
255
255
255
255
255
255
179
175
179
23
13
24
22
13
24
20
12
23
20
12
23
20
12
23
22
13
24
29
16
26
69
40
51
105
51
60
119
63
66
111
58
60
132
72
71
140
74
70
140
72
68
129
63
64
118
56
57
122
58
66
105
46
60
99
41
56
96
41
56
98
43
55
116
55
66
121
53
63
124
54
60
133
61
65
148
74
76
155
80
76
147
74
72
145
77
75
133
73
71
123
64
69
126
62
63
132
58
54
124
48
51
110
44
46
112
50
54
106
42
45
104
38
42
106
41
45
100
37
39
104
39
39
105
35
37
125
37
30
138
46
28
136
52
27
144
82
49
160
99
84
136
43
33
160
47
43
168
51
50
229
189
187
255
255
255
255
255
255
255
255
255
255
255
255
255
255
255
255
255
255
255
255
255
255
255
255
255
255
255
255
255
255
255
255
255
255
255
255
255
255
255
123
118
125
20
12
23
21
13
24
20
12
23
20
12
23
21
13
24
22
14
25
40
26
37
81
45
55
94
47
54
100
50
56
118
62
64
136
71
67
140
70
65
138
69
68
130
64
66
111
51
56
97
41
49
97
45
54
86
39
49
84
40
49
93
39
48
112
49
56
127
61
65
139
72
73
149
76
73
151
73
68
150
74
68
146
73
68
134
70
70
107
52
58
111
52
56
120
51
51
115
45
47
98
35
41
99
37
44
95
38
43
92
34
39
94
32
40
93
32
37
99
36
38
103
33
33
135
46
35
132
48
30
133
54
27
94
37
24
148
108
113
198
123
121
168
56
49
210
140
136
255
255
255
255
255
255
255
255
255
255
255
255
255
255
255
255
255
255
255
255
255
255
255
255
255
255
255
255
255
255
255
255
255
255
255
255
255
255
255
255
255
255
255
255
255
73
66
75
20
12
23
20
12
23
20
12
23
21
13
24
21
13
24
28
18
28
59
34
45
83
43
50
95
46
55
110
55
64
129
67
64
132
65
57
140
71
63
146
75
72
143
74
75
135
69
71
136
73
76
135
72
78
135
74
80
141
74
80
145
79
80
149
82
83
149
79
79
149
73
72
149
71
70
147
72
69
145
74
67
129
64
65
106
49
56
98
42
50
107
43
48
102
36
42
97
35
41
90
33
40
91
34
43
83
31
38
88
32
38
93
32
38
84
28
31
118
40
37
134
45
35
121
48
31
129
53
28
80
28
21
78
51
63
208
156
166
211
141
140
255
255
255
255
255
255
255
255
255
255
255
255
255
255
255
255
255
255
255
255
255
255
255
255
255
255
255
255
255
255
255
255
255
255
255
255
255
255
255
255
255
255
255
255
255
255
255
255
255
255
255
89
83
91
20
12
23
20
12
23
20
12
23
20
13
23
22
13
23
38
23
37
68
37
47
79
39
48
91
46
59
110
59
64
127
69
63
143
79
73
155
86
84
161
93
94
162
97
100
169
101
109
169
102
109
165
100
105
166
99
104
168
100
104
168
101
103
165
95
96
155
83
82
150
79
77
145
78
76
135
75
74
111
55
57
105
50
57
98
40
46
100
36
40
95
33
41
98
36
41
82
28
35
87
29
38
85
29
37
88
30
39
82
28
36
103
31
33
130
43
35
126
44
35
118
47
33
135
52
29
65
27
22
14
10
20
191
163
177
255
255
255
255
255
255
255
255
255
255
255
255
255
255
255
255
255
255
255
255
255
255
255
255
255
255
255
255
255
255
255
255
255
255
255
255
255
255
255
255
255
255
255
255
255
255
255
255
255
255
255
255
255
255
255
255
255
73
66
75
20
12
23
20
12
23
20
13
23
22
14
25
25
15
26
49
29
40
64
35
44
75
41
50
93
50
58
123
69
70
135
79
78
138
81
82
154
95
99
162
99
106
173
106
116
173
103
114
167
101
110
162
98
106
158
97
106
162
105
111
157
99
103
149
89
90
143
82
83
124
72
71
113
63
70
94
49
57
95
47
56
90
35
43
100
37
41
84
31
35
90
29
36
90
32
41
80
28
37
81
29
35
80
25
32
97
30
35
120
35
31
126
43
36
117
43
37
126
48
34
133
49
29
58
23
24
59
64
73
255
255
255
255
255
255
255
255
255
255
255
255
255
255
255
255
255
255
255
255
255
255
255
255
255
255
255
255
255
255
255
255
255
255
255
255
255
255
255
255
255
255
255
255
255
255
255
255
255
255
255
255
255
255
255
255
255
255
255
255
255
255
255
122
118
124
20
13
23
18
14
23
20
13
23
20
14
23
33
20
31
51
32
44
73
40
50
86
48
57
100
55
59
101
56
59
120
71
74
129
76
80
148
90
95
165
105
112
164
99
108
163
104
112
147
94
103
143
95
103
128
84
91
130
83
86
117
68
71
118
66
75
115
63
70
93
46
55
89
47
57
88
42
51
77
31
39
92
34
40
82
31
35
85
31
40
72
25
35
67
24
32
77
26
30
91
27
30
113
30
31
123
38
36
119
43
42
106
41
39
126
46
35
127
45
33
151
128
129
255
255
255
255
255
255
255
255
255
255
255
255
255
255
255
255
255
255
255
255
255
255
255
255
255
255
255
255
255
255
255
255
255
255
255
255
255
255
255
255
255
255
255
255
255
255
255
255
255
255
255
255
255
255
255
255
255
255
255
255
255
255
255
255
255
255
255
255
255
177
175
179
20
13
23
20
12
23
20
12
23
20
13
22
37
23
35
63
35
49
72
40
49
83
44
51
88
50
58
103
57
64
113
63
69
137
83
88
144
83
91
149
86
93
150
92
98
135
84
90
127
81
90
116
71
78
118
68
71
117
64
69
107
55
64
107
53
59
102
51
59
88
42
50
83
36
42
72
29
38
81
30
40
67
24
31
61
22
30
74
26
35
88
28
35
100
30
34
107
29
31
114
33
32
121
38
40
115
42
42
101
40
42
123
46
36
211
186
182
255
255
255
255
255
255
255
255
255
255
255
255
255
255
255
255
255
255
255
255
255
255
255
255
255
255
255
255
255
255
255
255
255
255
255
255
255
255
255
255
255
255
255
255
255
255
255
255
255
255
255
255
255
255
255
255
255
255
255
255
255
255
255
255
255
255
255
255
255
255
255
255
255
255
255
219
218
220
78
72
80
20
12
23
18
14
23
23
17
27
41
25
37
70
38
50
81
45
53
81
45
54
94
50
58
97
52
59
114
63
70
122
65
73
140
80
85
128
73
79
119
68
76
109
61
70
106
58
67
109
58
66
101
52
62
102
53
60
105
48
55
101
46
53
87
36
45
75
32
39
57
26
34
54
23
30
69
22
31
89
29
37
102
30
37
107
28
35
108
28
32
108
28
30
117
36
38
120
40
42
116
42
41
141
93
94
235
223
222
255
255
255
255
255
255
255
255
255
255
255
255
255
255
255
255
255
255
255
255
255
255
255
255
255
255
255
255
255
255
255
255
255
255
255
255
255
255
255
255
255
255
255
255
255
255
255
255
255
255
255
255
255
255
255
255
255
255
255
255
255
255
255
255
255
255
255
255
255
255
255
255
255
255
255
255
255
255
255
255
255
251
251
251
177
174
178
22
16
26
20
12
25
26
16
27
47
26
35
70
42
49
78
42
53
91
50
59
84
45
51
88
46
55
99
52
60
118
62
66
102
53
57
103
54
63
97
52
60
101
56
63
90
42
50
88
42
50
89
44
52
95
40
49
82
38
46
66
32
42
50
23
33
61
22
32
92
28
36
102
29
33
101
29
32
102
28
33
103
27
32
104
26
31
113
33
39
118
38
44
121
42
46
210
183
183
252
252
252
255
255
255
255
255
255
255
255
255
255
255
255
255
255
255
255
255
255
255
255
255
255
255
255
255
255
255
255
255
255
255
255
255
255
255
255
255
255
255
255
255
255
255
255
255
255
255
255
255
255
255
255
255
255
255
255
255
255
255
255
255
255
255
255
255
255
255
255
255
255
255
255
255
255
255
255
255
255
255
255
255
255
255
255
255
255
255
255
255
255
242
242
242
120
115
122
38
33
41
90
60
63
64
31
37
63
33
45
75
41
53
79
40
50
73
36
49
75
36
45
80
40
49
76
37
45
81
40
51
81
41
52
76
37
46
74
35
44
77
38
49
76
35
47
65
28
38
55
25
35
57
24
34
83
26
35
101
31
37
106
28
33
103
27
32
101
26
31
102
27
32
101
26
33
106
30
36
126
58
63
175
131
133
247
243
243
255
255
255
255
255
255
255
255
255
255
255
255
255
255
255
255
255
255
255
255
255
255
255
255
255
255
255
255
255
255
255
255
255
255
255
255
255
255
255
255
255
255
255
255
255
255
255
255
255
255
255
255
255
255
255
255
255
255
255
255
255
255
255
255
255
255
255
255
255
255
255
255
255
255
255
255
255
255
255
255
255
255
255
255
255
255
255
255
255
255
255
255
255
255
255
255
255
255
255
255
255
255
240
240
240
217
201
199
122
69
71
87
38
48
60
24
35
58
34
45
55
30
42
61
33
46
46
29
37
45
29
38
49
28
39
46
24
37
44
24
36
51
27
39
52
25
35
50
23
30
60
24
34
85
29
37
97
31
38
103
28
33
104
27
34
104
26
36
102
25
31
99
25
33
94
23
31
111
44
53
202
174
177
247
242
243
255
255
255
255
255
255
255
255
255
255
255
255
255
255
255
255
255
255
255
255
255
255
255
255
255
255
255
255
255
255
255
255
255
255
255
255
255
255
255
255
255
255
255
255
255
255
255
255
255
255
255
255
255
255
255
255
255
255
255
255
255
255
255
255
255
255
255
255
255
255
255
255
255
255
255
255
255
255
255
255
255
255
255
255
255
255
255
255
255
255
255
255
255
255
255
255
255
255
255
255
255
255
255
255
255
255
255
255
255
255
255
255
255
255
255
255
255
223
206
208
157
119
124
102
65
72
66
37
46
57
29
36
48
24
32
49
23
33
60
30
43
51
23
34
59
25
36
65
26
34
77
29
36
88
31
38
95
32
39
97
30
36
97
28
33
94
26
32
95
26
33
105
39
46
121
61
69
152
106
111
214
197
200
255
255
255
255
255
255
255
255
255
255
255
255
255
255
255
255
255
255
255
255
255
255
255
255
255
255
255
255
255
255
255
255
255
255
255
255
255
255
255
255
255
255
255
255
255
255
255
255
255
255
255
255
255
255
255
255
255
255
255
255
255
255
255
255
255
255
255
255
255
255
255
255
255
255
255
255
255
255
255
255
255
255
255
255
255
255
255
255
255
255
255
255
255
255
255
255
255
255
255
255
255
255
255
255
255
255
255
255
255
255
255
255
255
255
255
255
255
255
255
255
255
255
255
255
255
255
255
255
255
255
255
255
248
245
246
235
228
229
217
207
209
181
161
164
147
116
120
122
84
89
101
58
64
89
41
48
88
33
37
92
33
37
100
41
46
111
55
62
129
80
84
152
114
117
184
157
160
219
205
207
235
227
228
248
245
245
255
255
255
255
255
255
255
255
255
255
255
255
255
255
255
255
255
255
255
255
255
255
255
255
255
255
255
255
255
255
255
255
255
255
255
255
255
255
255
255
255
255
255
255
255
255
255
255
255
255
255
255
255
255
255
255
255
255
255
255
255
255
255
255
255
255
255
255
255
