P3
64 64
255
255
255
255
255
255
255
255
255
255
255
255
255
255
255
255
255
255
255
255
255
255
255
255
255
255
255
255
255
255
255
255
255
255
255
255
255
255
255
255
255
255
255
255
255
255
255
255
255
255
255
255
255
255
255
255
255
255
255
255
255
255
255
255
255
255
255
255
255
255
255
255
255
255
255
255
255
255
255
254
254
254
254
254
253
253
254
253
252
254
252
252
254
252
253
253
255
253
253
255
254
254
255
254
254
255
253
253
254
254
254
253
254
254
253
255
254
254
255
255
254
255
255
255
255
255
255
255
255
255
255
255
255
255
255
255
255
255
255
255
255
255
255
255
255
255
255
255
255
255
255
255
255
255
255
255
255
255
255
255
255
255
255
255
255
255
255
255
255
255
255
255
255
255
255
255
255
255
255
255
255
255
255
255
255
255
255
255
255
255
255
255
255
255
255
255
255
255
255
255
255
255
255
255
255
255
255
255
255
255
255
255
255
255
255
255
255
255
255
255
255
255
255
255
255
255
255
255
255
255
255
255
255
255
255
255
255
255
255
255
255
255
255
255
255
255
255
255
255
255
255
255
255
255
255
255
255
255
255
254
254
254
253
253
253
253
253
253
253
253
253
254
254
252
253
254
249
252
253
248
253
254
249
255
255
251
253
252
253
255
252
254
254
251
253
253
250
252
254
251
252
252
248
245
255
253
250
255
251
248
255
252
249
255
252
249
255
252
249
255
254
253
255
255
255
255
255
255
255
255
255
255
255
255
255
255
255
255
255
255
255
255
255
255
255
255
255
255
255
255
255
255
255
255
255
255
255
255
255
255
255
255
255
255
255
255
255
255
255
255
255
255
255
255
255
255
255
255
255
255
255
255
255
255
255
255
255
255
255
255
255
255
255
255
255
255
255
255
255
255
255
255
255
255
255
255
255
255
255
255
255
255
255
255
255
255
255
255
255
255
255
255
255
255
255
255
255
255
255
255
255
255
255
255
255
255
255
255
255
255
255
255
255
253
253
255
251
251
255
252
251
253
253
253
253
253
253
253
253
253
253
253
253
253
253
250
254
253
248
254
253
248
253
253
248
249
249
244
254
247
244
253
242
240
255
247
245
251
242
239
254
245
243
253
249
245
250
246
242
254
249
245
255
250
247
255
251
247
255
251
247
255
251
247
255
251
247
255
252
248
255
254
254
255
255
255
255
255
255
255
255
255
255
255
255
255
255
255
255
255
255
255
255
255
255
255
255
255
255
255
255
255
255
255
255
255
255
255
255
255
255
255
255
255
255
255
255
255
255
255
255
255
255
255
255
255
255
255
255
255
255
255
255
255
255
255
255
255
255
255
255
255
255
255
255
255
255
255
255
255
255
255
255
255
255
255
255
255
255
255
255
255
255
255
255
255
255
255
255
255
255
255
255
255
255
255
255
255
255
253
253
255
250
250
255
250
250
255
250
250
255
251
251
254
251
254
253
252
252
253
254
250
252
253
247
255
250
246
252
237
232
225
211
204
216
199
190
214
192
184
227
202
195
194
167
161
183
157
151
212
187
180
238
216
207
241
222
212
242
223
218
255
245
242
251
251
245
253
250
247
255
249
248
255
250
246
254
251
246
252
253
247
255
251
247
255
251
249
255
253
252
255
255
255
255
255
255
255
255
255
255
255
255
255
255
255
255
255
255
255
255
255
255
255
255
255
255
255
255
255
255
255
255
255
255
255
255
255
255
255
255
255
255
255
255
255
255
255
255
255
255
255
255
255
255
255
255
255
255
255
255
255
255
255
255
255
255
255
255
255
255
255
255
255
255
255
255
255
255
255
255
255
255
255
255
255
255
255
255
255
255
255
255
255
255
254
254
255
250
250
255
249
249
255
249
249
255
250
250
255
250
250
255
250
251
254
251
254
252
253
250
250
250
244
253
248
240
214
189
185
147
112
110
123
90
85
88
50
43
94
48
42
92
51
45
91
51
44
57
19
11
45
8
0
95
59
49
182
146
133
222
183
177
254
226
221
248
242
233
250
249
244
255
250
248
255
251
246
252
251
246
250
253
247
255
250
247
255
250
247
255
250
247
255
251
249
255
254
254
255
255
255
255
255
255
255
255
255
255
255
255
255
255
255
255
255
255
255
255
255
255
255
255
255
255
255
255
255
255
255
255
255
255
255
255
255
255
255
255
255
255
255
255
255
255
255
255
255
255
255
255
255
255
255
255
255
255
255
255
255
255
255
255
255
255
255
255
255
255
255
255
255
255
255
255
255
255
255
255
255
255
255
255
255
251
251
255
249
249
255
249
249
255
249
249
255
249
249
255
250
250
255
250
250
255
251
250
251
253
252
253
252
248
255
250
245
191
168
163
103
68
66
94
60
57
59
28
23
42
10
5
67
28
25
95
54
49
66
24
18
73
29
23
62
18
14
49
5
1
100
55
45
155
105
94
193
150
140
244
217
207
254
246
236
252
252
244
250
252
247
251
252
247
255
251
245
255
250
247
255
250
247
255
250
247
255
250
247
255
250
247
255
252
250
255
255
255
255
255
255
255
255
255
255
255
255
255
255
255
255
255
255
255
255
255
255
255
255
255
255
255
255
255
255
255
255
255
255
255
255
255
255
255
255
255
255
255
255
255
255
255
255
255
255
255
255
255
255
255
255
255
255
255
255
255
255
255
255
255
255
255
255
255
255
255
255
255
255
255
255
254
254
255
250
250
255
249
249
255
249
249
255
249
249
255
249
249
255
249
249
255
249
249
255
249
249
255
249
249
252
248
246
254
249
245
236
219
214
137
105
101
69
37
32
41
19
11
39
25
16
29
15
7
32
12
8
64
32
24
69
31
24
61
19
13
88
41
37
83
36
33
65
18
8
125
69
52
148
93
75
150
107
94
238
213
199
255
248
237
253
253
250
252
251
249
255
250
243
255
250
246
255
250
247
255
250
247
255
250
247
255
250
247
255
250
247
255
251
248
255
255
255
255
255
255
255
255
255
255
255
255
255
255
255
255
255
255
255
255
255
255
255
255
255
255
255
255
255
255
255
255
255
255
255
255
255
255
255
255
255
255
255
255
255
255
255
255
255
255
255
255
255
255
255
255
255
255
255
255
255
255
255
255
255
255
255
255
255
255
253
252
255
249
248
255
249
249
255
249
249
255
249
249
255
249
249
255
249
249
255
249
249
255
249
249
255
249
249
255
249
249
255
247
246
242
229
225
181
162
156
72
42
36
57
22
15
67
38
31
39
17
12
29
10
7
40
17
19
50
23
15
61
31
20
58
22
15
78
36
30
74
30
25
89
44
33
134
79
56
142
85
60
94
46
29
173
131
117
229
202
193
252
242
243
253
251
251
255
250
242
255
250
246
255
250
247
255
250
247
255
250
247
255
250
247
255
250
247
255
250
247
255
250
247
255
254
253
255
255
255
255
255
255
255
255
255
255
255
255
255
255
255
255
255
255
255
255
255
255
255
255
255
255
255
255
255
255
255
255
255
255
255
255
255
255
255
255
255
255
255
255
255
255
255
255
255
255
255
255
255
255
255
255
255
255
255
255
255
253
251
255
250
247
255
250
247
255
250
247
255
250
247
255
250
247
255
250
247
255
250
250
255
249
249
255
249
249
255
249
249
253
248
248
255
252
247
229
215
207
94
66
60
55
20
17
73
35
27
81
44
33
49
20
13
36
14
12
20
6
7
40
13
8
68
36
28
59
18
9
60
15
5
93
48
37
68
23
17
134
86
76
145
95
78
125
69
46
140
83
58
193
144
118
240
222
207
247
253
252
254
250
245
255
250
246
255
250
247
255
250
247
255
250
247
255
250
247
255
250
247
255
250
247
255
250
247
255
250
247
255
253
252
255
255
255
255
255
255
255
255
255
255
255
255
255
255
255
255
255
255
255
255
255
255
255
255
255
255
255
255
255
255
255
255
255
255
255
255
255
255
255
255
255
255
255
255
255
255
255
255
255
255
255
255
255
255
255
252
250
255
250
247
255
250
247
255
250
247
255
250
247
255
250
247
255
250
247
255
250
247
255
250
250
255
249
249
255
249
249
255
249
249
255
249
249
253
248
247
159
146
145
39
16
13
51
20
17
80
43
36
66
25
16
80
37
28
78
30
24
66
17
12
83
21
11
96
33
20
123
56
41
125
57
41
139
72
55
86
27
15
134
78
64
117
64
50
132
81
68
115
62
46
166
116
94
232
208
193
249
250
250
253
249
244
255
250
247
255
250
247
255
250
247
255
250
247
255
250
247
255
250
247
255
250
247
255
250
247
255
250
247
255
250
247
255
253
252
255
255
255
255
255
255
255
255
255
255
255
255
255
255
255
255
255
255
255
255
255
255
255
255
255
255
255
255
255
255
255
255
255
255
255
255
255
255
255
255
255
255
255
255
255
255
255
255
255
252
251
255
250
247
255
250
247
255
250
247
255
250
247
255
250
247
255
250
247
255
250
247
255
250
247
255
250
250
255
249
249
255
249
249
254
248
248
253
246
246
253
247
247
64
54
57
35
14
15
57
22
17
95
47
37
87
29
18
104
35
23
138
57
45
158
69
56
166
70
54
168
78
59
169
85
64
185
100
79
196
112
92
160
88
66
122
52
31
115
55
41
68
23
17
65
25
20
152
102
84
235
201
189
250
242
242
252
248
246
255
250
246
255
250
247
255
250
247
255
250
247
255
251
248
255
250
247
255
250
247
255
250
247
255
250
247
255
250
247
255
250
247
255
253
252
255
255
255
255
255
255
255
255
255
255
255
255
255
255
255
255
255
255
255
255
255
255
255
255
255
255
255
255
255
255
255
255
255
255
255
255
255
255
255
255
255
255
255
253
253
255
250
247
255
250
247
255
250
247
255
250
247
255
250
247
255
250
247
255
250
247
255
250
247
255
250
247
255
250
250
255
249
249
255
249
249
254
248
248
253
248
246
215
211
206
19
9
9
43
15
15
87
33
23
116
40
24
127
43
26
145
57
38
184
90
71
198
100
79
174
72
54
173
86
65
201
128
105
208
135
115
209
130
113
219
141
121
162
83
59
130
61
43
93
42
38
62
24
22
140
91
79
175
130
119
255
242
244
251
248
246
255
251
247
255
250
247
255
250
247
255
250
247
255
251
248
255
250
247
255
250
247
255
250
247
255
250
247
255
250
247
255
250
247
255
250
247
255
254
253
255
255
255
255
255
255
255
255
255
255
255
255
255
255
255
255
255
255
255
255
255
255
255
255
255
255
255
255
255
255
255
255
255
255
255
255
255
254
254
255
249
249
255
250
247
255
250
247
255
250
247
255
250
247
255
250
247
255
250
247
255
250
247
255
250
247
255
250
247
255
250
250
255
249
249
255
249
249
254
248
248
253
248
244
182
179
167
23
13
11
56
20
17
104
34
20
140
47
25
159
57
36
165
65
44
195
100
77
221
127
102
199
107
89
218
144
126
235
181
161
236
181
163
214
150
136
201
126
111
204
122
101
165
90
72
153
96
89
63
26
24
82
36
27
95
46
38
250
232
233
252
249
247
255
250
247
255
250
247
255
250
247
255
250
247
255
251
248
255
250
247
255
250
247
255
250
247
255
250
247
255
250
247
255
250
247
255
251
248
255
251
248
255
255
255
255
255
255
255
255
255
255
255
255
255
255
255
255
255
255
255
255
255
255
255
255
255
255
255
255
255
255
255
255
255
255
255
255
255
250
250
255
249
249
255
250
250
255
250
250
255
249
249
255
249
249
255
251
249
253
252
248
253
252
248
252
251
247
252
251
247
255
250
250
255
249
249
254
248
248
253
247
247
255
250
248
147
139
130
16
2
1
78
38
33
102
27
11
133
36
12
171
68
50
179
73
63
211
110
98
200
111
88
214
139
122
238
183
168
254
214
204
244
202
191
236
189
176
236
182
165
227
157
147
169
96
89
139
77
67
57
17
4
100
60
51
122
73
73
239
210
210
253
253
248
254
250
247
255
250
247
255
250
247
255
250
247
255
250
247
255
250
247
255
250
247
255
250
247
255
250
247
255
250
247
255
250
247
255
251
248
255
251
248
255
251
249
255
255
255
255
255
255
255
255
255
255
255
255
255
255
255
255
255
255
255
255
255
255
255
255
255
255
255
255
255
255
255
251
251
255
249
249
255
249
249
255
250
250
255
250
250
255
249
249
255
249
249
255
251
249
253
252
248
253
252
248
252
251
247
252
251
247
255
251
250
255
249
249
254
248
248
253
247
247
255
255
253
86
81
74
20
3
1
98
48
44
112
28
16
148
46
25
192
87
68
214
112
99
211
122
108
209
133
114
230
170
154
250
209
196
255
229
220
248
221
211
238
205
193
242
201
184
242
185
173
192
125
115
158
91
80
77
28
16
149
105
97
88
42
41
195
170
169
249
248
243
254
250
247
255
250
247
255
250
247
255
250
247
255
250
247
255
250
247
255
250
247
255
250
247
255
250
247
255
250
247
255
250
247
255
251
248
255
251
248
255
251
248
255
253
252
255
255
255
255
255
255
255
255
255
255
255
255
255
255
255
255
255
255
255
255
255
255
255
255
255
254
254
255
250
250
255
249
249
255
249
249
255
250
250
255
250
250
255
250
250
255
250
250
255
251
249
253
252
248
253
252
248
252
251
247
252
251
247
255
250
249
253
247
247
253
247
247
254
248
248
255
254
253
119
113
109
29
5
1
106
52
44
123
42
29
152
56
41
196
97
81
211
118
100
208
127
108
216
147
129
239
179
164
252
209
198
248
220
211
237
209
200
238
204
194
246
207
192
243
192
179
224
161
149
177
106
93
100
41
29
98
50
43
82
42
39
155
134
131
248
247
243
253
249
246
254
249
246
254
249
246
255
250
247
255
251
248
255
250
247
255
250
247
255
250
247
255
250
247
255
251
248
255
251
248
255
251
248
255
251
248
255
251
248
255
251
248
255
254
254
255
255
255
255
255
255
255
255
255
255
255
255
255
255
255
255
255
255
255
255
255
255
250
250
255
250
250
255
249
249
255
249
249
255
250
250
255
250
250
255
250
250
255
250
250
255
251
249
253
252
248
253
252
248
252
251
247
252
251
247
255
250
249
253
247
247
252
246
246
252
246
246
254
248
249
196
186
187
45
18
13
102
55
43
128
64
47
130
51
42
183
96
88
185
98
79
216
137
112
217
147
121
232
157
142
241
180
168
247
201
193
247
201
192
242
191
181
243
191
184
244
188
177
238
173
161
151
78
63
131
68
56
100
49
44
75
38
33
156
138
134
249
249
244
253
249
245
254
249
246
254
249
246
255
250
247
255
251
248
255
250
247
255
250
247
255
250
247
255
250
247
255
251
248
255
251
248
255
251
248
255
251
248
255
251
248
255
251
248
255
252
250
255
255
255
255
255
255
255
255
255
255
255
255
255
255
255
255
255
255
255
253
253
255
249
249
255
249
249
255
249
249
255
249
249
254
252
250
254
252
250
254
252
250
254
252
250
253
252
250
252
251
249
253
252
249
253
252
249
251
250
248
253
250
249
251
249
248
250
247
247
250
247
246
248
243
243
232
218
218
52
27
20
78
30
22
71
22
11
58
10
6
86
27
18
109
41
25
218
150
125
193
132
101
189
100
76
185
105
88
204
141
129
219
153
142
237
168
157
246
184
176
246
182
171
226
157
143
152
78
59
133
68
56
125
66
63
117
71
68
157
142
134
248
250
240
250
248
244
252
249
246
252
250
247
252
250
247
254
251
248
254
251
247
254
251
247
254
251
247
254
251
247
254
251
248
255
251
248
255
251
248
255
251
248
255
251
248
255
250
249
255
252
251
255
255
254
255
255
255
255
255
255
255
255
255
255
255
255
255
255
255
255
251
251
255
249
249
255
249
249
255
249
249
255
250
249
253
252
250
253
252
250
253
252
250
253
252
250
253
252
250
252
251
249
252
251
249
253
252
250
251
250
248
251
250
248
251
250
248
250
249
247
249
248
246
249
246
245
245
234
229
96
68
58
97
37
28
116
53
45
127
74
61
84
23
12
101
38
26
245
188
167
245
199
172
208
128
104
167
95
77
148
91
75
168
110
95
208
144
130
232
173
161
235
170
157
209
140
124
142
67
49
115
43
27
163
87
77
132
75
69
205
188
180
249
248
241
250
248
244
251
250
246
252
251
247
252
251
247
253
252
248
252
251
247
252
251
247
252
251
247
252
251
247
254
251
248
255
251
248
255
251
248
255
251
248
255
251
248
255
250
250
255
253
252
255
253
252
255
255
255
255
255
255
255
255
255
255
255
255
255
253
253
255
250
250
255
249
249
255
249
249
255
249
249
255
250
249
253
252
250
253
252
250
253
252
250
253
252
250
253
252
250
252
251
249
252
251
249
253
252
250
251
250
248
251
250
248
251
250
248
250
249
247
249
248
246
247
245
243
241
236
225
154
124
108
108
33
19
133
46
31
173
93
75
97
21
7
164
99
84
244
194
179
243
203
189
204
147
131
218
166
150
247
205
189
245
201
187
207
160
147
240
188
174
230
171
155
213
147
131
152
79
60
170
88
66
162
74
57
109
48
37
217
199
191
252
246
247
250
248
245
251
250
246
252
251
247
252
251
247
253
252
248
252
251
247
252
251
247
252
251
247
252
251
247
254
251
248
255
251
248
255
251
248
255
251
248
255
251
248
255
250
250
255
252
251
255
253
252
255
255
255
255
255
255
255
255
255
255
255
255
255
251
251
255
251
251
255
250
250
255
250
250
255
250
250
255
250
250
253
252
250
253
252
250
254
253
251
253
252
250
252
251
249
252
251
249
252
251
249
253
252
250
251
250
248
251
250
248
250
249
247
249
248
246
248
247
245
247
246
244
249
245
240
176
146
131
121
39
22
151
53
32
130
36
17
105
20
6
219
155
141
238
192
179
252
214
206
250
213
207
240
201
191
251
216
202
246
211
201
247
212
203
247
203
187
233
181
164
185
122
104
199
128
109
170
92
71
172
94
75
72
23
10
223
213
206
248
242
244
249
247
244
249
248
244
250
249
245
251
250
246
252
251
247
252
251
247
252
251
247
253
252
248
253
252
248
254
252
248
255
251
248
255
251
248
255
251
248
255
251
248
255
250
250
255
251
250
255
252
251
254
254
253
255
255
255
255
255
255
255
255
255
255
250
250
255
251
251
255
250
250
255
250
250
255
250
250
255
250
250
253
252
250
253
252
250
254
253
251
253
252
250
252
251
249
252
251
249
252
251
249
253
252
250
251
250
248
250
249
247
248
247
245
248
247
245
248
247
245
247
246
246
248
245
247
211
180
172
126
48
32
128
34
11
122
27
9
130
42
33
236
173
160
236
190
178
249
207
199
253
221
221
235
202
195
240
207
196
251
221
211
243
212
205
238
199
181
228
181
161
188
128
110
191
120
101
228
161
142
146
87
72
97
66
54
248
248
239
250
246
247
247
245
242
247
246
242
248
247
243
249
248
244
251
250
246
252
251
247
252
251
247
253
252
248
253
252
248
254
251
248
255
250
247
255
251
248
255
251
248
255
251
248
255
251
250
255
251
250
254
252
251
254
254
252
255
255
255
255
255
255
255
253
253
255
250
250
254
251
249
253
251
249
253
251
250
254
252
250
253
252
250
253
252
250
253
252
250
252
251
249
252
251
249
252
251
249
252
251
249
252
251
249
252
251
249
251
250
248
250
249
247
249
248
246
248
247
245
246
245
243
246
245
243
246
239
235
218
179
178
106
37
34
106
28
19
110
28
12
197
116
98
232
171
155
241
196
181
231
196
178
244
204
191
244
200
190
234
189
180
235
188
182
234
186
177
234
180
159
228
176
158
178
127
110
228
178
162
237
190
173
74
39
26
178
163
155
251
243
242
254
243
245
249
247
245
248
247
245
248
247
245
250
249
247
251
250
247
252
251
247
252
251
247
252
251
247
252
251
247
252
251
247
253
251
247
253
251
248
254
252
248
254
252
248
253
252
250
254
254
252
254
254
252
254
254
252
255
255
254
255
255
255
255
251
250
255
250
250
253
251
249
252
251
249
253
252
250
253
252
250
253
252
250
253
252
250
253
252
250
252
251
249
252
251
249
252
251
249
252
251
249
252
251
249
251
250
248
249
248
246
249
248
246
248
247
245
247
246
244
246
245
243
245
246
243
246
247
240
203
175
171
81
29
26
78
17
9
90
21
7
168
96
78
226
164
145
226
170
154
232
185
169
231
188
181
250
204
198
240
188
180
227
169
158
226
166
152
221
165
146
206
152
134
185
133
116
243
193
178
160
111
96
109
73
62
220
206
201
246
244
242
249
246
245
248
247
245
248
247
245
248
247
245
250
249
247
251
250
247
252
251
247
252
251
247
252
251
247
252
251
247
252
251
247
252
251
247
253
252
248
253
252
248
253
252
248
252
252
250
254
254
252
254
254
252
254
254
252
255
255
254
255
255
254
254
250
249
255
249
249
253
251
249
252
251
249
252
251
249
252
251
249
252
251
249
252
251
249
252
251
249
253
252
250
252
251
249
251
250
248
251
250
248
251
250
248
251
250
248
250
249
247
247
246
244
246
245
243
246
245
243
245
244
242
242
242
240
244
248
241
214
201
196
68
36
30
58
16
9
63
12
3
124
61
44
168
101
80
229
163
146
244
185
173
246
211
203
229
193
183
241
196
184
234
181
165
217
159
140
211
153
135
197
141
124
213
159
143
204
151
136
100
53
40
205
171
166
249
240
236
243
245
242
246
247
242
247
246
244
247
246
244
248
247
245
250
249
247
250
249
247
251
250
245
251
250
246
252
251
247
252
251
247
252
251
247
252
251
247
252
251
247
252
251
247
254
253
249
252
252
250
254
254
252
254
254
252
254
254
252
255
255
253
255
254
254
254
250
249
255
249
249
253
251
249
252
251
249
252
251
249
252
251
249
252
251
249
252
251
249
252
251
249
252
251
249
250
249
247
249
248
246
249
248
246
250
249
247
250
249
247
249
248
246
247
246
244
246
245
243
246
245
243
245
244
242
245
244
242
240
240
234
247
239
234
61
40
36
61
29
26
76
28
23
154
89
75
155
81
60
194
126
104
215
157
145
230
185
174
226
180
168
224
173
161
220
166
153
217
159
144
194
134
116
173
115
98
201
144
129
99
43
29
129
87
77
249
231
225
243
240
237
244
245
242
250
245
242
247
246
243
247
246
244
248
247
245
250
249
247
250
249
246
250
249
245
251
250
246
252
251
247
252
251
247
252
251
247
252
251
247
252
251
247
252
251
247
254
253
249
252
252
250
254
254
252
254
254
252
254
254
252
255
255
253
254
253
253
254
250
249
255
249
249
253
251
249
252
251
249
252
251
249
252
251
249
252
251
249
252
251
249
252
251
249
250
249
247
249
248
246
248
247
245
248
247
245
248
247
245
248
247
245
248
247
245
247
246
244
246
245
243
246
245
243
245
244
242
245
243
241
245
241
237
252
245
240
82
66
61
51
23
20
76
28
25
130
61
50
177
99
80
184
113
93
199
140
127
208
143
130
218
151
139
213
142
132
219
149
143
196
130
121
172
111
93
177
117
100
203
146
130
98
44
32
166
135
126
247
239
231
246
245
242
245
244
243
252
243
243
248
246
244
247
246
244
248
247
245
249
248
246
250
249
246
250
249
246
251
250
246
252
251
247
252
251
247
252
251
248
252
251
248
252
251
248
252
251
248
254
253
249
252
252
251
253
253
252
254
254
252
254
254
252
255
255
253
253
253
251
252
251
249
252
251
249
252
251
249
252
251
249
252
251
249
252
251
249
252
251
249
251
250
248
251
250
248
249
248
246
249
248
246
249
248
246
249
248
246
249
248
246
247
246
244
247
246
244
247
246
244
246
245
243
246
245
243
246
245
243
246
245
242
245
244
238
243
241
233
98
86
79
36
11
7
82
34
27
161
81
73
222
136
124
228
166
147
232
176
158
190
127
108
173
100
84
181
103
91
194
120
109
192
126
112
180
122
106
178
119
102
204
155
141
143
104
96
253
242
236
242
241
236
244
243
239
245
244
244
247
245
248
247
246
244
247
246
244
248
247
245
247
246
244
248
247
245
250
249
247
250
249
247
250
249
247
251
250
248
253
252
250
253
252
250
253
252
250
253
252
250
253
252
250
253
253
253
253
253
253
253
253
253
254
254
254
255
255
255
253
252
251
252
251
249
252
251
249
252
251
249
252
251
249
252
251
249
252
251
249
252
251
249
251
250
248
251
250
248
249
248
246
249
248
246
249
248
246
249
248
246
249
248
246
247
246
244
247
246
244
247
246
244
246
245
243
246
245
243
246
245
243
246
245
243
241
241
236
244
245
237
138
130
124
28
9
4
74
30
26
150
74
68
180
97
86
213
150
131
224
164
147
236
164
144
186
110
91
141
65
48
167
92
78
171
103
90
175
122
112
215
167
154
210
177
165
252
237
230
246
241
237
243
243
238
245
244
241
245
244
243
247
246
245
247
246
244
247
246
244
248
247
245
247
246
244
248
247
245
248
247
245
248
247
245
250
249
247
251
250
248
253
252
250
253
252
250
253
252
250
253
252
250
253
252
250
253
253
253
253
253
253
253
253
253
254
254
254
255
255
255
252
252
250
252
251
249
252
251
249
252
251
249
252
251
249
252
251
249
251
250
248
249
248
246
249
248
246
249
248
246
248
247
245
248
247
245
248
247
245
248
247
245
248
247
245
247
246
244
247
246
244
247
246
244
247
246
244
247
246
244
246
245
243
246
245
243
244
244
241
242
243
238
214
212
206
22
11
6
28
8
1
72
25
14
106
32
20
144
67
54
186
98
88
179
98
85
178
103
87
144
74
59
146
78
64
155
90
78
200
152
142
219
176
164
205
175
162
252
241
235
244
241
240
244
243
242
245
244
242
245
244
241
247
246
241
245
244
242
246
245
243
247
246
244
247
246
244
248
247
245
248
247
245
248
247
245
250
249
247
252
251
249
252
251
249
252
251
249
253
252
250
252
251
249
254
253
251
253
253
253
253
253
253
254
254
254
255
255
255
255
255
255
252
251
249
252
251
249
252
251
249
252
251
249
252
251
249
252
251
249
251
250
248
250
249
247
249
248
246
249
248
246
248
247
245
248
247
245
248
247
245
248
247
245
248
247
245
247
246
244
247
246
244
247
246
244
247
246
244
247
246
244
246
245
243
246
245
243
245
245
243
241
246
241
251
253
247
101
96
90
33
16
11
99
51
46
137
65
55
175
101
86
178
91
81
160
79
70
164
95
85
136
77
64
110
50
40
166
107
97
218
171
156
223
177
161
210
169
158
233
205
200
223
215
216
194
192
195
242
241
239
244
243
238
245
245
238
245
244
241
247
245
243
247
246
244
247
246
244
248
247
245
248
247
245
248
247
245
249
248
246
250
249
247
251
250
248
252
251
249
253
252
250
252
251
249
254
253
251
253
253
253
253
253
253
254
254
254
255
255
255
255
255
255
249
248
246
252
248
247
254
248
248
252
250
249
251
250
248
252
251
249
251
250
248
250
249
247
249
248
246
249
248
246
248
247
245
248
247
245
249
247
244
248
247
245
248
247
246
246
246
247
245
246
249
247
249
245
247
248
243
244
246
241
244
245
240
244
246
242
243
246
248
239
247
244
226
232
231
117
116
117
31
13
15
64
27
24
101
50
41
144
86
76
137
73
72
160
102
98
123
64
61
92
28
25
148
79
69
204
135
121
218
166
155
223
173
157
220
165
152
220
178
172
33
21
24
27
26
32
122
122
124
253
254
249
236
237
228
245
246
239
244
245
239
245
246
240
245
246
241
246
246
242
247
246
244
247
246
244
249
248
246
250
249
247
251
250
248
252
251
249
252
251
249
252
251
249
254
253
251
252
252
252
253
253
253
254
254
254
254
254
254
255
255
255
249
248
246
252
248
247
254
248
248
252
250
249
251
250
248
252
251
249
251
250
248
250
249
247
249
248
246
249
248
246
248
247
245
248
247
245
249
247
244
248
247
245
248
247
246
246
246
247
244
247
249
245
247
245
245
247
244
247
249
246
255
255
255
237
239
237
124
125
127
65
71
71
21
26
26
2
1
3
14
6
9
33
17
13
47
17
6
73
26
12
105
45
36
139
72
59
168
99
89
154
81
74
172
98
87
209
136
121
217
157
144
219
169
152
226
176
168
144
113
111
19
12
17
23
20
31
37
36
40
162
163
161
245
245
240
243
244
239
243
244
239
244
245
240
245
246
241
246
246
242
247
246
244
247
246
244
249
248
246
250
249
247
251
250
248
252
251
249
252
251
249
252
251
249
254
253
251
252
252
252
254
254
254
254
254
254
254
254
254
255
255
255
249
248
247
252
248
247
254
248
248
252
250
248
251
250
248
252
251
249
251
250
248
250
249
247
249
248
246
249
248
246
249
248
246
248
247
245
249
247
244
248
246
244
247
246
246
245
245
246
246
249
251
248
250
250
226
228
227
168
170
169
84
86
85
12
14
14
1
1
3
2
4
5
2
5
7
6
2
5
15
7
13
20
7
10
33
3
0
104
47
35
152
71
57
176
89
68
174
88
72
134
53
40
176
98
83
211
136
117
222
155
136
213
171
155
171
137
134
14
1
5
12
14
22
31
32
41
36
38
45
53
55
60
152
154
156
237
237
238
243
243
242
243
243
240
245
246
241
245
245
240
247
246
244
247
246
244
249
248
246
250
249
247
251
250
248
252
251
249
252
251
249
252
251
249
254
253
251
252
252
252
253
253
253
254
254
254
254
254
254
255
255
255
251
250
248
253
249
248
254
248
248
252
250
248
251
250
248
251
250
248
251
250
248
251
250
248
249
248
246
249
248
246
249
248
246
249
248
246
249
246
244
247
246
244
248
248
248
247
248
248
194
197
199
58
60
62
8
9
11
9
10
12
6
7
9
4
5
7
3
1
4
1
2
4
1
1
4
7
2
6
17
2
9
20
0
3
37
0
1
92
24
20
145
46
35
165
73
55
144
55
41
137
52
39
174
94
75
199
121
98
217
153
136
177
145
134
31
10
10
2
1
1
5
11
17
25
27
39
33
35
47
56
59
69
40
43
53
84
83
90
235
234
238
244
244
242
245
246
241
246
247
240
246
245
243
246
245
243
249
248
246
250
249
247
250
249
247
251
250
248
252
251
249
251
250
248
253
252
250
253
253
253
253
253
253
253
253
253
254
254
254
255
255
255
252
251
249
253
249
248
254
248
248
252
250
248
251
250
248
251
250
248
251
250
248
251
250
248
249
248
246
249
248
246
249
248
246
249
248
246
248
245
243
246
245
243
221
221
220
48
48
49
8
10
12
2
4
7
2
3
7
1
2
6
2
3
6
1
1
5
4
1
4
1
2
4
1
1
4
9
2
7
16
3
4
14
0
0
27
2
0
80
23
19
125
40
29
141
58
48
107
23
15
143
58
47
178
94
74
193
113
88
184
129
117
43
20
15
13
2
2
4
4
3
2
7
11
12
16
27
28
31
44
30
33
47
35
38
53
44
43
54
62
60
67
83
82
84
222
223
218
248
248
242
246
245
243
246
245
243
249
247
246
250
249
247
250
249
247
251
250
248
252
251
249
251
250
248
253
252
250
253
253
252
253
253
253
253
253
253
254
254
254
255
255
255
252
250
250
253
249
248
254
248
248
252
250
248
251
250
248
251
250
248
251
250
248
251
250
248
250
248
249
249
247
248
249
247
248
248
246
247
245
244
245
202
203
205
15
15
18
6
7
9
6
7
8
6
7
11
3
3
8
4
4
9
6
7
12
4
3
7
3
2
1
1
5
11
7
10
16
13
2
5
24
3
6
25
1
0
68
22
18
97
27
25
73
14
10
52
8
8
102
32
24
170
73
57
169
73
58
166
89
81
71
34
33
19
5
4
2
5
7
2
3
12
4
8
19
18
26
38
21
27
46
30
33
50
34
37
49
64
62
73
73
71
82
70
65
77
86
79
91
193
187
197
247
247
246
246
246
244
246
248
242
248
250
244
249
249
246
251
250
248
252
251
249
252
251
249
252
251
249
252
253
247
254
254
249
254
254
251
254
254
254
255
255
255
253
252
251
253
249
248
254
248
248
252
250
248
251
250
248
251
250
248
251
250
248
251
250
248
250
248
249
249
247
248
249
247
248
248
246
247
243
243
245
33
34
38
9
10
14
4
5
9
2
4
8
3
3
8
5
6
11
5
6
11
23
24
29
1
3
7
0
5
3
12
4
4
39
10
8
77
28
20
74
20
16
41
0
0
136
81
74
141
78
74
45
2
1
36
2
0
119
53
44
152
68
61
106
47
40
33
6
2
16
0
9
12
9
15
4
10
15
7
7
14
13
16
24
3
11
22
23
28
46
24
26
42
34
36
47
64
64
74
59
58
69
65
62
73
65
59
71
55
50
61
167
167
169
241
240
240
247
248
245
247
248
243
249
249
245
251
250
248
252
251
249
252
251
249
252
251
249
252
253
247
254
255
250
254
254
251
254
254
254
255
255
255
254
253
252
251
247
246
252
246
246
250
248
246
249
248
246
250
249
247
251
250
248
251
250
248
250
248
249
249
247
248
247
245
246
253
251
252
98
97
101
8
9
14
2
3
8
4
5
10
4
5
10
2
3
8
5
6
11
26
27
32
10
10
15
2
3
7
3
3
3
30
3
1
125
60
49
180
96
79
160
76
63
95
26
20
157
90
80
181
120
117
32
5
2
56
29
17
94
46
40
73
19
20
33
12
13
25
31
34
8
7
22
2
5
16
7
10
19
13
12
18
19
22
28
61
67
77
36
39
54
50
51
65
26
25
34
42
44
56
41
40
54
68
66
80
45
41
56
52
48
59
61
56
62
58
53
57
217
212
213
248
244
243
248
246
244
251
250
248
249
248
246
250
249
247
251
250
248
251
252
246
253
254
249
253
254
250
254
254
254
255
255
255
254
254
253
251
247
246
252
246
246
250
248
246
249
248
246
250
249
247
251
250
248
251
250
248
250
248
249
249
247
248
247
245
246
230
228
229
9
9
13
7
7
14
4
5
11
3
4
11
4
4
11
2
3
8
1
2
7
20
21
26
16
17
22
4
6
10
11
0
0
85
33
29
160
74
63
182
89
72
183
91
73
157
74
57
148
73
59
106
44
42
37
11
12
39
13
10
32
8
8
27
13
17
20
15
24
4
5
13
8
11
17
2
3
10
1
1
7
1
0
8
3
5
10
9
13
21
20
20
34
33
31
44
43
41
48
36
38
51
28
30
45
41
40
56
31
28
44
36
32
46
41
34
41
54
48
54
78
73
76
193
188
189
255
254
253
247
246
244
250
250
247
250
249
247
251
250
248
251
252
246
253
254
249
253
254
250
254
254
254
255
255
255
255
255
255
251
247
246
252
246
246
250
247
247
249
248
247
250
248
247
250
249
248
250
249
248
249
248
249
249
247
249
255
254
255
132
130
134
10
9
15
5
5
14
1
1
10
14
14
23
8
8
16
6
4
13
3
2
8
2
2
6
2
2
7
8
3
9
38
10
7
140
70
62
165
78
62
188
101
85
184
95
77
189
98
81
158
76
68
80
26
24
31
9
7
34
14
16
16
8
10
18
20
24
24
23
31
5
0
8
8
10
13
24
23
30
30
27
37
3
3
11
4
8
11
6
10
15
8
11
21
26
27
39
26
27
37
14
17
30
17
17
35
24
22
42
20
20
37
30
31
43
61
52
62
59
42
45
69
50
48
43
29
29
106
102
101
247
245
244
246
244
245
250
249
248
251
251
247
251
252
246
253
254
249
253
254
251
254
254
254
255
255
255
255
255
255
252
249
248
252
246
246
250
247
248
249
247
248
249
247
248
249
247
248
249
247
248
248
248
248
248
248
249
255
255
255
23
22
27
3
3
10
5
5
15
3
3
13
17
17
27
8
9
18
5
3
12
2
3
8
2
3
5
8
4
6
15
1
1
123
66
55
164
76
66
177
92
73
178
92
77
171
83
67
174
83
74
104
29
31
34
3
1
29
10
6
21
7
10
14
8
10
6
7
10
13
16
20
2
3
8
8
13
19
11
14
26
44
43
57
7
5
15
3
7
10
0
5
9
16
23
30
7
14
24
6
12
25
6
10
20
7
11
29
15
16
35
28
26
39
39
30
37
72
49
51
182
141
133
223
179
169
117
91
82
28
18
15
205
201
200
252
247
251
250
248
247
251
253
245
251
252
246
252
253
248
254
255
252
255
255
255
255
255
255
255
255
255
254
254
253
252
246
246
250
247
248
249
247
248
249
247
248
249
247
248
249
247
248
248
248
246
248
248
247
243
243
245
8
8
12
4
4
10
7
7
15
11
11
19
8
8
17
15
15
23
2
5
10
0
3
6
5
4
4
18
2
0
75
37
30
151
70
59
168
73
65
178
83
71
167
77
61
161
71
61
117
42
38
48
6
4
28
8
7
31
4
7
16
1
5
14
9
11
3
4
7
1
3
7
4
5
10
3
8
13
10
12
25
23
22
36
2
1
10
3
5
11
2
7
15
19
23
32
8
12
21
5
9
19
5
10
21
5
16
24
8
16
19
33
17
20
143
106
105
215
169
151
230
175
154
236
185
164
223
186
170
32
14
7
98
90
87
255
254
255
249
248
247
252
252
246
251
252
246
252
253
248
254
255
252
255
255
255
255
255
255
255
255
255
255
255
255
252
247
247
249
246
246
248
246
247
249
247
248
249
247
248
249
248
247
248
249
244
247
247
244
233
233
232
0
0
1
7
7
10
5
6
11
6
7
12
10
11
16
2
3
8
0
1
5
0
2
5
9
2
2
61
24
18
141
74
60
170
77
63
162
72
61
157
55
48
160
60
47
129
41
31
74
15
10
37
10
5
30
6
6
25
1
2
17
2
6
10
5
7
1
1
4
1
4
7
21
22
27
1
5
11
6
7
19
27
26
39
2
1
9
0
1
10
5
7
19
13
16
25
2
6
14
2
4
10
8
9
22
8
6
10
32
19
12
160
126
117
225
178
167
234
184
163
239
184
163
239
186
165
244
201
178
126
97
82
38
24
18
247
246
243
247
249
247
253
251
248
251
252
246
252
253
248
254
255
252
255
255
255
255
255
255
255
255
255
255
255
255
252
248
248
249
246
247
248
246
247
249
247
248
249
247
248
249
248
247
248
249
243
247
248
243
195
195
193
4
4
4
5
5
7
4
5
9
4
4
8
2
3
7
1
2
6
3
2
4
3
2
6
16
1
2
142
83
75
167
78
59
175
86
64
151
72
56
165
62
58
158
51
42
121
39
25
59
9
2
51
17
12
51
11
12
28
7
1
15
3
4
9
4
5
2
3
6
0
1
5
25
26
31
0
0
6
11
13
25
20
19
32
5
4
12
1
0
11
11
10
24
5
5
16
4
4
10
1
2
6
4
3
15
28
3
8
135
88
81
214
166
149
238
198
180
228
189
178
236
191
179
244
196
180
235
189
166
174
139
121
37
21
11
239
240
235
246
250
247
255
250
248
251
252
246
252
253
248
254
255
252
255
255
255
255
255
255
255
255
255
255
255
255
255
254
254
248
247
247
248
246
247
249
247
248
249
247
248
249
247
248
249
248
248
250
243
241
165
157
153
10
6
7
3
3
5
3
3
5
1
1
3
1
1
3
3
3
5
6
3
5
3
0
1
53
36
40
126
78
79
169
90
86
163
73
54
150
83
65
142
70
56
144
46
38
124
36
32
47
3
2
45
10
6
52
12
12
32
5
0
5
1
2
8
8
11
1
1
3
4
4
6
20
19
21
2
1
5
3
6
18
17
23
38
7
9
23
0
1
14
11
10
22
5
3
10
3
1
6
4
3
9
7
2
10
84
41
36
218
149
130
233
187
170
246
228
219
246
229
217
237
200
188
242
191
175
238
189
164
191
152
135
35
16
7
231
229
224
248
250
245
254
251
246
251
252
246
253
254
249
253
254
250
255
255
255
255
255
255
255
255
255
255
255
255
255
255
255
250
249
249
248
246
247
249
247
248
249
247
248
249
248
249
250
248
249
255
252
249
139
131
126
17
13
13
5
5
7
3
3
5
1
1
3
1
1
3
3
3
5
4
4
4
9
13
17
14
11
18
48
23
34
94
52
61
81
43
45
30
9
9
45
17
17
107
49
53
107
40
42
49
6
1
48
11
6
56
13
11
32
6
2
4
2
2
8
8
10
1
1
3
3
3
5
28
27
29
5
4
7
20
23
34
16
23
39
22
26
41
0
3
13
10
13
20
4
5
12
2
4
10
5
6
11
33
7
6
162
106
93
217
146
126
238
195
181
254
243
237
249
234
221
236
199
187
242
191
174
239
188
163
203
164
147
59
39
31
253
250
245
248
249
244
254
251
245
251
252
246
253
254
249
254
254
252
255
255
255
255
255
255
255
255
255
255
255
255
255
255
255
254
253
254
248
246
247
248
246
247
248
246
247
250
248
249
248
245
247
251
244
241
85
77
72
9
5
5
8
8
10
3
3
5
2
2
4
1
1
3
4
3
5
3
6
9
7
14
21
45
54
70
22
24
43
37
34
51
3
3
14
3
8
18
13
10
16
61
30
35
74
29
30
45
6
1
63
19
11
66
17
15
32
7
4
4
3
4
7
7
9
2
2
4
5
5
7
58
57
59
1
0
4
19
23
33
25
32
48
18
22
37
6
9
17
11
17
22
6
12
20
2
3
8
11
3
5
110
52
38
198
124
100
214
144
119
228
187
174
251
237
231
252
238
225
237
200
188
241
190
173
240
189
164
206
167
149
160
140
132
253
252
247
248
250
245
254
251
245
252
252
246
253
254
249
255
255
255
255
255
255
255
255
255
255
255
255
255
255
255
255
255
255
255
255
255
251
250
250
248
246
247
248
246
247
249
247
248
245
244
246
201
194
191
30
22
17
17
12
12
2
2
4
0
0
2
0
0
2
7
7
9
8
8
9
3
8
15
12
17
33
26
33
55
16
27
47
23
30
46
3
4
10
0
2
12
13
11
20
51
30
38
67
35
38
45
11
5
74
23
14
81
26
23
29
6
6
5
4
5
6
6
8
1
1
3
6
6
8
69
68
70
63
61
65
8
12
24
5
11
27
18
21
36
21
26
36
9
20
30
6
10
23
10
0
3
43
11
6
159
78
56
207
121
93
219
147
119
231
186
167
254
231
221
253
240
227
231
194
182
241
189
172
242
191
167
217
178
160
230
214
206
252
249
244
248
250
245
253
250
244
252
253
247
254
255
252
255
255
255
255
255
255
255
255
255
255
255
255
255
255
255
255
255
255
255
255
255
255
254
254
248
247
247
248
246
247
248
245
246
242
238
239
90
82
79
21
11
8
9
6
5
5
5
7
5
5
7
6
6
8
5
5
7
0
0
2
4
8
19
13
14
34
33
33
57
76
81
99
38
44
56
16
15
25
44
46
62
83
82
102
83
72
92
38
17
26
45
14
7
82
27
17
94
34
31
28
5
5
5
4
6
6
6
8
2
2
5
5
6
9
3
1
5
101
100
104
4
6
17
21
26
42
5
8
23
24
31
44
9
19
36
6
6
23
25
2
1
104
48
32
169
77
54
192
104
76
206
135
104
231
179
156
253
223
206
249
233
221
235
197
184
242
191
173
243
193
168
222
185
166
252
240
231
252
250
244
249
250
245
252
250
245
252
253
247
255
255
255
255
255
255
255
255
255
255
255
255
255
255
255
255
255
255
255
255
255
255
255
255
255
255
255
253
254
254
248
246
245
254
247
245
189
174
169
39
21
20
20
5
7
8
2
6
1
1
3
4
4
6
5
5
7
5
5
7
2
2
4
5
4
11
12
16
29
6
15
34
45
52
73
78
81
99
77
76
92
88
86
108
104
101
123
36
35
51
14
4
12
46
19
16
88
34
23
88
27
21
31
5
3
8
7
7
7
6
10
2
3
9
6
9
20
3
5
17
19
19
28
64
64
74
9
9
18
8
8
18
7
10
16
7
11
18
10
1
7
76
30
24
133
48
23
166
70
39
189
98
65
220
146
113
231
178
151
244
208
187
247
216
200
236
193
171
245
195
167
243
190
162
226
192
174
253
250
238
248
251
246
255
249
249
250
253
247
254
255
253
255
255
255
255
255
255
255
255
255
255
255
255
255
255
255
255
255
255
255
255
255
255
255
255
255
255
255
255
255
255
250
245
244
237
226
224
77
57
51
34
13
12
21
6
6
7
2
3
0
0
1
2
2
4
5
5
7
5
5
7
2
2
4
1
1
7
20
24
37
14
22
41
45
52
73
73
75
94
71
70
88
90
88
110
77
76
96
18
18
30
18
11
19
45
22
21
93
42
34
90
29
27
33
6
8
25
24
24
76
76
80
10
12
18
14
17
28
8
11
23
12
12
22
24
24
34
25
25
35
11
10
20
9
15
23
6
5
10
37
7
7
139
67
54
161
57
30
180
84
51
205
117
81
227
153
118
236
182
153
247
206
184
248
206
190
240
192
167
247
194
163
241
189
157
231
199
179
252
249
237
249
252
247
255
249
249
252
253
251
255
255
255
255
255
255
255
255
255
255
255
255
255
255
255
255
255
255
255
255
255
255
255
255
255
255
255
255
255
255
255
255
255
255
255
255
151
134
133
42
16
10
36
11
8
20
3
3
6
3
0
1
2
2
2
2
4
1
1
3
0
0
2
2
2
4
2
1
7
9
13
26
37
45
64
41
48
69
68
70
90
58
56
78
62
60
85
47
46
65
9
10
19
15
9
14
42
19
17
91
37
29
103
36
35
42
9
11
15
14
14
70
70
74
3
5
11
11
14
25
10
13
24
16
16
26
44
44
54
21
21
31
27
26
36
3
5
14
13
0
1
90
30
22
167
75
56
204
100
73
201
114
81
219
138
104
228
159
126
231
178
152
235
196
178
246
209
192
243
196
172
249
196
166
242
190
158
226
194
174
249
246
234
249
252
247
255
250
250
255
255
255
255
255
255
255
255
255
255
255
255
255
255
255
255
255
255
255
255
255
255
255
255
255
255
255
255
255
255
255
255
255
255
255
255
255
255
255
241
239
238
43
13
8
35
7
4
22
4
2
5
4
0
1
3
1
2
2
4
2
2
4
0
0
2
2
2
4
2
2
8
5
10
23
38
46
65
50
58
78
64
66
86
58
55
82
48
45
71
41
40
58
2
3
10
15
6
6
55
27
19
96
35
22
122
45
40
57
12
12
11
7
7
5
5
9
2
4
11
8
11
23
13
16
28
0
0
7
97
97
107
22
22
32
18
19
29
13
6
11
44
6
0
149
70
51
199
107
81
206
126
100
208
137
109
224
156
126
230
170
144
240
196
177
254
227
213
254
237
222
238
203
181
245
196
172
246
189
167
187
151
137
246
244
232
250
252
247
255
255
255
255
255
255
255
255
255
255
255
255
255
255
255
255
255
255
255
255
255
255
255
255
255
255
255
255
255
255
255
255
255
255
255
255
255
255
255
255
255
255
255
255
255
230
226
225
32
7
2
19
3
2
5
3
2
2
1
1
3
1
2
0
2
7
3
3
11
4
0
6
8
1
4
8
8
17
11
17
36
30
35
58
66
67
89
102
100
127
58
54
72
35
30
39
1
0
1
18
1
0
72
31
25
115
41
27
126
39
21
84
28
16
21
4
4
7
6
14
2
5
11
6
5
9
5
6
14
14
13
25
80
82
92
2
4
12
11
9
17
19
0
1
93
35
24
195
110
84
198
119
86
213
142
117
223
157
133
236
173
147
231
177
152
238
196
178
255
223
210
255
233
217
244
205
188
249
198
180
248
191
172
167
134
121
249
244
235
255
255
254
255
255
255
255
255
255
255
255
255
255
255
255
255
255
255
255
255
255
255
255
255
255
255
255
255
255
255
255
255
255
255
255
255
255
255
255
255
255
255
255
255
255
255
255
255
255
255
255
219
216
215
22
11
10
4
1
4
1
0
3
2
1
2
7
1
6
27
8
10
87
51
48
59
27
19
41
22
19
15
8
15
15
16
29
64
63
76
54
46
55
62
41
43
104
70
66
119
78
75
71
30
24
64
10
7
111
29
16
142
44
21
120
48
33
36
5
4
5
3
13
2
4
9
6
2
2
2
2
9
8
7
18
34
38
46
13
15
20
7
3
10
35
6
4
127
57
42
201
115
86
208
135
99
225
155
131
236
167
146
230
166
139
233
177
147
231
181
155
240
194
174
246
205
188
241
192
175
249
198
176
237
188
161
168
142
128
253
252
252
255
255
255
255
255
255
255
255
255
255
255
255
255
255
255
255
255
255
255
255
255
255
255
255
255
255
255
255
255
255
255
255
255
255
255
255
255
255
255
255
255
255
255
255
255
255
255
255
255
255
255
255
255
255
237
236
236
10
7
8
0
2
6
5
2
5
25
0
0
105
48
37
163
83
67
157
81
61
185
122
106
220
172
166
81
49
49
50
20
20
133
78
67
185
123
106
200
126
108
217
141
126
197
132
118
97
36
27
105
20
9
146
39
19
153
60
47
47
10
8
5
2
9
1
2
9
4
2
5
1
3
12
3
2
11
6
10
15
22
24
28
5
2
6
46
13
8
155
77
60
204
115
84
212
138
103
221
151
130
230
158
139
220
153
125
236
172
139
233
172
143
240
185
160
239
192
172
244
192
171
247
198
171
236
202
173
255
255
255
255
255
255
255
255
255
255
255
255
255
255
255
255
255
255
255
255
255
255
255
255
255
255
255
255
255
255
255
255
255
255
255
255
255
255
255
255
255
255
255
255
255
255
255
255
255
255
255
255
255
255
255
255
255
255
255
255
255
255
255
244
244
244
49
46
48
18
1
0
131
88
77
149
80
63
124
39
18
94
8
0
123
35
24
190
107
96
229
155
149
179
108
101
184
82
59
196
95
68
192
100
71
190
112
85
216
141
118
191
118
104
156
74
60
141
39
17
151
52
38
60
19
15
8
1
8
2
3
8
6
7
10
7
11
22
16
15
21
4
8
11
2
5
7
6
3
5
49
16
12
151
75
61
208
116
84
212
131
94
212
131
105
218
139
116
220
147
120
223
161
130
231
175
150
247
198
178
240
196
176
255
205
185
249
217
201
254
254
253
255
255
255
255
255
255
255
255
255
255
255
255
255
255
255
255
255
255
255
255
255
255
255
255
255
255
255
255
255
255
255
255
255
255
255
255
255
255
255
255
255
255
255
255
255
255
255
255
255
255
255
255
255
255
255
255
255
255
255
255
255
255
255
255
255
255
255
255
255
173
158
154
221
170
153
215
156
137
168
106
94
175
118
112
211
145
133
191
115
99
184
105
90
124
44
29
130
34
5
172
73
40
197
98
68
198
106
85
203
112
91
207
127
110
207
130
114
196
104
80
159
70
50
56
14
7
13
4
9
5
9
14
13
15
19
12
19
31
13
12
17
3
7
9
0
3
3
4
0
1
33
5
5
123
51
43
201
107
78
200
110
68
200
107
72
212
126
99
215
141
112
231
172
147
233
187
173
238
200
191
241
205
188
252
232
225
255
255
255
255
255
255
255
255
255
255
255
255
255
255
255
255
255
255
255
255
255
255
255
255
255
255
255
255
255
255
255
255
255
255
255
255
255
255
255
255
255
255
255
255
255
255
255
255
255
255
255
255
255
255
255
255
255
255
255
255
255
255
255
255
255
255
255
255
255
255
255
255
255
255
255
255
255
255
246
235
233
212
158
150
212
143
133
228
160
150
242
189
184
238
191
190
238
176
168
94
15
0
129
38
17
162
66
37
183
88
54
197
112
80
195
114
86
201
119
92
207
125
101
221
140
117
206
124
102
155
93
77
76
30
22
33
8
6
17
11
18
22
23
34
18
14
22
7
3
9
9
4
10
5
0
3
22
5
6
71
16
10
171
72
52
181
72
45
182
94
61
201
112
85
213
144
122
242
200
185
254
224
213
243
216
209
255
253
253
255
255
255
255
255
255
255
255
255
255
255
255
255
255
255
255
255
255
255
255
255
255
255
255
255
255
255
255
255
255
255
255
255
255
255
255
255
255
255
255
255
255
255
255
255
255
255
255
255
255
255
255
255
255
255
255
255
255
255
255
255
255
255
255
255
255
255
255
255
255
255
255
255
255
255
255
255
255
255
255
255
255
255
255
255
255
255
237
211
208
222
154
145
229
176
170
228
184
180
248
191
182
128
52
37
129
29
9
140
34
7
163
55
22
180
76
44
206
109
81
200
108
83
204
119
94
200
120
96
214
139
114
217
139
115
189
117
94
144
82
64
112
60
46
102
59
50
77
46
49
24
3
4
11
0
2
7
2
7
9
2
2
50
14
2
119
42
21
163
71
46
191
111
84
209
128
98
212
152
128
244
210
197
255
250
249
255
255
255
255
255
255
255
255
255
255
255
255
255
255
255
255
255
255
255
255
255
255
255
255
255
255
255
255
255
255
255
255
255
255
255
255
255
255
255
255
255
255
255
255
255
255
255
255
255
255
255
255
255
255
255
255
255
255
255
255
255
255
255
255
255
255
255
255
255
255
255
255
255
255
255
255
255
255
255
255
255
255
255
255
255
255
255
255
255
255
255
255
255
255
255
255
253
250
250
242
223
220
239
192
185
239
185
177
96
28
17
128
37
19
146
48
28
158
52
28
172
56
29
181
71
45
194
94
71
200
108
83
192
110
84
218
142
116
225
147
125
205
127
105
200
122
99
190
114
90
178
101
79
161
82
65
130
62
48
104
53
41
73
35
24
51
21
13
63
14
3
119
43
29
186
97
80
201
117
99
208
146
122
244
227
220
255
254
254
255
255
255
255
255
255
255
255
255
255
255
255
255
255
255
255
255
255
255
255
255
255
255
255
255
255
255
255
255
255
255
255
255
255
255
255
255
255
255
255
255
255
255
255
255
255
255
255
255
255
255
255
255
255
255
255
255
255
255
255
255
255
255
255
255
255
255
255
255
255
255
255
255
255
255
255
255
255
255
255
255
255
255
255
255
255
255
255
255
255
255
255
255
255
255
255
255
255
255
255
255
255
255
255
255
255
255
255
254
238
235
137
97
93
67
14
9
79
19
11
114
37
26
146
49
29
170
68
44
184
86
60
187
92
67
188
98
73
203
117
92
207
131
111
202
127
107
193
116
95
199
121
99
187
104
82
198
103
79
173
84
61
182
100
77
172
96
73
171
102
83
177
107
93
132
57
43
200
142
132
244
220
215
255
255
255
255
255
255
255
255
255
255
255
255
255
255
255
255
255
255
255
255
255
255
255
255
255
255
255
255
255
255
255
255
255
255
255
255
255
255
255
255
255
255
255
255
255
255
255
255
255
255
255
255
255
255
255
255
255
255
255
255
255
255
255
255
255
255
255
255
255
255
255
255
255
255
255
255
255
255
255
255
255
255
255
255
255
255
255
255
255
255
255
255
255
255
255
255
255
255
255
255
255
255
255
255
255
255
255
255
255
255
255
255
255
255
255
255
255
255
255
255
255
255
255
255
255
255
194
186
186
115
79
75
106
36
24
120
29
6
139
44
17
161
64
39
187
89
66
191
94
71
204
123
96
211
133
105
200
119
90
189
108
82
198
116
94
176
93
77
183
100
84
183
99
80
186
104
85
217
164
150
246
231
227
255
255
255
255
255
255
255
255
255
255
255
255
255
255
255
255
255
255
255
255
255
255
255
255
255
255
255
255
255
255
255
255
255
255
255
255
255
255
255
255
255
255
255
255
255
255
255
255
255
255
255
255
255
255
255
255
255
255
255
255
255
255
255
255
255
255
