P3
64 64
255
255
255
255
255
255
255
255
255
255
255
255
255
255
255
255
255
255
255
255
255
255
255
255
255
255
255
255
255
255
255
255
255
255
255
255
255
255
255
255
255
255
255
255
255
255
255
255
255
255
255
255
255
255
255
255
255
255
255
255
255
255
255
255
255
255
255
253
253
253
243
243
243
236
236
236
196
196
196
141
141
141
96
96
96
59
60
60
31
33
33
12
14
15
3
5
6
4
6
7
12
14
15
31
33
33
58
59
58
95
97
96
142
143
142
197
198
198
234
234
234
243
243
243
252
252
252
255
255
255
255
255
255
255
255
255
255
255
255
255
255
255
255
255
255
255
255
255
255
255
255
255
255
255
255
255
255
255
255
255
255
255
255
255
255
255
255
255
255
255
255
255
255
255
255
255
255
255
255
255
255
255
255
255
255
255
255
255
255
255
255
255
255
255
255
255
255
255
255
255
255
255
255
255
255
255
255
255
255
255
255
255
255
255
255
255
255
255
255
255
255
255
255
255
255
255
255
255
255
255
255
255
255
255
255
255
255
255
255
255
255
255
255
255
255
255
255
255
255
255
255
255
255
237
237
238
187
187
190
130
130
132
65
66
68
6
8
7
3
3
3
4
4
4
2
3
3
2
3
2
2
4
2
3
5
4
3
5
4
3
6
4
2
4
2
2
3
2
1
3
2
1
4
3
2
4
3
2
4
3
8
10
9
65
66
65
128
129
129
187
187
187
238
238
238
255
255
255
255
255
255
255
255
255
255
255
255
255
255
255
255
255
255
255
255
255
255
255
255
255
255
255
255
255
255
255
255
255
255
255
255
255
255
255
255
255
255
255
255
255
255
255
255
255
255
255
255
255
255
255
255
255
255
255
255
255
255
255
255
255
255
255
255
255
255
255
255
255
255
255
255
255
255
255
255
255
255
255
255
255
255
255
255
255
255
255
255
255
255
255
255
255
255
255
255
255
255
255
255
255
255
255
255
255
255
255
255
255
255
232
232
233
122
122
124
51
52
58
16
16
24
3
5
10
2
4
7
1
3
5
4
1
1
9
6
5
13
10
10
21
15
14
24
17
15
24
18
16
26
18
17
26
19
17
21
15
13
19
14
12
14
12
11
10
8
7
4
3
2
1
3
2
2
4
3
1
4
3
1
4
3
12
15
14
49
51
50
120
121
121
228
228
228
255
255
255
255
255
255
255
255
255
255
255
255
255
255
255
255
255
255
255
255
255
255
255
255
255
255
255
255
255
255
255
255
255
255
255
255
255
255
255
255
255
255
255
255
255
255
255
255
255
255
255
255
255
255
255
255
255
255
255
255
255
255
255
255
255
255
255
255
255
255
255
255
255
255
255
255
255
255
255
255
255
255
255
255
255
255
255
255
255
255
255
255
255
255
255
255
255
255
255
255
255
255
243
243
244
112
112
115
10
11
15
5
6
10
4
4
11
4
4
14
4
5
14
4
4
9
8
6
8
26
17
16
30
21
20
30
20
19
30
20
19
30
20
19
32
22
21
30
20
19
31
21
20
29
19
18
30
21
20
29
19
18
30
20
19
28
19
17
14
11
12
3
3
3
1
4
3
2
4
3
2
4
3
2
4
3
4
6
5
14
16
15
113
114
114
248
248
248
255
255
255
255
255
255
255
255
255
255
255
255
255
255
255
255
255
255
255
255
255
255
255
255
255
255
255
255
255
255
255
255
255
255
255
255
255
255
255
255
255
255
255
255
255
255
255
255
255
255
255
255
255
255
255
255
255
255
255
255
255
255
255
255
255
255
255
255
255
255
255
255
255
255
255
255
255
255
255
255
255
255
255
255
255
255
255
255
255
255
242
242
243
171
170
175
24
24
32
3
4
10
3
4
8
3
4
8
3
4
11
5
5
15
11
7
17
19
13
17
28
21
13
30
21
16
32
22
19
30
20
16
30
20
18
30
20
19
32
22
21
34
24
23
31
21
20
32
22
21
31
21
20
30
20
19
30
20
19
32
22
22
28
20
20
27
21
21
13
11
8
5
5
5
3
2
3
3
3
3
2
4
3
2
4
3
2
4
3
17
18
20
169
169
170
244
244
244
255
255
255
255
255
255
255
255
255
255
255
255
255
255
255
255
255
255
255
255
255
255
255
255
255
255
255
255
255
255
255
255
255
255
255
255
255
255
255
255
255
255
255
255
255
255
255
255
255
255
255
255
255
255
255
255
255
255
255
255
255
255
255
255
255
255
255
255
255
255
255
255
255
255
255
255
255
255
255
255
255
201
201
202
79
79
86
5
4
18
4
5
14
3
4
10
2
5
8
3
4
8
5
4
10
14
11
19
26
19
19
29
19
18
32
20
18
33
23
18
34
25
19
32
23
18
33
23
20
31
20
19
33
23
23
29
20
19
30
21
19
32
22
19
32
21
19
30
19
17
31
22
20
33
23
21
31
19
17
31
22
19
31
24
20
21
16
16
10
6
7
5
1
4
2
4
4
2
4
4
2
4
4
2
3
5
2
3
5
73
74
76
203
204
204
255
255
255
255
255
255
255
255
255
255
255
255
255
255
255
255
255
255
255
255
255
255
255
255
255
255
255
255
255
255
255
255
255
255
255
255
255
255
255
255
255
255
255
255
255
255
255
255
255
255
255
255
255
255
255
255
255
255
255
255
255
255
255
255
255
255
255
255
255
254
254
254
255
255
255
155
155
157
23
22
27
5
4
12
6
4
15
4
4
13
4
6
12
2
4
9
6
8
10
20
16
17
28
19
17
34
23
19
37
24
22
43
26
25
41
25
19
40
26
20
37
26
21
35
24
21
32
22
20
31
24
24
28
23
23
30
23
21
38
28
23
38
27
20
32
22
19
32
24
19
33
27
22
30
21
17
32
24
20
32
23
19
30
21
17
27
21
18
14
11
12
3
4
6
2
4
6
2
3
5
2
3
5
2
3
5
2
3
5
19
20
22
150
150
151
255
255
255
255
255
255
255
255
255
255
255
255
255
255
255
255
255
255
255
255
255
255
255
255
255
255
255
255
255
255
255
255
255
255
255
255
255
255
255
255
255
255
255
255
255
255
255
255
255
255
255
255
255
255
255
255
255
255
255
255
255
255
255
255
255
255
255
255
255
116
117
118
3
3
5
4
3
6
4
3
9
5
4
11
4
3
13
5
2
6
15
10
10
27
23
19
37
22
14
59
34
22
65
36
18
73
41
24
76
41
25
77
43
26
76
45
30
73
45
31
58
36
26
47
29
21
44
29
23
43
28
24
43
27
22
44
27
23
46
31
27
47
33
30
40
29
25
32
23
19
33
24
22
35
26
24
36
26
24
28
23
20
27
21
17
30
22
16
18
15
15
3
4
3
2
5
3
2
3
5
2
3
5
2
3
5
3
4
6
3
4
6
100
100
102
255
255
255
255
255
255
255
255
255
255
255
255
255
255
255
255
255
255
255
255
255
255
255
255
255
255
255
255
255
255
255
255
255
255
255
255
255
255
255
255
255
255
255
255
255
255
255
255
255
255
255
255
255
255
255
255
255
255
255
255
241
241
241
86
87
88
2
3
5
3
4
5
3
3
3
3
3
6
3
2
8
5
1
11
21
12
15
39
23
18
61
30
17
87
44
25
104
50
24
113
56
28
115
55
28
115
53
27
111
52
28
106
49
27
105
51
31
96
48
30
91
47
31
88
46
33
83
45
31
80
45
32
75
43
34
70
42
33
67
40
31
65
41
31
61
39
29
54
33
26
58
37
30
57
36
29
56
34
27
48
28
24
38
22
21
31
20
20
15
11
10
2
5
1
2
4
5
2
3
5
2
3
5
3
4
6
3
4
6
3
4
6
91
91
91
240
240
240
255
255
255
255
255
255
255
255
255
255
255
255
255
255
255
255
255
255
255
255
255
255
255
255
255
255
255
255
255
255
255
255
255
255
255
255
255
255
255
255
255
255
255
255
255
255
255
255
255
255
255
241
241
241
79
79
79
3
3
3
3
3
3
3
3
4
3
3
4
2
3
6
3
2
7
14
10
13
34
22
17
72
40
21
98
47
25
106
49
22
117
54
24
120
55
24
119
53
26
119
52
26
119
53
26
118
54
28
112
50
27
108
50
29
104
47
30
100
47
31
96
47
31
92
46
31
91
45
34
90
45
34
88
46
32
87
46
32
86
45
31
85
44
30
81
42
27
84
45
29
84
41
27
79
37
26
65
33
28
51
28
27
36
24
22
12
12
10
2
6
6
1
4
6
2
3
5
3
4
7
3
4
8
3
4
8
3
4
7
78
78
79
250
250
250
255
255
255
255
255
255
255
255
255
255
255
255
255
255
255
255
255
255
255
255
255
255
255
255
255
255
255
255
255
255
255
255
255
255
255
255
255
255
255
255
255
255
254
254
254
255
255
255
86
86
86
3
3
3
3
3
3
3
3
3
3
3
4
3
2
5
4
2
3
10
7
7
27
21
17
65
38
25
100
45
27
104
47
20
115
54
23
126
60
26
124
58
26
122
55
26
122
56
29
124
56
28
119
54
26
120
56
30
119
56
33
112
53
32
107
49
30
105
50
32
103
49
33
102
48
34
101
48
36
97
48
34
97
48
34
93
44
30
92
44
26
93
45
28
93
45
27
92
42
25
95
44
25
85
41
27
71
35
25
56
33
26
36
26
21
11
8
9
3
3
6
2
4
6
3
4
7
3
4
8
3
4
8
0
0
5
76
48
39
171
144
127
255
255
255
255
255
255
255
255
255
255
255
255
255
255
255
255
255
255
255
255
255
255
255
255
255
255
255
255
255
255
255
255
255
255
255
255
255
255
255
255
255
255
255
255
255
117
117
117
2
2
2
2
2
2
2
2
2
3
3
3
2
3
5
2
2
4
11
4
2
31
20
16
47
27
20
88
46
25
107
45
25
115
52
22
127
60
26
139
68
31
133
64
30
127
58
26
130
60
32
131
61
30
127
59
29
124
60
31
125
59
32
121
57
31
116
53
30
115
55
34
108
50
30
110
51
34
107
50
34
103
48
32
102
47
31
104
49
33
101
46
29
100
45
27
99
44
26
100
48
27
103
46
22
103
48
26
88
41
20
73
36
21
58
33
25
32
21
23
8
3
6
3
4
6
2
4
7
3
4
8
3
4
8
23
13
11
194
122
96
226
165
122
208
174
158
255
255
255
255
255
255
255
255
255
255
255
255
255
255
255
255
255
255
255
255
255
255
255
255
255
255
255
255
255
255
255
255
255
255
255
255
255
255
255
155
155
155
3
4
5
5
3
5
19
12
10
4
3
4
6
2
6
2
3
5
5
4
5
26
15
13
39
23
16
68
36
25
94
46
25
109
46
23
119
53
21
127
59
25
137
65
29
136
66
33
134
62
31
137
65
34
132
62
30
132
63
32
131
63
33
133
66
37
133
66
38
129
63
36
127
63
36
124
61
37
123
60
40
117
56
37
112
55
37
110
53
35
110
53
34
107
50
31
106
50
30
106
48
29
105
48
26
107
50
26
109
52
28
97
49
21
87
40
23
72
37
27
49
29
28
19
14
12
2
4
3
4
4
7
4
4
8
4
3
9
36
21
21
200
131
96
233
177
137
206
135
102
213
192
180
255
255
255
255
255
255
255
255
255
255
255
255
255
255
255
255
255
255
255
255
255
255
255
255
255
255
255
255
255
255
255
255
255
202
200
201
22
24
23
3
0
3
72
44
31
190
133
110
99
70
59
0
1
0
6
3
7
19
13
13
37
22
19
48
27
20
80
41
27
95
44
22
107
44
22
119
54
23
126
59
26
132
62
28
136
65
33
136
65
33
137
66
34
135
66
35
134
65
34
138
69
38
135
67
38
142
75
46
140
73
43
140
73
45
139
74
48
139
73
51
137
72
50
133
69
47
128
64
42
123
59
37
116
56
35
114
54
33
113
54
32
109
50
29
108
49
28
108
49
28
102
50
27
96
44
24
78
36
24
62
35
29
33
23
18
8
7
5
4
3
7
4
3
8
5
4
9
10
5
7
160
107
78
226
157
118
223
154
106
196
125
86
242
232
226
255
255
255
255
255
255
255
255
255
255
255
255
255
255
255
255
255
255
255
255
255
255
255
255
255
255
255
242
242
242
76
78
76
4
0
0
52
28
16
226
158
120
241
177
138
207
142
129
10
8
5
8
4
8
30
17
16
46
26
23
58
32
24
85
41
21
94
42
18
108
48
27
117
54
25
124
59
29
128
62
29
135
64
32
137
66
34
139
68
36
140
71
40
139
70
39
143
73
42
141
73
44
145
78
49
145
78
49
145
79
49
144
80
51
146
82
54
143
79
53
142
79
52
141
79
51
135
71
44
127
62
39
126
61
38
124
59
36
116
56
35
111
50
29
112
51
30
106
47
31
102
45
21
86
39
23
67
31
21
49
31
23
16
14
13
4
3
8
4
3
8
5
4
9
2
2
9
59
34
28
202
135
99
212
142
95
200
121
72
193
135
104
255
255
255
255
255
255
255
255
255
255
255
255
255
255
255
255
255
255
255
255
255
255
255
255
255
255
255
169
170
170
0
3
0
63
28
15
214
144
109
242
182
139
232
178
138
215
145
132
26
15
13
9
7
7
35
21
16
49
28
21
65
34
26
86
43
23
96
41
19
108
49
24
117
54
28
122
57
29
128
62
32
135
65
33
138
68
36
148
79
45
150
80
48
147
80
48
147
80
50
152
84
54
151
83
54
149
82
54
151
86
57
146
83
54
146
82
54
147
84
56
146
84
54
146
84
54
144
81
52
137
71
45
137
69
44
134
64
40
125
59
34
120
56
32
114
51
29
108
51
28
101
46
22
90
40
25
71
32
22
56
33
27
26
19
17
6
5
9
4
3
9
5
4
9
5
4
11
0
0
3
117
75
54
213
133
95
221
153
109
216
145
108
233
204
190
255
255
255
255
255
255
255
255
255
255
255
255
255
255
255
255
255
255
255
255
255
243
243
243
26
21
22
71
40
25
196
128
91
227
161
121
230
168
130
223
160
129
135
95
82
1
2
0
15
10
8
39
24
17
47
26
19
61
31
23
82
38
22
101
44
23
110
51
23
118
54
30
125
60
32
131
65
36
139
70
39
143
75
42
154
86
50
158
89
55
155
88
56
154
89
59
160
93
62
159
93
62
161
96
67
160
96
68
155
91
63
156
92
64
154
90
62
154
88
61
154
89
61
152
87
59
148
84
55
143
76
49
142
71
45
134
64
38
126
59
33
121
56
33
113
53
26
99
43
23
90
40
25
70
32
23
59
32
27
32
22
19
9
7
11
4
3
9
4
3
9
4
4
9
2
5
10
19
6
6
135
83
61
231
164
124
240
182
143
227
174
140
251
247
243
255
255
255
255
255
255
255
255
255
255
255
255
255
255
255
255
255
255
133
122
115
146
91
69
216
158
119
237
176
138
224
162
128
205
141
109
175
120
102
31
22
19
5
5
7
18
13
10
42
23
18
42
23
15
61
36
26
86
39
23
104
44
25
115
53
27
119
56
31
127
62
34
135
69
40
141
72
41
145
77
44
156
88
52
162
93
59
158
91
58
162
97
67
163
98
68
168
105
73
166
105
75
164
102
74
162
98
70
162
98
70
161
97
69
161
96
68
163
98
70
163
98
70
157
93
65
151
84
57
145
74
48
141
69
44
133
63
39
123
56
34
120
53
28
104
45
25
89
40
25
74
33
25
58
29
24
38
26
23
12
9
13
4
3
9
4
3
9
4
3
9
4
3
12
5
2
8
31
18
13
158
106
84
227
159
126
235
176
143
242
209
190
255
255
255
255
255
255
255
255
255
255
255
255
255
255
255
245
239
237
206
146
113
237
181
130
242
185
146
235
173
148
224
164
132
194
138
113
78
49
43
4
5
6
8
2
8
22
14
10
40
22
21
41
24
19
57
33
24
82
34
20
107
46
25
118
55
29
121
55
30
132
65
38
139
69
40
143
73
42
151
81
49
161
93
59
161
95
61
163
97
64
169
103
73
170
105
75
176
112
83
175
112
83
167
104
76
165
103
75
168
105
77
165
101
74
166
100
74
163
98
69
165
100
71
166
99
71
158
89
61
151
79
53
141
68
43
134
64
40
125
57
36
121
53
31
107
47
28
92
41
25
76
34
26
57
27
22
42
28
26
16
13
14
5
4
10
4
3
10
4
4
8
5
3
10
5
4
8
4
6
5
25
14
11
143
100
81
204
142
110
223
168
136
250
242
236
255
255
255
255
255
255
255
255
255
255
255
255
243
205
182
238
177
136
243
188
151
238
178
148
227
169
141
219
157
128
117
81
66
8
3
3
3
3
8
6
5
6
28
16
13
38
22
21
37
22
19
56
29
22
83
35
22
107
47
24
120
55
29
122
58
30
134
68
38
141
73
41
149
77
44
154
85
52
161
94
60
166
102
67
171
108
74
173
109
78
177
115
86
179
117
88
178
116
87
176
115
88
174
114
87
173
114
87
170
108
82
170
104
79
168
103
74
165
101
70
167
100
71
165
96
68
159
88
59
152
79
54
140
70
46
132
63
42
123
57
35
111
52
32
93
41
25
78
34
25
57
28
22
45
31
28
17
15
14
5
4
11
4
3
9
4
4
6
4
3
8
4
3
8
5
3
8
4
4
7
15
3
3
125
85
70
189
127
97
233
201
186
255
255
255
255
255
255
255
255
255
253
248
245
236
182
151
241
182
150
231
177
147
233
177
147
227
169
140
163
117
103
21
9
9
2
4
6
5
5
9
6
5
6
30
19
15
34
20
15
46
25
22
63
30
21
86
35
23
111
47
27
121
54
29
126
60
30
138
70
37
149
77
44
157
86
50
166
98
60
171
105
66
179
114
78
184
121
87
186
129
96
191
135
104
190
134
103
191
135
104
190
133
105
190
132
107
187
129
105
179
120
95
178
116
89
179
117
88
178
117
86
179
115
84
176
110
80
169
99
71
156
83
58
147
76
53
135
67
46
125
59
37
114
55
36
95
44
28
79
33
25
63
30
24
46
29
27
19
16
15
4
3
10
4
3
10
4
4
6
4
3
8
5
4
9
5
4
8
4
6
7
3
5
7
3
1
2
79
49
38
183
140
121
253
250
248
255
255
255
255
255
255
249
234
227
225
169
146
217
157
133
231
181
148
230
174
142
185
132
119
34
17
14
1
3
5
5
5
7
3
7
8
5
7
5
32
22
14
40
24
15
44
21
15
51
17
14
85
34
23
111
44
22
126
56
26
143
66
33
153
81
49
164
91
60
171
99
63
176
107
71
181
117
82
192
128
93
206
147
109
214
159
122
214
159
128
209
156
121
204
150
116
201
144
117
196
140
115
194
138
113
190
133
109
194
132
106
196
135
104
196
135
101
192
134
101
190
128
96
179
117
82
171
99
69
158
88
57
151
80
50
132
69
43
118
62
39
98
49
30
81
34
28
64
31
26
45
29
24
20
16
16
7
5
13
6
3
10
5
4
7
4
3
8
5
5
8
5
5
8
6
5
5
5
5
5
4
5
6
6
6
5
42
20
16
228
222
220
255
255
255
255
254
254
242
218
203
226
171
147
208
147
116
223
166
136
167
125
104
33
17
14
8
4
5
4
5
7
10
3
9
5
5
11
7
5
8
33
23
19
55
37
26
169
131
108
199
146
122
112
58
37
115
44
21
127
60
32
103
52
30
67
33
22
59
33
24
43
34
28
44
41
41
48
52
57
63
55
65
69
55
65
84
63
71
107
81
76
149
125
111
161
131
117
162
126
111
169
133
118
170
134
118
165
128
112
167
130
111
174
135
116
162
121
104
152
107
99
143
98
86
142
96
91
135
87
80
133
80
70
137
79
66
139
73
55
133
66
48
119
52
34
87
34
27
67
31
27
46
29
25
18
15
19
6
5
17
6
3
14
5
4
9
4
4
8
5
5
6
5
5
5
5
5
5
5
5
5
5
5
5
5
7
7
7
6
10
134
128
128
255
255
255
254
252
250
239
201
180
222
170
144
207
151
122
134
89
76
27
17
15
0
4
1
4
6
4
6
5
7
6
4
11
1
4
9
14
7
5
98
65
48
224
180
150
252
209
175
249
196
159
192
129
100
105
45
30
66
27
17
73
55
44
40
37
36
45
49
50
59
58
58
79
94
102
136
157
163
88
117
131
69
91
119
73
86
116
97
104
120
115
111
124
118
107
111
142
133
130
175
168
168
164
156
156
148
140
138
117
112
107
117
114
121
84
83
97
53
61
76
49
63
73
69
76
92
51
67
78
42
51
55
42
43
41
33
30
33
35
27
26
45
31
24
69
35
28
74
30
23
101
61
50
91
68
59
28
16
19
4
0
7
4
3
10
4
4
8
5
5
6
5
5
5
5
5
5
5
5
5
5
5
5
5
6
7
4
8
12
41
42
45
255
255
255
254
250
248
236
179
155
223
165
141
115
78
69
14
6
5
3
3
2
7
4
5
6
2
6
0
0
2
0
0
0
42
23
15
155
109
86
231
171
136
251
212
181
242
203
168
237
185
150
155
103
81
57
25
16
33
27
23
21
18
20
13
16
21
24
27
29
23
32
42
39
69
89
110
150
166
63
111
159
56
102
168
93
133
199
43
71
135
44
52
79
88
85
88
87
77
84
90
77
84
87
75
81
77
67
72
89
84
89
60
67
83
82
96
125
60
95
149
44
91
157
140
171
198
110
144
169
46
70
88
43
55
65
36
43
49
24
27
32
26
26
28
25
19
19
74
35
21
236
165
134
247
190
155
185
146
125
92
67
58
17
6
5
0
0
3
0
2
5
0
4
6
0
3
5
0
4
4
0
4
3
5
6
7
6
7
8
7
7
8
236
236
237
249
235
228
223
168
145
119
85
73
15
8
4
4
7
5
0
4
3
4
3
1
35
21
11
121
76
56
190
137
111
207
150
120
240
179
144
244
195
161
245
205
178
244
178
146
175
117
100
71
42
31
46
36
29
14
13
13
16
15
20
14
13
18
15
14
19
19
27
34
19
36
48
30
56
81
30
64
120
89
141
206
140
180
230
32
68
137
29
46
80
62
59
65
130
95
89
175
118
97
178
125
102
129
91
78
69
62
69
38
52
76
28
57
107
85
134
197
128
172
223
45
99
156
42
82
117
20
43
65
11
28
39
13
21
28
12
17
22
11
13
17
28
25
29
43
23
11
209
140
114
241
176
140
250
197
163
234
186
157
201
154
134
108
69
57
68
36
24
61
32
23
52
27
20
48
23
15
48
26
16
19
12
10
8
2
5
5
2
4
167
167
167
217
192
184
91
61
50
3
5
3
4
7
10
28
12
8
95
54
36
189
125
94
235
179
142
249
202
161
248
202
165
231
175
139
249
191
157
242
193
165
239
180
151
157
107
87
46
23
17
60
51
44
21
24
19
5
8
9
12
12
14
9
9
11
19
19
20
29
34
39
22
30
37
19
28
48
27
40
80
36
79
152
43
81
160
31
55
116
28
43
76
41
43
52
106
102
105
110
102
104
112
102
103
114
109
113
62
64
70
16
32
58
17
42
92
48
88
159
92
140
199
34
73
134
30
58
89
21
36
56
13
24
36
13
21
30
13
17
22
10
12
15
12
10
11
32
29
35
83
50
37
213
146
117
238
174
140
245
192
162
246
196
171
239
184
152
237
180
143
240
181
143
239
182
145
230
174
133
225
159
121
222
157
113
208
145
109
188
128
87
210
179
162
111
102
102
0
0
0
26
16
10
101
63
47
184
131
102
234
172
134
241
189
145
249
210
168
245
207
176
246
209
180
244
195
161
234
173
137
235
173
139
188
121
93
54
14
10
81
50
37
90
77
65
29
26
21
4
3
6
5
4
4
6
6
5
9
9
8
16
12
17
15
14
18
12
14
27
15
21
41
27
37
70
22
37
75
16
25
51
10
15
34
28
25
35
66
63
67
50
40
38
48
33
32
71
66
72
37
39
47
11
20
34
10
24
52
13
29
73
14
36
89
21
37
65
29
45
62
24
32
41
15
22
26
24
29
36
15
19
23
7
8
12
4
5
7
40
30
36
41
35
33
107
59
48
202
135
106
237
172
138
245
192
164
242
198
167
246
203
170
247
204
170
246
207
172
247
207
171
238
181
147
238
188
150
245
198
167
247
201
167
250
210
178
59
57
57
63
43
36
185
139
110
240
186
147
247
204
171
246
210
182
240
192
161
246
205
169
241
204
167
243
199
166
245
186
151
213
143
106
210
138
103
202
140
110
140
86
73
71
36
25
49
41
34
31
24
22
3
5
3
5
4
2
6
5
3
10
9
7
9
8
10
10
8
13
11
10
18
8
11
23
10
12
23
9
12
24
7
10
19
8
9
15
13
13
16
46
38
38
92
52
40
92
49
37
37
29
31
22
24
29
7
9
14
10
12
27
11
14
32
16
16
34
15
18
34
14
16
23
26
26
32
17
17
19
10
11
12
9
9
10
5
6
6
6
5
4
55
44
42
72
63
55
85
41
31
149
84
63
204
134
103
227
162
129
242
179
146
247
189
156
244
193
159
239
202
170
244
204
174
234
182
148
244
190
152
245
203
164
246
203
167
246
208
175
162
125
102
227
163
123
243
187
149
244
200
165
247
212
184
242
210
185
237
192
162
246
198
164
248
198
163
233
175
140
200
133
97
228
159
125
244
184
153
244
194
155
240
178
142
162
117
89
37
28
28
29
21
18
8
11
10
5
4
2
5
4
2
7
6
4
7
7
6
7
7
10
8
7
12
6
7
13
7
8
15
9
9
16
7
8
11
3
7
13
15
16
21
65
41
35
124
63
40
123
61
40
62
34
25
17
20
20
5
7
9
12
6
14
9
10
16
10
11
16
10
11
16
10
9
15
10
10
12
7
8
8
11
11
11
6
5
5
3
4
4
17
12
10
30
23
22
35
30
22
102
55
41
225
161
132
240
175
141
213
149
117
185
123
94
208
154
128
236
186
159
244
186
153
243
186
150
231
166
125
242
180
145
240
191
154
243
207
168
247
213
174
240
187
156
235
173
140
237
184
150
241
198
163
248
207
177
246
207
176
245
199
163
228
175
147
176
130
109
158
109
83
230
172
135
239
177
138
238
180
142
235
177
138
202
136
106
112
71
56
26
11
13
107
87
63
50
34
18
15
14
13
8
7
5
8
7
5
8
8
4
7
7
7
8
8
10
9
9
11
10
10
12
9
9
11
5
8
5
5
9
11
46
33
30
95
48
30
142
70
44
140
71
45
99
50
36
30
23
21
4
10
9
8
7
5
9
8
10
9
9
11
9
9
10
9
8
11
9
9
9
7
7
4
9
9
9
4
5
4
3
4
4
17
13
7
36
28
29
50
33
29
150
92
71
238
174
135
241
181
143
245
180
146
248
190
156
201
155
126
121
83
62
120
84
68
163
121
101
203
148
119
231
171
134
241
183
145
248
200
161
244
202
165
244
197
172
234
181
151
240
186
153
244
199
164
243
197
158
245
197
160
242
189
154
134
99
93
50
28
21
209
156
125
239
183
143
243
190
149
237
180
143
202
134
98
107
56
42
44
17
17
38
17
14
73
49
29
88
63
36
18
15
17
8
7
6
8
9
5
9
9
6
11
11
10
15
15
14
14
16
11
15
18
12
15
18
13
11
16
8
29
29
25
69
40
27
130
65
37
156
79
47
147
71
43
122
60
38
61
37
28
19
26
20
12
11
6
9
10
9
11
11
11
12
12
11
12
12
11
10
10
8
11
11
8
6
7
1
7
7
6
9
10
8
41
33
21
46
35
29
28
15
15
61
27
18
176
114
79
228
166
129
244
178
140
239
175
135
241
181
139
238
183
141
122
90
69
5
0
0
32
22
18
88
65
54
130
93
74
164
120
101
186
138
114
234
188
164
238
184
152
237
184
151
244
194
160
248
196
158
222
164
132
97
61
52
6
10
3
144
97
77
227
161
118
236
179
136
245
196
161
232
178
150
152
96
71
46
20
18
48
24
25
88
37
20
47
25
17
51
39
27
4
0
0
10
9
6
7
7
6
8
8
6
11
11
9
10
10
8
10
11
8
15
17
12
13
14
8
24
26
22
50
32
27
111
53
35
151
71
34
167
82
43
159
75
42
136
61
32
94
46
33
44
35
32
11
13
8
9
8
7
9
9
7
9
9
7
8
8
6
8
8
6
9
9
7
6
7
2
9
9
7
7
9
4
54
49
35
42
25
18
46
26
26
19
6
13
30
15
24
168
96
61
232
165
128
244
188
150
239
180
142
229
166
129
234
172
135
177
137
110
20
12
8
3
2
1
17
4
5
18
15
9
17
13
12
228
181
158
240
185
154
230
182
147
235
190
157
184
132
111
54
34
26
4
0
2
123
90
74
241
187
147
244
190
148
245
194
154
226
176
142
207
146
119
102
53
37
33
20
24
59
26
21
114
48
28
84
33
12
70
55
50
72
70
61
7
7
1
6
6
5
8
8
6
14
14
12
9
10
8
9
12
13
12
12
9
25
21
14
49
31
23
103
53
38
133
59
27
168
91
44
187
104
57
180
100
58
170
97
55
131
72
42
64
34
27
40
37
29
8
9
7
8
8
6
8
8
6
6
6
4
6
6
4
8
8
6
7
7
7
6
6
6
33
35
26
62
54
45
65
32
29
61
35
33
17
13
18
5
6
20
47
16
12
180
112
77
238
173
131
235
176
137
243
190
151
245
194
153
245
193
155
210
168
140
30
22
22
1
5
12
64
55
48
190
150
129
235
189
166
236
184
155
225
174
144
171
126
105
52
35
26
14
13
14
40
24
21
237
182
154
244
198
151
246
204
163
246
205
172
229
171
144
184
118
88
87
39
22
34
20
23
85
39
25
125
56
32
134
65
32
97
46
23
111
97
83
63
60
47
45
43
32
41
32
28
43
41
38
13
13
9
15
14
12
39
31
24
69
46
36
107
62
44
121
50
19
175
95
48
203
128
75
206
134
88
202
130
89
188
114
68
159
90
52
112
62
43
62
36
28
35
29
24
16
15
13
10
9
5
7
7
5
7
7
4
6
5
3
13
10
7
36
38
34
107
100
90
81
49
37
82
40
33
45
24
25
6
5
8
9
7
13
12
6
17
93
44
23
190
116
72
244
179
135
245
201
161
245
205
168
241
194
157
239
182
142
206
152
121
143
102
74
248
192
154
245
196
155
223
182
160
226
173
145
235
182
154
237
188
154
216
170
140
167
128
106
173
127
104
241
187
151
246
196
155
244
200
164
238
192
158
218
148
122
155
89
61
77
26
14
34
14
20
97
46
30
136
65
35
147
76
44
160
88
52
134
74
44
116
76
52
95
69
56
57
41
32
36
25
17
44
29
25
77
49
40
119
81
68
148
87
66
142
69
34
164
82
40
196
111
65
213
141
95
225
170
134
225
171
138
203
136
97
183
108
69
146
77
43
120
61
40
101
59
42
51
31
23
27
24
18
30
27
18
40
38
29
45
42
33
70
60
54
91
73
61
111
67
50
116
58
38
84
41
32
32
16
19
7
4
9
9
6
15
9
6
12
26
9
8
116
58
32
211
137
91
243
188
146
246
201
162
238
186
147
241
185
146
241
181
140
247
189
146
239
180
139
241
188
151
232
197
178
219
163
133
227
171
140
227
172
146
232
182
154
236
191
160
243
197
163
234
183
150
244
191
160
245
193
162
227
170
131
184
117
92
83
41
28
61
25
13
31
15
21
100
45
29
133
64
35
155
82
46
171
93
53
182
101
58
189
114
69
163
99
69
153
92
58
148
94
59
159
101
70
177
116
89
185
128
106
151
92
61
170
97
53
182
99
60
183
99
61
196
120
77
212
151
116
217
157
126
202
132
93
193
117
75
182
106
67
152
83
53
163
101
80
163
109
84
123
82
63
83
50
43
72
39
32
82
49
44
125
78
57
150
90
60
161
86
53
144
71
42
87
42
33
24
13
16
5
6
6
10
5
13
9
6
15
4
9
13
16
9
6
105
57
32
208
129
91
239
180
139
241
187
148
244
193
155
242
185
145
239
179
141
246
191
151
246
201
166
240
213
198
228
172
139
233
181
151
241
185
159
236
183
156
243
197
165
242
200
167
246
201
173
236
186
155
238
184
151
211
141
103
106
64
50
23
6
0
48
22
14
31
16
18
92
40
29
132
60
32
150
76
39
163
84
46
174
95
53
195
112
61
197
119
72
187
108
72
183
113
78
182
117
84
180
132
98
179
128
102
142
79
53
153
82
49
115
60
39
107
49
29
167
88
53
182
102
66
179
105
73
168
96
65
146
80
51
168
98
67
155
86
59
160
103
81
196
133
102
188
121
87
186
118
79
185
112
73
187
111
72
185
111
75
184
104
63
165
85
46
141
65
37
83
41
36
18
12
13
4
8
5
8
6
11
10
6
16
9
7
12
4
7
10
10
4
1
87
47
27
188
116
80
234
172
133
237
191
154
239
184
146
240
183
147
242
190
152
245
211
187
250
237
228
234
179
146
237
187
157
242
192
164
241
196
167
242
198
168
239
195
166
241
194
170
238
190
162
228
170
134
159
96
67
25
8
4
19
13
9
45
19
18
33
18
14
79
34
27
123
53
29
138
65
30
155
77
42
166
85
45
186
103
57
186
111
64
193
117
77
191
123
85
190
129
95
185
129
100
174
114
86
140
75
45
114
50
24
127
70
46
135
75
50
121
53
26
132
65
37
129
62
39
118
53
32
122
66
43
115
59
37
120
64
40
160
99
74
194
132
103
192
129
95
185
115
81
182
106
72
186
105
69
182
105
67
171
91
52
151
72
40
127
58
38
69
35
34
13
12
10
5
7
5
7
6
10
8
7
13
7
8
12
6
8
6
9
6
4
11
2
1
74
34
20
199
135
96
230
178
137
226
166
128
236
178
142
237
182
146
250
228
213
254
250
247
242
192
161
239
188
157
244
192
165
243
205
174
240
199
169
244
199
171
235
187
164
234
185
158
211
150
116
64
36
25
9
7
2
13
10
11
32
17
16
33
22
15
67
30
24
106
45
28
128
59
28
146
69
35
155
77
39
175
91
48
182
102
60
185
113
74
187
121
85
185
127
94
173
111
77
157
91
56
150
78
42
145
74
41
156
78
42
166
87
49
181
115
82
169
118
95
176
122
102
152
82
56
140
65
37
130
59
36
128
60
37
148
78
48
182
115
84
193
128
96
187
116
82
176
100
65
181
101
64
171
93
55
162
83
46
139
66
36
106
50
37
55
30
26
16
14
12
7
8
4
7
7
7
10
10
12
9
8
11
9
7
6
8
7
4
7
8
4
7
4
3
91
52
32
210
145
100
206
144
106
230
169
133
236
177
142
253
249
246
255
252
251
247
212
189
243
195
163
244
191
162
241
205
172
240
201
168
242
200
165
228
185
158
220
166
135
165
106
77
23
13
11
9
7
7
9
8
6
18
11
10
34
24
17
59
28
23
87
36
22
118
56
27
136
63
28
147
72
36
168
84
42
176
93
52
179
107
71
179
113
82
172
110
79
161
96
61
157
80
43
157
77
38
160
78
32
145
73
35
143
80
51
162
103
76
173
122
100
160
110
88
149
91
64
134
67
36
136
63
29
133
59
26
139
65
33
161
87
56
179
111
76
188
116
81
176
101
68
171
93
55
163
85
46
152
75
39
127
58
35
89
43
34
46
27
23
17
16
14
7
7
4
8
7
5
9
8
7
9
8
7
9
7
6
8
7
5
9
8
4
7
6
11
16
3
5
116
62
32
168
97
61
203
138
104
228
175
146
255
255
255
255
254
254
248
227
211
245
202
169
238
186
152
244
205
174
239
197
164
231
186
154
213
154
123
183
117
85
89
48
32
12
9
5
10
6
7
7
8
3
13
12
8
34
23
18
56
28
24
75
33
21
104
48
24
128
59
26
137
65
32
161
79
39
173
91
50
175
99
60
171
102
68
161
90
57
161
89
50
150
78
45
138
75
46
117
66
39
97
59
34
84
51
37
84
54
40
99
71
53
91
64
46
80
53
34
73
44
30
93
55
37
115
61
32
129
62
35
142
67
37
157
82
48
174
101
67
170
94
63
162
85
47
150
73
39
137
64
34
108
47
30
72
36
28
42
26
24
15
15
15
7
7
5
8
7
5
9
8
6
9
8
6
8
7
5
8
7
5
10
7
5
9
7
7
8
8
5
19
5
2
86
43
26
133
81
57
226
196
181
255
255
255
255
255
255
253
241
233
241
198
167
240
189
156
238
196
165
232
183
152
195
141
111
161
101
72
101
59
39
27
15
9
3
10
7
11
7
5
9
9
4
14
12
9
30
23
17
48
28
21
71
34
23
92
40
22
115
51
26
129
58
26
152
72
33
165
86
47
169
94
53
164
89
48
158
86
48
145
79
44
95
54
32
76
46
34
74
48
36
81
51
37
110
70
53
118
76
58
107
64
48
101
58
41
107
66
49
70
46
35
54
39
33
72
45
29
97
56
38
123
58
34
140
68
36
155
82
50
163
89
52
157
80
43
136
62
35
119
52
29
93
43
31
62
33
27
36
23
23
10
9
13
7
6
6
7
6
4
9
8
6
9
8
6
9
8
6
8
7
5
9
7
5
10
8
5
8
9
6
8
7
10
8
5
8
36
17
9
224
219
216
255
255
255
255
255
255
255
253
251
231
188
163
228
182
149
225
174
146
176
121
93
100
61
39
44
24
17
14
9
6
8
7
4
7
9
5
12
7
7
8
8
8
12
10
7
27
21
15
41
27
20
67
36
25
81
33
17
102
44
23
118
51
23
141
65
30
160
79
44
159
82
47
156
77
35
142
73
43
84
53
35
55
31
18
96
61
43
141
83
54
159
88
56
175
99
65
197
124
89
214
149
116
205
138
109
177
107
81
156
90
61
135
83
61
83
51
40
61
42
33
94
54
32
124
61
30
142
70
37
151
77
38
148
72
38
123
53
30
104
45
26
81
38
29
53
32
26
32
24
25
10
8
16
8
6
8
8
7
5
8
7
5
9
8
6
9
8
6
9
8
6
9
8
7
10
8
8
11
7
5
12
7
9
10
7
7
67
65
64
242
242
242
255
255
255
255
255
255
255
255
255
243
216
195
213
159
120
143
98
74
44
25
19
11
8
7
10
9
7
9
8
6
9
8
6
9
8
6
9
8
6
9
8
6
12
9
7
27
18
16
35
23
17
56
33
23
76
34
20
88
39
17
109
49
25
130
58
31
151
67
37
153
74
39
144
74
36
92
45
29
51
24
17
125
74
60
154
81
52
165
85
52
172
93
61
184
109
76
182
106
71
188
118
83
175
106
79
184
109
87
169
89
59
157
79
52
139
74
55
65
35
27
57
40
29
111
56
33
128
60
28
138
65
31
137
64
33
113
50
28
92
42
26
74
39
28
46
30
22
26
20
28
10
8
22
8
7
10
8
7
5
9
8
6
10
9
7
9
8
6
9
8
6
9
8
6
9
8
6
9
8
6
9
8
6
9
8
4
150
149
148
255
255
255
255
255
255
255
255
255
255
255
255
251
245
240
98
65
53
12
6
0
8
9
7
11
10
9
11
10
8
10
9
7
10
9
7
10
9
7
10
9
7
10
9
7
13
11
9
24
15
13
31
20
16
44
29
22
66
37
24
80
35
17
98
44
20
121
54
27
141
62
32
140
64
30
114
58
35
61
36
28
109
65
49
125
69
46
129
60
33
147
67
42
157
77
52
172
94
69
170
96
67
183
109
80
170
99
74
176
107
84
159
87
61
146
77
49
128
68
43
103
56
42
43
31
27
85
46
34
121
59
31
127
58
28
125
57
31
100
48
28
78
39
24
60
36
27
42
29
22
22
15
33
10
6
29
9
7
11
8
7
5
9
8
6
10
9
7
9
8
6
9
8
6
9
8
6
9
8
6
9
8
6
9
8
6
40
39
36
217
217
217
255
255
255
255
255
255
255
255
255
255
255
255
255
255
255
113
112
113
11
8
8
15
8
8
12
8
7
11
8
7
12
10
7
11
9
7
10
9
7
10
10
6
9
10
6
12
9
6
21
13
10
31
21
17
34
25
21
54
35
24
76
36
23
91
40
19
111
49
24
132
59
31
129
58
27
93
46
28
73
48
34
150
98
73
130
71
45
168
94
76
199
115
92
213
132
103
205
121
93
204
117
95
205
117
98
201
117
97
198
121
99
186
106
87
161
91
74
119
65
52
117
64
49
83
56
43
58
35
32
117
59
33
117
52
25
111
52
31
86
41
23
70
40
29
47
32
25
37
26
20
18
10
34
11
6
33
10
8
13
10
9
7
9
8
6
9
8
6
9
8
6
8
8
6
8
8
6
9
8
6
9
8
6
9
8
6
111
110
108
255
255
255
255
255
255
255
255
255
255
255
255
255
255
255
255
255
255
248
248
248
24
24
23
11
9
6
9
11
6
1
3
0
0
0
0
5
0
0
7
2
0
11
9
4
8
10
5
8
10
4
14
10
6
30
21
18
33
23
20
43
26
21
72
41
31
85
40
22
98
46
19
114
51
25
120
57
28
87
46
28
95
62
50
143
81
50
172
93
56
201
126
96
227
147
126
239
170
142
235
181
154
241
190
167
240
179
153
237
173
147
240
179
150
227
160
134
203
125
106
150
79
60
140
81
53
92
57
43
53
34
26
101
50
26
103
45
23
90
43
24
81
41
25
58
34
27
36
25
19
28
23
24
16
9
34
12
7
34
10
8
16
9
8
9
7
7
6
6
6
4
7
7
5
5
5
3
6
6
4
7
7
5
6
6
4
12
12
10
238
238
238
255
255
255
255
255
255
255
255
255
255
255
255
255
255
255
255
255
255
255
255
255
171
172
170
13
10
7
43
30
24
129
112
102
170
146
139
150
129
125
117
101
99
36
23
23
18
9
8
9
10
4
11
10
4
31
19
17
33
20
17
35
22
20
49
28
21
70
37
27
81
40
21
94
43
23
98
46
24
68
36
20
87
59
47
141
79
47
161
77
40
166
95
60
208
134
107
227
143
117
238
173
148
246
217
200
242
216
205
252
218
208
236
179
166
213
130
107
185
106
82
153
86
58
126
66
38
92
57
43
53
34
26
75
39
24
89
41
24
81
39
22
64
41
28
39
29
21
33
27
19
35
24
35
19
9
37
10
7
33
8
7
16
6
6
7
5
5
3
3
3
1
3
3
1
3
3
1
3
3
1
3
3
1
3
3
1
149
149
148
255
255
255
255
255
255
255
255
255
255
255
255
255
255
255
255
255
255
255
255
255
255
255
255
245
244
244
162
145
136
207
168
149
212
174
152
219
186
163
210
181
163
195
170
160
175
153
149
132
110
112
54
35
35
18
11
7
32
20
17
35
19
16
29
20
19
32
21
17
49
29
23
65
37
24
76
39
26
79
40
24
57
33
21
72
49
38
121
69
42
142
63
31
125
62
31
120
65
45
155
102
81
168
116
96
166
115
95
168
117
93
183
123
100
182
118
97
164
98
78
137
72
46
125
62
33
130
71
44
91
58
45
51
33
24
73
40
25
77
40
26
67
40
30
45
30
20
32
23
17
62
49
42
160
139
133
119
100
107
43
32
48
7
4
12
5
5
6
4
5
4
3
4
1
3
3
1
3
3
1
3
3
1
3
3
1
65
65
64
255
255
255
255
255
255
255
255
255
255
255
255
255
255
255
255
255
255
255
255
255
255
255
255
255
255
255
255
255
255
250
243
239
215
182
160
213
181
155
212
186
158
213
184
160
210
179
162
172
148
143
141
124
129
116
88
89
89
57
54
48
25
20
43
24
16
26
17
16
30
23
19
34
26
19
43
27
21
51
28
24
53
32
25
49
30
24
53
35
28
91
52
38
125
61
33
137
70
39
134
78
52
73
36
19
60
37
27
49
25
19
68
42
36
71
43
34
74
42
29
104
53
31
134
67
38
135
69
38
113
68
48
61
43
32
44
31
23
69
39
23
66
40
28
52
32
26
37
24
22
32
24
17
113
97
88
195
173
160
202
180
168
183
163
154
111
98
92
18
11
9
0
0
0
3
6
3
4
4
2
3
3
1
2
4
1
27
27
25
213
213
213
255
255
255
255
255
255
255
255
255
255
255
255
255
255
255
255
255
255
255
255
255
255
255
255
255
255
255
255
255
255
255
255
255
240
227
217
228
200
173
234
208
181
229
206
176
230
205
175
219
193
175
147
129
129
106
88
93
101
66
58
105
59
43
73
34
19
25
19
10
33
15
16
33
25
20
34
22
19
35
22
20
37
24
20
36
23
18
36
24
19
69
43
35
123
74
51
152
83
48
165
94
53
170
109
73
140
92
66
111
74
58
118
82
67
143
95
71
151
95
65
139
72
41
144
73
39
131
76
45
81
52
38
47
31
25
37
27
20
56
37
26
51
34
25
39
24
17
35
26
21
48
35
27
143
126
114
209
188
173
225
204
183
229
210
181
219
195
172
194
172
157
79
68
62
1
0
0
4
4
3
6
2
1
10
7
6
153
153
152
255
255
255
255
255
255
255
255
255
255
255
255
255
255
255
255
255
255
255
255
255
255
255
255
255
255
255
255
255
255
255
255
255
255
255
255
255
255
255
253
237
221
248
224
196
243
221
191
239
214
183
227
203
179
194
176
168
113
99
103
111
83
73
133
75
52
107
46
25
52
25
16
28
15
14
29
19
18
31
22
20
30
21
20
28
19
16
30
22
18
34
26
22
43
29
23
89
60
47
131
81
55
151
91
57
158
99
65
142
92
66
115
78
61
116
77
60
133
84
59
148
90
60
139
74
45
135
82
58
78
50
31
57
44
33
35
22
20
33
24
18
34
24
20
34
24
19
33
23
17
35
25
17
108
89
81
197
177
164
217
197
176
238
218
194
246
227
200
240
219
191
228
206
182
216
194
174
118
101
90
26
17
17
8
5
4
93
95
93
255
255
255
255
255
255
255
255
255
255
255
255
255
255
255
255
255
255
255
255
255
255
255
255
255
255
255
255
255
255
255
255
255
255
255
255
255
255
255
255
255
255
255
255
255
251
235
216
244
221
191
238
215
185
221
199
176
209
189
173
130
116
115
82
58
45
119
60
37
120
53
27
76
33
20
31
20
15
26
17
14
28
19
16
26
21
19
27
18
16
27
18
16
29
19
18
34
24
21
42
29
20
81
55
42
100
64
47
107
71
54
83
55
39
86
60
48
84
54
41
98
64
48
111
74
55
98
60
41
77
50
36
45
31
22
35
26
22
32
22
20
31
22
19
32
24
20
30
21
16
28
19
13
88
73
65
169
149
140
183
162
150
211
189
167
237
216
193
244
224
200
249
228
201
245
222
195
232
208
183
225
201
181
170
147
137
118
111
108
255
255
255
255
255
255
255
255
255
255
255
255
255
255
255
255
255
255
255
255
255
255
255
255
255
255
255
255
255
255
255
255
255
255
255
255
255
255
255
255
255
255
255
255
255
255
255
255
255
253
251
248
232
210
229
205
176
217
193
170
201
178
160
124
108
107
68
41
24
123
58
32
121
52
25
96
43
20
64
32
20
34
18
16
24
14
13
27
18
15
26
16
14
30
20
18
33
22
20
36
20
22
28
20
17
38
27
23
48
31
25
49
33
28
44
32
28
50
38
33
49
33
27
53
35
26
58
38
30
52
34
27
45
33
29
35
28
24
30
22
19
31
24
20
30
23
19
29
21
18
35
22
15
47
29
19
61
53
50
74
65
61
57
46
41
155
134
115
225
199
170
241
214
183
244
220
190
242
219
189
243
218
193
240
217
191
239
223
208
255
255
254
255
255
255
255
255
255
255
255
255
255
255
255
255
255
255
255
255
255
255
255
255
255
255
255
255
255
255
255
255
255
255
255
255
255
255
255
255
255
255
255
255
255
255
255
255
255
255
255
255
255
255
255
254
253
231
210
191
206
178
156
191
166
150
106
91
90
72
42
22
133
64
34
129
57
27
116
48
17
109
52
28
81
36
18
34
15
11
28
18
15
23
13
11
25
15
13
29
19
17
32
23
18
28
24
18
24
18
14
29
21
17
34
27
24
26
17
17
28
22
21
34
26
23
33
23
19
37
26
22
37
26
26
28
19
17
28
22
19
24
20
16
24
20
16
25
21
16
23
18
14
46
28
21
62
30
19
14
10
8
22
19
16
36
30
26
81
69
57
201
175
148
225
196
164
230
208
176
239
216
184
241
218
188
247
231
212
255
253
252
255
255
255
255
255
255
255
255
255
255
255
255
255
255
255
255
255
255
255
255
255
255
255
255
255
255
255
255
255
255
255
255
255
255
255
255
255
255
255
255
255
255
255
255
255
255
255
255
255
255
255
255
255
255
255
255
255
255
255
255
227
209
198
195
170
161
100
78
71
99
56
33
133
63
29
139
61
28
128
54
22
120
56
28
117
54
25
76
34
17
33
16
14
26
19
15
25
20
16
27
19
17
23
19
13
24
21
15
26
21
17
30
21
19
30
22
20
28
19
17
28
20
19
27
21
17
28
20
16
32
24
21
28
21
19
26
19
16
31
24
20
23
16
16
24
22
18
23
19
15
30
21
16
59
30
19
70
33
25
13
8
5
28
25
20
41
33
26
33
26
16
109
92
73
189
164
138
217
190
162
237
213
183
247
232
213
255
255
255
255
255
255
255
255
255
255
255
255
255
255
255
255
255
255
255
255
255
255
255
255
255
255
255
255
255
255
255
255
255
255
255
255
255
255
255
255
255
255
255
255
255
255
255
255
255
255
255
255
255
255
255
255
255
255
255
255
255
255
255
255
255
255
255
255
255
220
209
206
119
82
68
117
57
31
132
59
25
142
62
27
136
60
26
119
53
26
118
55
27
117
57
27
80
35
16
38
21
17
26
19
19
26
18
19
20
15
12
23
18
15
25
20
17
26
20
17
28
20
18
25
17
15
24
17
15
30
25
22
26
21
18
28
23
20
26
21
18
25
20
17
25
19
17
26
18
17
26
22
18
29
18
14
62
33
20
80
37
19
76
33
22
24
14
12
22
19
14
37
28
22
45
35
26
48
36
25
57
45
33
132
115
99
236
226
216
255
255
255
255
255
255
255
255
255
255
255
255
255
255
255
255
255
255
255
255
255
255
255
255
255
255
255
255
255
255
255
255
255
255
255
255
255
255
255
255
255
255
255
255
255
255
255
255
255
255
255
255
255
255
255
255
255
255
255
255
255
255
255
255
255
255
255
255
255
255
255
255
255
255
255
233
225
222
152
102
80
128
54
21
140
62
24
143
64
29
124
52
24
119
53
27
125
59
29
116
49
17
68
31
20
28
17
15
31
22
19
24
19
16
19
14
11
23
18
15
25
20
17
27
22
19
23
19
16
24
20
17
26
21
18
27
22
19
22
17
14
28
22
20
26
21
18
25
20
17
25
18
15
27
21
15
41
23
18
89
38
23
81
32
17
79
32
18
29
11
12
22
14
11
36
28
22
43
34
25
46
38
28
93
89
83
218
217
215
255
255
255
255
255
255
255
255
255
255
255
255
255
255
255
255
255
255
255
255
255
255
255
255
255
255
255
255
255
255
255
255
255
255
255
255
255
255
255
255
255
255
255
255
255
255
255
255
255
255
255
255
255
255
255
255
255
255
255
255
255
255
255
255
255
255
255
255
255
255
255
255
255
255
255
255
255
255
255
255
255
255
255
255
204
175
162
145
70
35
148
67
29
133
56
27
115
49
27
129
64
36
125
59
24
95
42
15
51
25
12
32
22
17
24
15
14
22
17
15
29
21
19
25
18
15
19
15
11
21
16
12
24
18
14
24
17
13
26
20
17
22
16
13
25
21
17
28
25
25
26
19
17
32
21
15
45
25
13
74
40
24
97
42
24
77
29
18
80
35
24
37
17
17
28
18
16
37
29
23
44
36
31
166
162
158
255
255
255
255
255
255
255
255
255
255
255
255
255
255
255
255
255
255
255
255
255
255
255
255
255
255
255
255
255
255
255
255
255
255
255
255
255
255
255
255
255
255
255
255
255
255
255
255
255
255
255
255
255
255
255
255
255
255
255
255
255
255
255
255
255
255
255
255
255
255
255
255
255
255
255
255
255
255
255
255
255
255
255
255
255
255
255
255
255
255
255
255
255
246
239
235
191
142
119
157
90
60
122
56
25
132
66
35
137
72
40
133
66
30
109
56
30
71
37
21
46
20
16
30
16
13
27
19
17
23
17
15
19
15
12
21
17
14
21
16
14
21
17
14
26
22
18
22
17
12
28
20
15
36
19
12
62
33
20
70
34
23
97
49
31
113
54
31
95
40
16
83
32
19
73
31
20
35
18
16
57
49
48
126
121
119
240
239
239
255
255
255
255
255
255
255
255
255
255
255
255
255
255
255
255
255
255
255
255
255
255
255
255
255
255
255
255
255
255
255
255
255
255
255
255
255
255
255
255
255
255
255
255
255
255
255
255
255
255
255
255
255
255
255
255
255
255
255
255
255
255
255
255
255
255
255
255
255
255
255
255
255
255
255
255
255
255
255
255
255
255
255
255
255
255
255
255
255
255
255
255
255
255
255
255
255
255
255
255
255
255
238
226
220
203
173
157
164
110
84
148
75
44
161
88
52
155
91
57
134
78
48
111
62
40
71
32
18
37
17
9
27
18
15
29
20
17
26
17
14
29
20
18
34
23
20
34
19
12
44
26
18
61
34
23
101
54
29
122
64
33
124
62
36
127
61
36
120
51
25
103
46
19
93
38
18
112
83
75
159
153
152
221
220
219
255
255
255
255
255
255
255
255
255
255
255
255
255
255
255
255
255
255
255
255
255
255
255
255
255
255
255
255
255
255
255
255
255
255
255
255
255
255
255
255
255
255
255
255
255
255
255
255
255
255
255
255
255
255
255
255
255
255
255
255
255
255
255
255
255
255
255
255
255
255
255
255
255
255
255
255
255
255
255
255
255
255
255
255
255
255
255
255
255
255
255
255
255
255
255
255
255
255
255
255
255
255
255
255
255
255
255
255
255
255
255
255
255
255
250
246
245
240
229
223
211
175
157
187
134
106
168
116
88
149
94
62
126
67
37
94
44
22
62
32
17
57
37
27
46
26
16
50
26
18
59
30
24
79
41
27
97
54
36
126
79
55
155
92
59
161
91
56
156
82
47
146
73
40
148
87
61
182
153
138
229
220
216
245
243
243
255
255
255
255
255
255
255
255
255
255
255
255
255
255
255
255
255
255
255
255
255
255
255
255
255
255
255
255
255
255
255
255
255
255
255
255
255
255
255
255
255
255
255
255
255
255
255
255
255
255
255
255
255
255
255
255
255
255
255
255
255
255
255
255
255
255
255
255
255
255
255
255
255
255
255
255
255
255
255
255
255
255
255
255
255
255
255
255
255
255
255
255
255
255
255
255
255
255
255
255
255
255
255
255
255
255
255
255
255
255
255
255
255
255
255
255
255
255
255
255
255
255
255
255
255
255
255
255
255
255
255
255
251
247
245
223
205
195
204
169
149
175
126
100
141
86
63
105
57
37
108
58
37
119
64
39
111
59
30
140
80
49
149
89
57
170
121
91
193
144
117
205
165
143
227
200
187
249
244
242
255
255
255
255
255
255
255
255
255
255
255
255
255
255
255
255
255
255
255
255
255
255
255
255
255
255
255
255
255
255
255
255
255
255
255
255
255
255
255
255
255
255
255
255
255
255
255
255
255
255
255
255
255
255
255
255
255
255
255
255
255
255
255
255
255
255
255
255
255
255
255
255
