P3
64 64
255
255
255
255
255
255
255
255
255
255
255
255
255
255
255
255
255
255
255
255
255
255
255
255
255
255
255
255
255
255
255
255
255
255
255
255
255
255
255
255
255
255
255
255
255
255
255
255
255
255
255
255
255
255
255
255
255
255
255
255
255
255
255
255
255
255
255
253
254
254
246
247
249
239
242
244
213
220
225
169
183
193
134
153
168
106
131
148
87
114
134
72
101
121
68
95
113
66
98
117
75
103
122
84
113
133
111
134
148
133
154
169
168
183
193
216
221
225
240
242
244
246
247
249
253
254
254
255
255
255
255
255
255
255
255
255
255
255
255
255
255
255
255
255
255
255
255
255
255
255
255
255
255
255
255
255
255
255
255
255
255
255
255
255
255
255
255
255
255
255
255
255
255
255
255
255
255
255
255
255
255
255
255
255
255
255
255
255
255
255
255
255
255
255
255
255
255
255
255
255
255
255
255
255
255
255
255
255
255
255
255
255
255
255
255
255
255
255
255
255
255
255
255
255
255
255
255
255
255
255
255
255
255
255
255
255
255
255
255
255
255
255
255
255
255
255
255
255
255
255
255
255
255
242
244
246
201
210
216
157
174
185
110
134
151
67
98
120
62
94
117
63
94
117
65
95
118
70
97
115
76
103
120
86
104
112
84
95
94
75
94
104
80
103
115
71
99
117
84
108
120
62
94
118
63
96
118
80
105
120
66
96
121
110
133
151
159
174
186
201
210
217
243
245
246
255
255
255
255
255
255
255
255
255
255
255
255
255
255
255
255
255
255
255
255
255
255
255
255
255
255
255
255
255
255
255
255
255
255
255
255
255
255
255
255
255
255
255
255
255
255
255
255
255
255
255
255
255
255
255
255
255
255
255
255
255
255
255
255
255
255
255
255
255
255
255
255
255
255
255
255
255
255
255
255
255
255
255
255
255
255
255
255
255
255
255
255
255
255
255
255
255
255
255
255
255
255
255
255
255
255
255
255
255
255
255
255
255
255
243
245
246
152
168
181
98
124
143
71
102
123
62
94
117
62
94
117
62
94
117
63
94
117
63
94
117
69
97
116
97
113
117
105
118
117
98
101
93
101
105
94
91
95
86
97
107
108
99
111
113
92
107
112
67
98
117
74
100
115
69
95
114
63
95
119
64
94
118
65
95
119
73
102
125
99
123
143
154
170
183
243
245
247
255
255
255
255
255
255
255
255
255
255
255
255
255
255
255
255
255
255
255
255
255
255
255
255
255
255
255
255
255
255
255
255
255
255
255
255
255
255
255
255
255
255
255
255
255
255
255
255
255
255
255
255
255
255
255
255
255
255
255
255
255
255
255
255
255
255
255
255
255
255
255
255
255
255
255
255
255
255
255
255
255
255
255
255
255
255
255
255
255
255
255
255
255
255
255
255
255
255
255
255
255
255
251
252
252
152
169
181
63
95
118
63
95
118
62
94
117
62
94
117
63
95
118
63
94
117
64
95
118
66
95
115
72
98
112
101
112
109
119
121
107
97
97
84
118
114
94
128
126
108
118
113
89
90
88
74
104
101
85
89
89
81
82
98
105
78
96
105
64
86
98
64
96
119
65
95
119
65
95
119
65
95
119
65
95
119
64
96
119
65
97
120
152
170
182
247
248
249
255
255
255
255
255
255
255
255
255
255
255
255
255
255
255
255
255
255
255
255
255
255
255
255
255
255
255
255
255
255
255
255
255
255
255
255
255
255
255
255
255
255
255
255
255
255
255
255
255
255
255
255
255
255
255
255
255
255
255
255
255
255
255
255
255
255
255
255
255
255
255
255
255
255
255
255
255
255
255
255
255
255
255
255
255
255
255
255
255
255
246
247
248
184
195
204
77
106
128
62
94
117
62
94
117
63
95
118
63
95
119
63
95
118
64
96
119
63
96
119
69
95
114
70
89
99
68
78
75
74
79
68
109
109
88
133
127
97
126
117
90
110
99
74
129
119
94
73
67
51
69
64
47
65
57
42
75
70
53
61
59
48
57
57
47
53
73
86
64
94
117
65
95
119
65
95
119
66
96
120
66
96
120
66
96
120
66
96
120
83
112
133
188
199
208
245
246
248
255
255
255
255
255
255
255
255
255
255
255
255
255
255
255
255
255
255
255
255
255
255
255
255
255
255
255
255
255
255
255
255
255
255
255
255
255
255
255
255
255
255
255
255
255
255
255
255
255
255
255
255
255
255
255
255
255
255
255
255
255
255
255
255
255
255
255
255
255
255
255
255
255
255
255
255
255
255
255
255
255
212
219
224
115
137
155
64
94
118
63
95
118
63
95
119
64
96
119
64
96
119
63
95
120
64
95
116
65
95
117
66
94
114
65
79
82
56
61
53
57
59
46
77
78
67
104
103
84
96
92
72
105
98
80
96
81
56
94
83
64
73
65
50
54
48
34
38
34
23
66
61
49
42
41
34
30
32
25
28
34
32
59
82
96
65
96
119
67
96
120
66
96
120
66
96
120
67
97
121
67
97
121
67
97
121
67
97
121
119
140
158
214
221
226
255
255
255
255
255
255
255
255
255
255
255
255
255
255
255
255
255
255
255
255
255
255
255
255
255
255
255
255
255
255
255
255
255
255
255
255
255
255
255
255
255
255
255
255
255
255
255
255
255
255
255
255
255
255
255
255
255
255
255
255
255
255
255
255
255
255
255
255
255
255
255
255
255
255
255
177
189
198
80
108
129
67
97
120
67
98
120
67
98
120
66
98
120
65
97
120
64
97
119
64
96
121
64
96
118
60
90
109
44
61
66
24
29
25
36
39
33
68
69
60
101
99
89
109
103
87
88
80
61
90
85
71
69
66
54
58
52
40
71
64
51
39
36
29
17
19
13
52
50
38
36
34
26
14
16
12
15
20
16
39
55
60
64
95
117
67
97
121
67
97
121
67
97
121
67
97
121
68
98
122
67
97
121
67
97
121
68
98
122
78
107
129
186
197
206
255
255
255
255
255
255
255
255
255
255
255
255
255
255
255
255
255
255
255
255
255
255
255
255
255
255
255
255
255
255
255
255
255
255
255
255
255
255
255
255
255
255
255
255
255
255
255
255
255
255
255
255
255
255
255
255
255
255
255
255
255
255
255
255
255
255
250
251
251
163
178
188
72
100
121
72
100
121
74
102
121
75
102
122
74
102
122
75
103
122
76
103
122
77
105
121
76
104
120
72
100
120
64
91
108
24
36
38
15
17
12
34
36
28
62
60
49
69
69
59
53
50
36
63
57
42
56
54
42
58
58
51
75
72
62
52
48
39
43
42
37
22
22
20
38
37
29
28
28
20
10
10
8
17
21
16
30
41
43
61
88
107
67
97
121
68
98
122
67
97
121
67
97
121
68
98
122
68
98
122
68
98
122
68
98
122
69
99
123
68
98
122
159
174
187
254
254
254
255
255
255
255
255
255
255
255
255
255
255
255
255
255
255
255
255
255
255
255
255
255
255
255
255
255
255
255
255
255
255
255
255
255
255
255
255
255
255
255
255
255
255
255
255
255
255
255
255
255
255
255
255
255
255
255
255
245
246
248
140
158
170
73
101
121
72
101
120
74
103
121
75
104
122
78
106
123
81
107
123
84
109
122
85
109
123
86
110
123
85
109
123
78
101
113
52
68
75
9
14
12
13
17
13
32
34
28
46
45
39
53
51
44
38
36
28
42
38
29
60
58
49
46
44
37
39
37
29
78
74
65
34
34
27
22
21
21
24
24
18
21
23
16
10
11
7
5
7
4
19
31
32
65
92
113
68
98
122
68
98
122
68
98
122
68
98
122
68
98
122
68
98
122
69
99
123
68
98
122
69
99
123
70
100
124
70
100
124
134
153
169
243
245
247
255
255
255
255
255
255
255
255
255
255
255
255
255
255
255
255
255
255
255
255
255
255
255
255
255
255
255
255
255
255
255
255
255
255
255
255
255
255
255
255
255
255
255
255
255
255
255
255
255
255
255
245
246
248
122
143
160
69
98
121
68
98
121
69
98
121
72
100
122
73
101
122
76
104
124
78
105
124
78
106
124
79
106
124
80
107
122
80
108
122
78
102
116
38
50
53
4
9
5
9
12
9
14
16
10
38
34
25
55
44
32
78
67
53
74
66
55
65
59
50
60
54
43
42
35
26
47
41
31
44
40
31
14
14
11
13
15
10
8
9
5
5
7
5
6
10
7
41
58
67
69
99
122
68
98
122
68
98
122
68
98
123
70
99
123
71
100
124
71
100
124
72
100
124
71
100
124
71
100
124
70
100
124
70
100
124
70
100
124
127
147
164
252
253
253
255
255
255
255
255
255
255
255
255
255
255
255
255
255
255
255
255
255
255
255
255
255
255
255
255
255
255
255
255
255
255
255
255
255
255
255
255
255
255
255
255
255
255
255
255
250
251
251
135
154
169
65
96
119
64
96
119
65
96
119
67
97
121
66
97
122
67
97
120
69
98
121
71
99
123
72
100
123
73
101
123
74
101
123
75
104
124
65
89
102
11
16
14
10
14
7
12
13
8
33
28
17
60
44
30
85
63
44
84
65
46
71
55
39
70
58
46
74
63
46
50
43
31
38
30
20
45
36
25
29
25
14
26
23
16
16
16
11
19
20
14
4
9
4
16
26
26
75
99
113
76
103
120
73
101
123
73
100
123
72
100
124
72
100
124
72
100
124
72
100
124
72
100
124
71
100
124
70
100
124
70
100
124
70
100
124
70
100
124
131
151
167
255
255
255
255
255
255
255
255
255
255
255
255
255
255
255
255
255
255
255
255
255
255
255
255
255
255
255
255
255
255
255
255
255
255
255
255
255
255
255
255
255
255
255
255
255
160
175
187
65
95
119
65
96
119
64
96
119
64
96
119
66
97
120
66
96
120
66
98
121
67
98
121
67
97
121
67
98
122
69
98
123
71
99
124
70
97
121
21
29
28
40
31
20
51
40
29
48
36
24
56
38
24
78
56
39
86
63
44
102
84
65
96
79
61
70
57
40
58
48
36
60
49
38
47
36
23
53
42
29
40
26
14
46
35
24
36
29
19
36
31
20
40
34
21
13
14
6
33
40
40
97
116
125
92
114
126
85
110
125
80
106
124
75
103
124
73
102
124
73
101
123
73
101
125
73
101
125
73
101
125
73
101
125
71
101
125
71
101
125
70
100
124
151
167
181
255
255
255
255
255
255
255
255
255
255
255
255
255
255
255
255
255
255
255
255
255
255
255
255
255
255
255
255
255
255
255
255
255
255
255
255
255
255
255
175
188
198
65
95
119
65
95
119
65
96
120
65
97
120
66
97
120
66
97
121
67
97
121
67
97
121
67
97
121
67
97
121
68
98
122
68
98
122
70
102
128
41
57
64
37
28
16
92
71
51
108
84
66
89
63
46
109
77
55
106
78
58
96
76
61
85
67
51
85
69
53
73
56
40
70
58
42
65
51
37
67
50
33
57
40
23
68
44
24
75
51
30
74
51
29
90
68
45
86
69
45
49
42
28
26
23
14
62
74
77
97
120
131
95
116
126
93
114
127
88
112
126
85
110
125
82
108
124
78
105
125
75
103
124
74
101
125
74
101
127
72
101
126
71
101
126
71
101
125
72
102
126
180
192
202
255
255
255
255
255
255
255
255
255
255
255
255
255
255
255
255
255
255
255
255
255
255
255
255
255
255
255
255
255
255
255
255
255
212
219
225
78
106
128
65
95
119
65
95
119
65
96
119
65
97
120
66
97
120
67
96
121
67
97
121
67
97
121
67
97
121
68
98
122
68
98
122
68
99
123
65
87
106
64
52
41
107
82
58
155
119
91
152
117
91
143
109
82
135
96
69
123
92
68
107
82
62
107
80
60
103
83
63
91
74
57
80
60
42
70
49
30
77
53
34
78
52
28
99
68
38
114
76
47
117
82
54
125
93
65
123
93
67
95
78
56
69
58
43
64
60
49
83
102
114
90
113
128
85
110
126
82
110
124
80
108
125
82
109
125
83
109
125
81
108
124
79
106
125
75
103
125
73
103
125
72
103
126
72
102
126
72
102
126
87
115
137
223
229
233
255
255
255
255
255
255
255
255
255
255
255
255
255
255
255
255
255
255
255
255
255
255
255
255
255
255
255
246
247
249
116
139
156
65
97
120
64
96
119
65
96
119
65
97
120
65
97
120
66
97
120
67
97
121
67
97
121
67
97
121
68
98
122
67
97
121
68
98
122
69
98
121
90
87
82
112
87
66
167
131
103
178
139
110
180
139
106
189
144
110
193
151
116
161
122
90
127
92
68
125
93
68
115
85
61
97
75
57
93
66
42
98
66
41
110
78
51
110
77
50
112
73
48
124
96
73
139
108
86
143
109
83
139
101
79
124
96
72
99
82
62
93
80
63
87
93
93
79
107
124
75
105
124
75
103
125
77
105
126
79
108
125
80
108
125
85
111
125
82
110
126
77
105
126
75
106
125
74
103
126
73
103
127
73
103
127
72
102
126
127
148
165
251
252
252
255
255
255
255
255
255
255
255
255
255
255
255
255
255
255
255
255
255
255
255
255
255
255
255
185
196
205
65
97
120
65
97
120
65
97
120
66
96
121
67
97
120
66
97
120
67
97
121
67
97
121
67
97
121
67
97
121
68
98
122
68
98
122
68
98
122
79
97
113
131
104
85
150
115
88
187
145
116
193
148
119
195
145
114
197
147
117
196
150
121
199
164
135
181
153
127
145
112
88
121
87
66
110
83
62
105
72
51
115
81
55
131
92
63
129
86
57
140
97
71
155
132
113
150
129
110
142
108
84
138
99
77
132
96
74
118
94
72
117
97
79
98
90
78
77
100
116
75
102
125
75
103
126
75
103
125
76
104
126
80
107
127
80
108
126
79
107
126
78
106
127
78
106
126
76
104
127
74
103
127
73
104
127
73
103
126
73
104
126
187
198
207
255
255
255
255
255
255
255
255
255
255
255
255
255
255
255
255
255
255
255
255
255
251
252
252
78
108
130
65
97
120
65
97
120
65
97
120
67
96
121
67
97
121
67
97
121
67
97
121
67
97
121
68
98
122
68
98
122
68
98
122
68
98
122
68
99
123
103
99
97
150
115
89
170
128
99
190
138
108
193
143
114
196
143
116
203
156
129
204
163
139
208
177
156
205
176
155
190
161
138
143
105
82
131
96
72
128
84
57
146
99
71
155
106
77
141
92
65
137
96
74
144
111
90
136
106
85
129
93
71
141
105
79
136
99
75
121
92
70
116
93
71
102
83
66
78
92
103
75
102
126
74
102
126
75
102
125
76
103
126
77
106
126
79
109
126
81
109
127
80
107
127
78
107
127
77
105
126
76
104
126
74
105
126
74
105
126
74
105
126
82
111
133
242
244
246
255
255
255
255
255
255
255
255
255
255
255
255
255
255
255
255
255
255
153
170
182
65
97
120
66
96
120
67
97
121
67
97
121
67
97
121
67
97
121
67
97
121
68
98
122
68
98
122
68
98
122
68
98
122
68
98
122
68
98
122
70
99
121
130
104
85
156
121
94
175
129
100
188
133
105
193
142
112
196
143
113
204
158
132
208
171
151
207
181
165
207
182
167
205
174
152
190
153
125
158
114
89
161
116
87
167
116
85
164
114
83
165
117
87
158
112
87
160
121
94
145
109
84
143
109
82
150
116
91
139
102
79
132
103
82
120
95
73
106
83
63
86
85
81
74
102
125
74
103
125
73
104
125
76
104
126
77
104
127
77
105
126
79
106
126
80
107
127
79
107
127
80
107
127
80
109
127
79
107
128
78
106
127
78
106
127
78
106
128
146
163
177
255
255
255
255
255
255
255
255
255
255
255
255
255
255
255
243
245
247
66
98
121
66
97
120
67
97
121
67
97
121
67
97
121
68
98
122
67
97
121
67
97
121
68
98
122
68
98
122
69
99
123
68
98
122
69
99
123
68
99
124
83
98
111
147
112
88
166
126
99
175
126
96
189
134
106
192
139
107
199
148
117
204
155
129
203
168
149
205
181
167
205
182
167
203
175
154
197
160
129
195
156
126
180
134
101
165
113
81
154
102
71
146
92
66
147
96
70
151
106
81
140
100
75
142
106
80
151
115
90
142
104
79
132
101
78
116
88
66
109
83
61
96
80
65
76
101
121
74
104
126
74
104
125
74
104
125
74
104
125
75
104
126
75
105
126
74
105
126
76
104
126
77
105
127
78
107
128
79
107
128
78
106
127
78
106
127
77
106
128
95
121
141
230
234
237
255
255
255
255
255
255
255
255
255
255
255
255
153
170
182
67
97
121
67
97
121
67
97
121
67
97
121
67
97
121
68
98
122
68
98
122
69
99
123
68
98
122
69
99
123
69
99
123
70
100
124
70
100
124
68
100
126
98
100
102
155
117
92
166
121
95
175
121
94
188
131
101
194
138
107
195
141
109
200
150
122
202
158
137
198
167
151
199
171
154
197
167
147
193
154
126
188
143
114
182
136
105
172
121
88
166
110
80
153
98
72
144
92
65
132
84
60
130
87
63
143
105
80
147
110
84
137
98
72
125
93
69
115
88
65
112
85
62
103
81
60
81
96
107
74
105
127
76
104
126
75
103
125
75
103
125
75
104
125
75
105
126
74
105
126
75
105
127
75
105
126
75
105
126
77
104
126
77
105
127
77
105
127
75
106
127
75
106
127
173
187
197
255
255
255
255
255
255
255
255
255
242
244
246
101
126
145
67
97
121
67
97
121
67
97
121
68
98
122
68
98
122
69
99
123
68
98
122
68
98
122
69
99
123
70
100
124
70
100
124
70
100
124
70
100
125
69
101
127
109
96
91
158
118
93
168
121
97
179
125
98
189
134
104
196
140
110
194
139
107
196
142
111
199
151
124
197
162
143
199
167
146
192
156
132
182
136
110
181
136
109
176
128
96
161
107
76
156
101
70
142
88
59
128
77
52
128
79
52
133
87
61
148
105
79
144
107
81
131
91
65
116
82
56
113
83
59
110
84
61
104
82
58
88
92
91
74
106
127
74
105
126
76
105
126
75
103
125
75
105
126
74
105
126
74
105
126
74
105
126
74
105
126
75
106
127
74
105
126
75
106
127
76
105
127
77
106
127
75
106
127
118
142
158
244
246
247
255
255
255
255
255
255
202
210
217
77
105
128
67
97
121
68
98
122
68
98
122
68
98
122
68
98
122
68
98
122
68
98
122
69
99
123
69
99
123
70
100
124
70
100
124
70
100
124
70
100
125
69
101
127
114
96
86
152
113
91
167
120
95
182
126
98
189
131
103
194
138
108
191
136
107
194
143
114
196
148
124
197
157
136
191
154
131
188
149
123
176
131
102
174
128
99
169
116
85
168
114
83
165
110
78
153
99
67
147
97
68
144
95
68
148
100
73
139
95
67
126
86
60
123
83
56
122
87
59
114
84
57
111
85
60
106
84
60
92
91
86
74
106
128
75
106
127
76
104
126
77
105
127
75
105
126
74
105
126
75
106
127
75
106
127
75
106
127
75
106
127
74
105
126
74
105
126
75
106
127
77
105
127
76
107
128
75
106
127
227
232
235
255
255
255
254
254
254
160
176
188
69
99
122
68
98
122
69
99
123
68
98
122
69
99
123
69
99
123
69
99
123
70
100
124
69
99
123
70
100
124
70
100
124
70
100
124
70
100
124
70
100
125
70
101
127
110
95
87
151
114
90
166
121
93
182
130
99
192
136
106
193
138
108
194
140
110
197
144
118
200
165
145
200
164
145
196
159
138
186
143
116
177
132
105
177
132
104
181
133
105
184
136
109
178
122
90
173
113
83
168
112
83
162
113
85
157
113
86
149
109
82
130
94
67
127
89
62
127
88
59
117
85
56
111
85
60
107
86
62
94
92
86
75
108
131
76
105
128
77
105
127
77
105
127
77
105
127
76
105
127
76
106
127
75
106
127
75
106
127
75
106
127
75
106
127
75
106
127
75
106
127
75
107
127
75
106
127
76
107
128
167
182
192
255
255
255
246
248
249
115
137
155
70
98
122
70
99
123
70
99
123
69
99
123
70
100
124
70
100
124
70
100
124
70
100
124
70
100
124
71
101
125
71
101
125
71
101
125
72
101
125
73
102
125
71
102
128
104
96
91
150
114
89
169
122
95
186
132
103
192
139
108
190
131
101
194
138
107
198
145
118
201
157
135
200
162
144
193
148
124
183
128
99
179
125
96
177
127
98
187
141
115
187
140
115
182
126
97
175
111
83
168
108
79
160
108
80
158
113
85
159
119
90
147
111
82
132
94
64
127
85
56
124
85
56
112
84
58
111
87
63
90
94
93
84
90
103
91
104
116
77
106
128
78
106
127
78
106
127
78
106
128
78
106
128
76
106
127
75
107
127
76
107
128
75
106
128
75
106
128
75
106
127
75
106
127
76
107
128
76
108
128
101
128
145
255
255
255
240
242
244
74
103
126
72
100
124
72
100
124
72
100
124
70
100
124
70
100
124
70
100
124
71
101
125
72
101
125
74
101
125
71
100
124
70
100
124
71
101
125
74
102
126
74
102
125
73
103
127
96
97
100
146
109
85
174
126
99
184
130
101
189
136
105
193
139
109
200
148
118
201
153
129
204
159
137
204
164
146
197
151
131
189
134
109
182
123
94
183
131
101
189
142
119
189
142
117
182
127
101
173
115
87
157
99
71
158
105
78
166
120
91
167
129
100
159
122
92
137
97
68
137
95
65
132
91
63
119
90
63
110
87
62
77
63
56
116
71
47
111
88
84
78
104
123
78
106
127
78
106
127
77
105
127
77
105
127
78
106
127
77
108
128
76
107
128
75
106
127
75
106
126
76
107
128
76
107
128
76
107
128
79
108
128
77
108
128
244
246
247
215
222
226
74
102
123
75
103
123
75
103
123
74
102
123
75
103
124
72
102
123
72
101
125
73
101
125
73
101
125
74
102
126
72
101
125
73
102
126
74
102
126
74
102
126
86
105
123
143
112
104
112
95
92
143
105
81
172
125
97
182
130
101
191
140
107
195
147
121
200
156
135
205
170
150
207
166
145
200
157
135
196
150
128
189
142
118
184
133
107
182
133
105
188
139
117
186
136
114
174
120
95
158
103
76
151
100
75
142
94
71
128
89
65
117
84
60
117
85
62
127
90
62
135
97
68
135
95
66
123
92
66
109
85
62
83
46
25
100
50
30
77
54
58
79
105
125
77
105
126
78
106
127
77
106
127
76
107
127
76
108
127
76
107
127
76
107
127
78
107
127
76
108
127
77
108
128
77
108
128
76
107
127
77
108
128
77
108
128
195
205
212
174
187
196
75
103
123
75
103
123
77
105
125
77
105
125
76
104
124
75
103
124
75
102
124
74
102
125
74
102
126
74
102
126
73
102
125
73
102
126
73
103
125
74
102
127
94
106
120
180
125
104
189
124
96
143
107
84
173
127
101
183
134
105
173
128
100
134
98
79
132
101
82
131
102
82
142
109
88
165
124
100
178
131
107
182
134
108
175
127
101
164
112
85
172
119
93
168
116
89
148
98
71
124
84
61
95
69
49
63
43
28
51
33
21
64
42
27
69
46
28
87
61
38
122
88
61
136
100
71
128
95
68
109
82
57
110
67
40
124
71
50
79
69
76
79
107
129
79
107
128
79
107
128
78
107
128
78
107
128
79
107
128
78
107
128
79
108
129
79
107
128
78
108
128
77
108
128
79
108
129
79
108
128
78
108
128
79
108
129
153
170
182
138
157
172
72
100
124
73
101
124
73
101
124
74
102
125
74
102
125
75
103
125
74
102
125
74
102
124
74
102
125
74
102
125
74
102
124
74
103
126
73
104
125
75
103
125
79
104
123
168
125
112
201
152
124
163
124
100
175
130
103
159
119
93
109
77
56
113
85
66
90
63
45
79
53
35
55
31
16
62
34
21
93
58
40
132
91
67
155
107
79
160
110
83
148
96
69
117
71
47
74
39
22
44
24
13
34
20
10
33
15
8
39
18
10
49
26
14
61
31
18
82
53
33
106
72
44
132
95
67
132
96
70
105
75
52
71
28
13
101
44
28
93
89
97
80
108
130
79
107
128
79
107
128
80
108
129
80
108
129
79
107
128
80
108
129
80
108
129
79
107
128
80
108
129
80
107
128
80
108
129
80
108
129
80
108
129
80
108
129
119
141
157
111
135
153
70
100
124
70
100
124
73
101
124
74
102
124
74
102
124
74
102
124
75
103
125
73
104
125
75
103
126
75
103
126
75
103
125
75
104
125
73
104
125
76
104
125
74
103
124
171
139
127
212
162
136
161
117
90
178
131
104
173
130
102
149
112
88
150
107
84
133
89
69
96
65
46
58
35
24
43
20
10
59
26
13
85
43
21
130
84
56
158
111
83
108
62
37
53
23
9
33
15
5
17
7
2
3
1
2
3
3
2
2
2
2
15
12
10
32
20
14
56
32
17
85
53
26
135
93
63
140
99
72
88
61
42
45
8
2
81
35
23
94
100
110
79
107
130
80
108
129
80
108
129
80
108
129
80
108
129
80
108
129
80
108
129
80
108
129
80
108
129
80
108
129
81
109
130
81
109
130
81
109
130
81
109
130
81
109
130
94
120
139
92
118
138
71
100
123
72
101
124
73
101
125
74
102
125
74
102
124
74
102
124
74
102
124
74
104
125
74
103
124
74
103
124
76
104
125
75
104
125
75
105
126
77
105
126
73
104
126
152
127
119
151
72
48
132
76
56
182
135
106
191
144
111
172
131
98
130
88
65
116
86
72
116
99
90
93
72
62
91
58
45
77
45
31
115
82
62
181
144
110
198
161
131
120
79
52
36
19
8
10
8
2
0
0
0
22
9
5
59
39
26
57
35
24
56
31
17
88
63
38
103
73
46
114
77
48
135
93
62
140
99
71
101
76
54
55
18
9
107
64
47
91
104
116
79
109
129
80
108
128
80
109
129
81
109
130
81
109
130
80
108
129
80
108
129
81
109
129
81
109
130
80
108
129
80
109
129
81
109
129
80
109
129
81
109
130
81
109
130
87
114
133
80
107
128
73
101
123
74
102
124
73
101
123
74
102
124
74
102
124
74
102
124
74
102
124
75
103
125
74
104
125
74
105
125
76
104
125
77
105
126
77
105
126
77
105
126
73
104
126
128
129
130
191
126
101
160
104
81
179
132
104
202
153
121
203
159
125
197
156
124
193
159
129
176
138
114
150
103
78
131
81
55
143
97
71
195
161
133
206
170
137
214
182
159
157
110
84
44
27
13
25
18
10
49
33
21
104
72
52
121
79
54
103
61
38
104
63
39
142
101
71
153
110
80
136
94
64
133
88
59
139
98
69
109
83
59
135
94
67
123
80
62
93
111
124
82
111
129
81
110
128
81
109
128
80
108
129
80
108
129
80
109
129
81
110
129
82
111
129
81
110
128
81
110
129
81
110
128
82
111
129
81
110
128
81
110
128
82
111
129
83
112
129
74
102
124
74
102
124
74
102
124
74
102
124
75
103
125
73
103
124
75
103
125
75
103
125
74
105
125
75
104
124
75
103
124
76
104
125
77
105
126
77
105
126
77
105
126
75
105
126
95
115
128
211
165
143
173
127
104
173
128
101
201
150
118
210
161
130
213
169
142
209
175
151
194
157
130
176
135
108
175
137
113
194
162
142
211
174
152
208
163
132
210
169
148
190
137
110
141
111
86
77
50
32
126
89
65
158
115
89
162
119
91
167
123
92
181
129
101
179
126
100
153
106
79
136
90
62
131
85
55
133
91
60
107
82
57
148
110
81
144
110
92
85
111
126
82
111
130
82
111
129
82
111
129
81
110
128
81
110
128
81
110
128
81
110
128
83
112
130
85
112
129
86
112
130
85
112
131
83
111
129
83
111
129
82
111
129
82
111
129
82
111
129
75
103
125
74
102
124
74
102
124
74
102
124
75
103
125
76
103
125
75
103
125
75
103
125
76
103
125
76
104
125
76
104
125
76
104
125
77
105
126
77
105
126
78
106
127
77
106
126
72
103
125
202
172
158
182
145
122
164
125
97
193
144
115
206
151
124
210
161
136
213
171
150
204
163
142
200
162
141
208
182
166
215
186
173
210
162
137
209
159
131
209
166
148
197
142
119
186
153
125
166
130
99
162
125
98
183
136
110
196
145
120
197
149
125
188
137
113
165
111
85
137
88
62
123
78
50
169
126
105
197
155
137
151
118
95
138
94
69
138
110
95
81
110
129
82
111
130
82
111
129
82
111
129
82
111
129
82
111
129
82
111
129
83
111
129
85
112
131
86
112
129
87
112
129
89
113
129
89
114
129
87
113
128
86
112
130
84
112
130
83
112
130
82
109
130
74
102
124
75
103
123
75
103
124
75
103
124
75
103
124
76
104
125
76
104
125
77
105
126
77
105
126
77
105
126
77
105
126
78
106
127
78
106
127
78
106
127
77
106
126
72
104
125
163
145
139
192
154
134
146
111
86
195
147
121
212
160
141
206
153
133
211
165
146
216
188
176
209
182
168
207
183
173
209
175
158
206
154
127
208
157
130
211
161
142
199
142
117
188
155
132
171
136
108
152
111
85
154
107
81
184
128
102
183
126
101
177
122
97
160
106
81
133
86
58
140
91
69
205
164
153
184
145
132
144
100
78
129
79
56
113
96
90
80
108
127
80
110
129
82
111
129
82
111
129
83
112
130
83
112
130
83
112
130
84
112
131
85
113
128
89
114
130
91
116
129
90
115
128
90
115
129
90
115
129
87
113
129
85
112
129
87
114
130
95
119
138
74
102
123
75
103
124
75
103
124
75
103
124
76
104
125
77
105
126
76
104
125
77
105
126
77
106
125
77
106
124
77
106
124
77
106
124
78
107
125
78
107
127
78
106
127
75
107
126
123
125
129
198
147
127
138
105
83
210
172
156
217
185
172
183
137
120
182
129
114
213
173
155
206
167
150
196
147
127
186
132
108
199
143
122
202
146
122
208
159
141
200
143
124
192
154
131
167
126
101
179
130
107
106
59
42
158
103
81
168
107
83
159
102
76
136
83
56
123
77
50
143
92
72
199
155
147
173
142
131
131
93
75
117
80
69
128
108
104
191
168
152
127
128
131
79
111
129
82
111
130
83
112
130
83
112
130
84
112
130
85
112
131
86
113
130
90
115
129
87
113
129
85
112
129
87
113
128
88
113
128
86
113
130
87
113
130
93
118
134
115
138
152
76
105
123
75
103
124
76
104
125
76
104
125
77
105
126
77
105
126
77
105
126
77
105
126
78
107
125
78
107
125
77
106
124
78
107
125
78
107
125
78
107
125
78
107
125
81
109
127
103
117
128
169
127
113
138
101
84
209
177
163
194
168
156
131
84
67
138
79
62
201
146
119
190
133
107
163
101
77
171
116
93
203
147
127
201
144
121
212
170
155
193
144
125
167
112
89
162
122
102
166
127
103
98
59
46
67
37
24
151
99
78
136
84
61
110
63
41
107
67
40
142
99
77
195
135
129
170
111
100
144
80
67
108
63
51
155
122
112
184
155
138
157
115
91
92
111
125
83
112
130
83
112
130
83
112
130
84
112
131
85
112
130
85
112
129
85
113
129
85
112
130
85
112
129
85
112
129
86
113
130
86
113
130
87
113
130
100
124
140
141
160
171
75
104
122
76
105
123
76
105
123
77
106
123
78
107
124
77
105
125
77
106
125
78
107
125
78
107
125
78
107
125
78
107
125
78
107
125
78
107
125
78
107
125
77
106
125
144
137
141
223
185
172
177
127
110
149
91
75
203
149
139
185
143
131
134
74
61
141
82
65
188
139
112
171
116
91
149
91
65
200
161
135
191
144
125
175
126
104
177
126
107
157
104
84
109
63
46
83
48
33
100
65
45
64
41
28
22
8
2
71
43
31
123
80
58
97
57
36
99
62
36
145
108
83
196
141
132
166
99
87
142
79
65
87
47
32
123
92
85
181
151
138
155
107
90
113
108
109
82
112
130
85
112
129
84
111
128
84
113
131
84
112
130
85
112
129
85
112
129
85
112
129
85
112
129
85
112
129
85
112
129
86
113
130
86
113
130
124
145
158
175
188
196
76
105
123
77
106
124
77
106
124
77
106
124
77
106
124
78
107
125
78
107
125
78
107
125
78
107
125
78
107
125
78
107
125
78
107
125
79
108
126
79
108
126
93
112
128
192
160
153
209
182
170
142
92
73
130
67
51
197
125
113
170
96
89
134
63
50
146
90
69
180
136
108
160
107
80
184
140
113
214
179
155
204
166
146
174
135
118
150
111
94
107
66
49
61
35
26
49
31
19
80
54
35
83
57
36
41
26
14
23
13
6
60
34
21
91
55
34
99
64
36
145
111
87
195
143
129
169
117
102
141
87
68
83
43
30
114
71
67
171
112
100
148
83
66
125
99
90
81
113
132
86
113
130
85
112
129
85
112
129
85
112
129
85
112
129
85
112
129
85
112
129
85
112
129
85
112
129
85
112
129
85
112
129
85
112
129
156
172
182
214
221
225
77
106
124
77
106
124
77
106
124
77
106
124
77
106
124
77
106
124
78
107
125
77
106
124
78
107
125
78
107
125
78
107
125
79
108
126
79
108
126
78
108
128
122
126
133
206
160
151
184
138
125
128
74
59
130
71
57
189
128
111
164
98
83
128
64
48
146
92
71
184
141
108
180
136
102
173
137
111
179
146
122
171
136
113
148
114
95
122
86
61
96
63
43
71
46
31
36
22
13
43
26
15
50
32
17
43
25
11
49
32
18
52
34
15
88
52
29
98
64
36
154
119
98
203
152
139
165
112
94
143
87
67
92
49
35
123
82
74
172
122
108
144
90
72
131
91
74
83
114
131
85
112
129
85
112
129
85
112
129
85
112
129
85
112
129
85
112
129
85
112
129
85
112
129
85
112
129
85
112
129
85
112
129
85
112
129
197
206
212
241
243
245
80
109
127
77
106
124
77
106
124
77
106
124
78
107
125
78
107
125
78
107
125
78
107
125
78
107
125
78
107
125
79
108
126
79
108
126
80
109
127
80
109
128
142
133
135
205
144
130
160
88
76
107
39
30
126
71
60
195
145
127
169
109
93
135
75
59
145
94
71
190
149
114
168
129
98
132
97
69
133
98
69
147
110
82
139
104
84
121
84
66
106
65
47
153
110
88
103
64
47
74
45
27
65
42
25
47
29
17
38
23
11
64
39
19
103
68
38
82
57
30
156
121
105
212
170
157
192
146
130
173
122
104
115
68
53
114
73
65
170
122
104
139
92
68
136
94
73
91
113
127
85
112
130
85
112
129
85
112
129
85
112
129
85
112
129
85
112
129
85
112
129
85
112
129
85
112
129
85
112
129
85
112
129
85
112
129
243
245
246
247
248
249
120
142
156
77
106
124
78
107
125
78
107
125
78
107
125
78
107
125
78
107
125
78
107
125
79
108
126
79
108
126
79
108
126
79
108
126
80
109
126
83
110
127
158
138
133
193
133
115
153
95
77
100
42
30
134
82
71
205
158
143
176
126
110
146
89
72
147
96
75
183
147
115
165
127
96
115
75
50
107
73
53
135
92
73
136
84
69
131
76
64
128
73
62
100
54
44
57
26
20
50
26
21
34
18
12
20
11
6
31
15
7
64
36
17
104
69
40
82
58
32
170
133
116
216
173
160
194
153
135
168
116
97
123
75
57
104
64
57
191
148
127
175
130
105
148
104
81
96
110
120
85
112
130
85
112
129
85
112
129
85
112
129
85
112
129
85
112
129
85
112
129
85
112
129
85
112
129
85
112
129
85
112
129
110
133
147
255
255
255
254
254
254
166
180
189
78
107
125
77
106
124
77
106
124
78
107
125
78
107
125
78
107
125
79
108
126
79
108
126
79
108
126
80
109
127
80
109
126
81
110
126
87
112
129
186
155
144
198
147
127
156
105
84
105
46
30
153
101
89
210
164
150
186
139
124
155
102
84
147
98
77
178
143
114
182
143
111
138
90
59
164
119
91
168
115
96
166
112
105
154
102
100
124
72
70
106
65
63
94
47
42
86
44
33
66
36
23
24
14
6
32
16
7
76
45
24
100
66
39
85
60
33
183
142
126
214
175
160
183
140
123
151
98
79
128
78
60
103
62
56
198
152
136
171
121
99
148
100
78
106
109
114
84
112
130
85
112
129
85
112
129
85
112
129
85
112
129
85
112
129
86
113
130
85
112
129
85
112
129
85
112
129
85
112
129
171
184
193
255
255
255
255
255
255
205
213
218
86
113
131
78
107
125
78
107
125
78
107
123
78
107
123
78
107
123
79
108
124
80
109
125
80
109
125
80
109
125
81
110
125
81
110
126
93
114
127
210
170
155
204
157
140
170
120
101
106
45
31
160
108
96
208
160
145
176
127
111
150
95
76
148
98
78
168
134
104
182
140
108
175
129
96
195
151
117
195
152
120
169
105
83
160
84
75
146
70
64
141
67
59
104
41
33
84
44
26
82
51
30
54
31
13
65
40
23
80
50
28
102
72
47
90
64
37
186
143
126
209
169
154
175
135
113
147
100
76
122
79
58
110
66
60
194
150
133
158
109
87
139
92
69
114
107
105
85
112
131
86
112
129
86
112
129
87
113
130
86
112
129
86
112
129
86
113
130
86
113
130
86
113
130
86
113
130
86
113
130
229
233
236
255
255
255
255
255
255
244
246
247
109
133
147
78
107
124
78
107
124
78
107
123
79
108
124
79
108
124
79
108
124
79
108
124
80
109
125
81
109
125
81
109
125
80
108
125
104
119
129
223
177
164
195
152
138
151
103
88
97
39
27
164
114
101
202
155
139
172
123
106
144
90
71
146
96
76
141
111
88
165
130
101
158
118
87
183
140
105
196
154
118
172
133
100
136
84
60
104
54
36
80
35
22
63
29
16
56
30
16
68
40
19
96
65
40
93
64
39
87
59
37
97
68
45
76
55
35
195
153
137
206
172
152
169
127
105
149
104
79
121
79
56
118
76
67
194
154
133
158
115
90
138
96
69
119
104
96
86
113
129
87
113
129
87
113
129
87
113
129
87
113
129
87
114
129
86
114
129
86
113
129
86
113
129
86
113
129
126
146
159
246
247
248
255
255
255
255
255
255
255
255
255
161
176
185
78
107
123
78
107
123
79
108
124
79
108
124
79
108
124
80
109
125
80
109
125
80
109
125
81
108
125
81
108
125
80
108
125
128
131
135
217
171
156
185
142
129
147
98
83
100
41
30
167
118
106
198
151
135
172
123
106
140
86
67
143
93
74
139
108
85
143
114
90
140
107
80
164
125
91
190
150
112
184
144
109
154
110
83
117
77
58
104
66
49
117
78
56
129
91
63
130
93
60
114
84
56
91
64
39
91
64
43
89
66
45
76
56
38
202
167
148
191
153
129
155
105
83
169
127
101
161
124
95
135
95
83
183
143
123
146
98
76
137
97
64
128
109
92
88
113
128
87
113
128
87
113
128
87
113
128
88
114
129
88
114
128
87
113
128
88
113
129
87
114
128
86
114
128
179
191
198
255
255
255
255
255
255
255
255
255
255
255
255
244
246
247
79
108
124
79
108
124
79
108
124
79
108
124
80
109
125
80
109
125
81
109
125
81
108
125
81
108
125
81
108
125
79
108
125
150
138
139
208
164
148
180
133
120
146
97
80
105
50
37
171
124
109
185
136
119
164
116
99
136
85
65
142
89
68
138
109
85
142
115
90
151
119
94
174
136
102
188
151
118
199
161
132
198
159
134
186
144
120
164
125
101
176
133
103
167
122
90
134
97
67
114
85
58
92
68
43
85
65
46
77
58
41
95
71
54
205
172
153
200
164
141
185
141
119
175
127
103
138
92
61
108
71
64
180
132
111
148
102
78
153
115
85
128
107
87
91
115
125
88
114
127
88
114
127
87
113
126
87
113
126
87
113
126
87
113
126
88
114
127
87
113
126
105
129
140
230
234
236
255
255
255
255
255
255
255
255
255
255
255
255
255
255
255
160
175
184
79
107
123
80
107
124
80
108
123
80
109
123
80
109
125
81
109
124
81
109
123
82
110
124
82
110
125
78
108
125
165
146
134
197
152
127
174
123
105
162
114
94
101
49
34
167
124
107
181
134
114
173
122
104
149
95
74
143
88
66
120
96
80
127
101
80
117
86
68
142
102
80
156
120
96
163
131
109
161
126
104
168
128
106
158
120
97
149
107
82
117
84
59
88
63
42
85
63
41
72
57
41
61
48
35
72
58
45
80
63
49
199
157
142
207
164
149
181
126
106
154
95
72
114
69
45
91
54
50
184
132
113
156
100
79
150
98
74
132
107
88
92
114
124
88
114
127
88
114
127
88
114
127
87
113
126
87
113
126
87
113
126
87
113
126
88
114
127
153
169
177
255
255
255
255
255
255
255
255
255
255
255
255
255
255
255
255
255
255
248
249
249
96
122
135
81
109
123
81
109
123
81
109
123
81
109
123
81
109
123
82
110
124
81
109
123
81
109
125
78
109
123
171
149
135
184
135
110
161
106
86
138
83
65
83
35
23
155
108
94
176
119
99
162
104
87
127
70
51
136
82
63
120
100
85
77
51
43
56
22
15
87
42
30
143
92
73
150
115
95
126
98
81
114
79
59
122
89
70
103
74
55
78
59
43
62
48
35
62
50
38
50
41
31
93
70
57
94
73
58
84
55
37
195
150
130
208
163
147
180
125
107
154
95
72
117
70
48
90
56
50
196
146
127
163
104
85
144
89
69
124
93
79
93
114
124
88
114
127
88
114
127
88
114
127
88
114
127
88
114
127
88
114
127
88
114
127
95
120
133
243
245
246
255
255
255
255
255
255
255
255
255
255
255
255
255
255
255
255
255
255
255
255
255
193
203
208
81
109
121
81
109
121
81
109
121
81
109
123
82
110
123
81
109
121
82
110
122
81
110
122
79
109
123
171
142
128
188
130
109
162
104
86
114
59
44
74
22
13
156
107
92
188
131
113
157
98
80
117
60
43
104
57
40
189
155
131
37
10
7
35
15
10
45
19
13
105
60
48
145
106
87
95
77
62
81
59
44
76
55
43
74
57
47
62
53
43
43
40
32
36
31
24
140
108
95
203
158
139
199
154
133
151
107
84
191
146
124
210
169
151
183
134
111
152
95
70
122
74
52
84
48
42
191
138
121
157
98
81
133
77
58
120
88
74
95
118
128
90
117
131
87
115
128
88
114
127
89
115
128
89
115
128
89
115
128
89
115
128
195
204
209
255
255
255
255
255
255
255
255
255
255
255
255
255
255
255
255
255
255
255
255
255
255
255
255
245
247
248
129
149
158
81
109
121
81
109
121
81
109
121
81
109
121
82
110
122
82
110
122
82
111
122
79
109
123
162
131
120
179
115
92
155
92
73
114
57
41
80
24
15
154
102
88
180
120
99
145
84
66
98
48
32
92
51
39
134
97
76
28
6
3
26
9
5
94
62
52
127
82
67
121
70
57
120
72
59
145
101
85
109
84
69
59
48
41
43
37
32
43
38
31
90
72
60
186
149
131
188
147
130
177
127
112
168
118
102
196
153
132
209
174
151
177
129
105
144
89
63
114
65
43
85
49
44
191
141
121
149
93
74
129
77
56
102
62
44
59
42
45
71
71
79
89
104
114
89
113
126
89
115
128
89
115
128
89
115
129
133
152
162
255
255
255
255
255
255
255
255
255
255
255
255
255
255
255
255
255
255
255
255
255
255
255
255
255
255
255
255
255
255
217
223
226
92
116
128
80
109
122
81
110
121
81
109
122
82
108
121
83
106
121
82
102
119
76
93
114
149
119
113
173
110
87
150
87
68
107
52
34
78
25
15
149
98
83
172
113
92
144
88
68
87
43
27
76
41
30
91
63
51
40
18
9
80
58
41
127
100
85
119
80
63
99
41
29
166
112
101
209
162
148
178
124
109
111
77
62
81
58
48
92
65
53
112
86
62
98
84
60
93
75
57
136
99
81
138
83
66
201
157
140
208
169
150
186
132
112
157
100
75
122
74
53
105
65
60
188
139
123
152
101
80
129
78
55
120
77
58
78
51
50
35
17
18
39
23
23
84
77
82
91
102
112
89
106
118
104
125
137
226
231
233
255
255
255
255
255
255
255
255
255
255
255
255
255
255
255
255
255
255
255
255
255
255
255
255
255
255
255
255
255
255
255
255
255
203
204
206
107
111
117
78
98
123
93
109
133
99
113
137
98
109
135
94
105
130
88
101
125
155
125
118
174
113
88
149
89
70
122
67
48
89
36
23
153
102
86
170
112
91
141
83
65
88
45
29
61
29
22
21
15
12
39
20
14
134
98
80
108
78
60
107
62
38
107
51
37
188
149
140
190
136
127
149
83
70
113
52
37
154
108
93
190
141
124
153
107
75
158
113
86
184
139
119
194
142
123
178
122
107
212
172
155
208
166
150
195
140
121
170
111
87
137
84
60
138
93
82
187
137
120
167
115
95
156
104
81
137
93
71
94
62
60
49
31
32
33
19
19
82
55
56
106
79
79
71
54
59
183
182
185
255
255
255
255
255
255
255
255
255
255
255
255
255
255
255
255
255
255
255
255
255
255
255
255
255
255
255
255
255
255
255
255
255
255
255
255
255
255
255
215
192
183
93
82
94
68
78
107
81
92
118
97
107
134
102
112
138
104
115
138
205
176
162
184
127
102
167
108
88
150
94
76
104
48
36
164
113
96
186
127
104
157
96
78
105
58
42
65
31
22
27
15
13
85
53
40
170
121
103
136
93
76
86
46
33
63
29
25
187
146
134
182
127
114
131
70
59
110
50
38
186
133
116
203
147
128
203
145
118
209
166
145
206
160
141
194
147
125
202
155
138
215
179
162
207
166
152
196
141
125
168
108
85
153
98
72
182
135
114
187
136
117
177
123
103
161
107
84
143
98
74
95
65
60
35
22
22
59
39
41
128
102
105
118
91
93
156
144
145
255
255
255
255
255
255
255
255
255
255
255
255
255
255
255
255
255
255
255
255
255
255
255
255
255
255
255
255
255
255
255
255
255
255
255
255
255
255
255
255
255
255
255
254
254
197
167
157
94
83
98
81
87
113
78
86
112
101
109
131
207
213
220
212
180
165
197
138
116
185
123
106
160
100
82
134
75
61
193
140
117
194
133
111
171
109
93
128
73
58
83
45
33
63
32
25
163
118
101
160
108
90
139
93
77
84
41
31
90
57
53
202
153
142
171
112
99
112
49
37
147
95
83
203
150
133
189
128
113
189
128
114
212
168
150
207
156
139
199
147
128
205
159
140
212
171
155
203
154
140
197
140
124
165
105
83
154
96
75
175
124
102
186
135
116
180
123
105
150
93
74
133
92
68
150
140
135
86
82
85
186
182
185
237
237
238
202
193
193
255
255
255
255
255
255
255
255
255
255
255
255
255
255
255
255
255
255
255
255
255
255
255
255
255
255
255
255
255
255
255
255
255
255
255
255
255
255
255
255
255
255
255
255
255
255
255
255
254
249
247
200
168
156
174
163
165
154
162
176
203
208
215
248
253
255
204
167
148
200
144
122
186
122
107
170
107
90
170
112
93
195
138
114
192
127
109
174
108
96
142
81
69
123
74
61
136
90
76
170
119
103
146
95
79
143
96
80
89
46
36
97
61
57
197
141
129
155
91
77
114
52
39
188
142
127
207
157
140
194
138
123
199
149
133
208
161
146
207
150
135
202
150
132
203
157
137
204
163
145
196
142
129
193
132
118
158
97
75
147
93
72
159
107
86
171
117
98
162
100
84
134
77
56
126
81
57
143
136
139
200
205
212
241
245
247
246
246
248
255
255
255
255
255
255
255
255
255
255
255
255
255
255
255
255
255
255
255
255
255
255
255
255
255
255
255
255
255
255
255
255
255
255
255
255
255
255
255
255
255
255
255
255
255
255
255
255
255
255
255
255
255
255
255
254
253
210
177
166
189
172
171
202
210
220
233
229
230
200
157
130
190
134
110
172
107
90
166
103
85
175
113
93
187
127
102
191
126
108
175
105
95
146
80
70
147
92
79
150
98
84
143
87
75
135
81
69
147
99
83
117
72
60
123
77
70
177
119
104
141
75
61
123
60
46
218
174
157
208
158
143
209
163
147
214
173
156
212
169
153
211
158
143
208
160
137
192
148
126
188
144
124
182
121
108
178
112
98
145
80
60
133
82
60
128
76
56
134
79
61
103
48
33
96
47
28
111
64
38
178
158
150
235
239
245
242
244
245
254
255
255
255
255
255
255
255
255
255
255
255
255
255
255
255
255
255
255
255
255
255
255
255
255
255
255
255
255
255
255
255
255
255
255
255
255
255
255
255
255
255
255
255
255
255
255
255
255
255
255
255
255
255
255
255
255
255
255
255
255
255
255
218
188
179
211
182
175
219
183
171
195
149
119
173
115
90
158
89
72
167
101
82
180
121
99
183
120
98
181
115
99
151
77
65
133
67
53
155
98
82
152
103
86
127
70
57
139
82
70
148
99
85
132
85
75
130
82
71
139
83
72
126
64
48
138
74
62
223
179
162
214
166
152
216
172
156
212
172
156
208
160
144
207
153
136
190
140
117
169
122
102
159
111
94
148
85
71
140
74
58
102
48
32
89
47
27
77
40
23
72
35
21
47
17
6
50
21
9
93
50
27
140
94
69
195
177
168
255
255
255
255
255
255
255
255
255
255
255
255
255
255
255
255
255
255
255
255
255
255
255
255
255
255
255
255
255
255
255
255
255
255
255
255
255
255
255
255
255
255
255
255
255
255
255
255
255
255
255
255
255
255
255
255
255
255
255
255
255
255
255
255
255
255
255
255
255
243
226
221
217
177
160
195
146
118
171
114
85
161
95
75
178
116
94
180
120
96
170
106
85
164
95
79
118
51
37
129
71
55
161
105
86
135
83
64
92
42
30
119
68
56
125
78
64
110
66
55
100
50
42
106
50
41
116
49
35
148
87
73
217
170
154
216
173
156
203
159
141
186
135
117
191
138
117
172
115
95
153
97
76
132
85
64
102
61
43
85
39
24
93
44
28
40
14
5
27
12
3
30
15
4
23
9
2
31
14
5
34
15
5
99
61
41
202
183
173
255
255
255
255
255
255
255
255
255
255
255
255
255
255
255
255
255
255
255
255
255
255
255
255
255
255
255
255
255
255
255
255
255
255
255
255
255
255
255
255
255
255
255
255
255
255
255
255
255
255
255
255
255
255
255
255
255
255
255
255
255
255
255
255
255
255
255
255
255
255
255
255
255
255
255
247
239
235
211
172
155
177
119
94
173
109
87
183
126
100
156
99
73
147
82
61
142
74
57
107
48
32
132
75
58
131
76
56
96
53
36
44
15
7
97
56
42
109
65
49
82
41
28
68
26
17
92
39
28
106
36
24
165
110
96
210
162
143
190
138
118
170
115
95
162
110
89
162
108
84
126
73
52
135
87
64
101
61
40
66
33
18
54
26
11
71
37
22
24
10
3
16
7
1
22
13
4
27
13
4
39
20
8
93
79
71
224
218
214
255
255
255
255
255
255
255
255
255
255
255
255
255
255
255
255
255
255
255
255
255
255
255
255
255
255
255
255
255
255
255
255
255
255
255
255
255
255
255
255
255
255
255
255
255
255
255
255
255
255
255
255
255
255
255
255
255
255
255
255
255
255
255
255
255
255
255
255
255
255
255
255
255
255
255
255
255
255
255
255
255
254
252
252
228
206
196
190
137
111
149
94
67
125
73
46
130
71
46
146
87
66
119
57
39
117
64
43
112
63
39
77
40
23
41
18
10
116
75
59
96
58
40
53
23
13
41
14
8
62
22
14
80
24
13
166
119
103
202
155
135
175
124
102
151
99
78
144
97
71
132
79
54
121
74
50
130
89
64
75
40
20
43
19
7
29
13
5
42
21
9
20
9
1
25
15
4
19
8
1
50
31
19
181
172
167
255
255
255
255
255
255
255
255
255
255
255
255
255
255
255
255
255
255
255
255
255
255
255
255
255
255
255
255
255
255
255
255
255
255
255
255
255
255
255
255
255
255
255
255
255
255
255
255
255
255
255
255
255
255
255
255
255
255
255
255
255
255
255
255
255
255
255
255
255
255
255
255
255
255
255
255
255
255
255
255
255
255
255
255
255
255
255
255
255
255
255
255
255
246
242
240
168
134
119
143
96
72
134
81
54
149
94
68
129
71
50
124
71
48
147
97
71
91
52
33
72
40
27
119
77
58
63
32
20
45
20
11
34
11
6
49
17
9
66
21
11
155
114
98
189
143
119
166
118
94
149
100
76
138
94
66
125
81
54
118
75
50
101
65
41
67
35
15
42
20
7
23
12
4
37
17
7
34
17
8
55
41
35
107
103
100
237
237
237
255
255
255
255
255
255
255
255
255
255
255
255
255
255
255
255
255
255
255
255
255
255
255
255
255
255
255
255
255
255
255
255
255
255
255
255
255
255
255
255
255
255
255
255
255
255
255
255
255
255
255
255
255
255
255
255
255
255
255
255
255
255
255
255
255
255
255
255
255
255
255
255
255
255
255
255
255
255
255
255
255
255
255
255
255
255
255
255
255
255
255
255
255
255
255
255
255
255
255
255
255
255
239
232
228
202
177
165
173
133
112
118
67
44
123
75
51
122
73
49
81
46
28
68
38
23
74
42
26
49
25
12
44
22
10
42
19
10
56
22
13
51
18
10
154
117
102
183
137
113
157
109
84
146
98
72
137
93
66
125
84
56
101
66
42
70
40
21
81
48
25
48
26
11
16
7
2
90
74
65
159
149
144
221
219
217
255
255
255
255
255
255
255
255
255
255
255
255
255
255
255
255
255
255
255
255
255
255
255
255
255
255
255
255
255
255
255
255
255
255
255
255
255
255
255
255
255
255
255
255
255
255
255
255
255
255
255
255
255
255
255
255
255
255
255
255
255
255
255
255
255
255
255
255
255
255
255
255
255
255
255
255
255
255
255
255
255
255
255
255
255
255
255
255
255
255
255
255
255
255
255
255
255
255
255
255
255
255
255
255
255
255
255
255
255
255
255
255
255
255
249
246
244
233
226
222
186
164
153
113
78
61
84
48
29
61
34
18
46
25
12
56
33
18
54
27
16
51
25
14
55
23
13
38
14
7
146
115
98
170
124
100
153
105
81
144
98
70
136
93
66
117
79
52
55
30
12
62
35
17
122
92
71
150
140
133
218
217
216
243
242
241
255
255
255
255
255
255
255
255
255
255
255
255
255
255
255
255
255
255
255
255
255
255
255
255
255
255
255
255
255
255
255
255
255
255
255
255
255
255
255
255
255
255
255
255
255
255
255
255
255
255
255
255
255
255
255
255
255
255
255
255
255
255
255
255
255
255
255
255
255
255
255
255
255
255
255
255
255
255
255
255
255
255
255
255
255
255
255
255
255
255
255
255
255
255
255
255
255
255
255
255
255
255
255
255
255
255
255
255
255
255
255
255
255
255
255
255
255
255
255
255
255
255
255
255
255
255
255
255
255
255
255
255
247
245
244
186
178
173
130
120
115
104
83
73
73
49
37
57
33
21
52
25
13
46
27
20
181
157
140
172
129
104
155
110
87
146
107
81
165
132
111
170
148
133
186
178
172
240
238
237
255
255
255
255
255
255
255
255
255
255
255
255
255
255
255
255
255
255
255
255
255
255
255
255
255
255
255
255
255
255
255
255
255
255
255
255
255
255
255
255
255
255
255
255
255
255
255
255
255
255
255
255
255
255
255
255
255
255
255
255
255
255
255
255
255
255
255
255
255
255
255
255
