P3
64 64
255
255
255
255
255
255
255
255
255
255
255
255
255
255
255
255
255
255
255
255
255
255
255
255
255
255
255
255
255
255
255
255
255
255
255
255
255
255
255
255
255
255
255
255
255
255
255
255
255
255
255
255
255
255
255
255
255
255
255
255
255
255
255
255
255
255
255
255
255
255
255
255
255
244
243
241
230
228
222
218
215
205
203
198
183
188
183
165
175
170
148
158
153
132
145
140
123
137
133
118
138
135
119
146
144
129
159
156
144
176
174
166
198
196
191
219
218
215
240
239
238
255
255
255
255
255
255
255
255
255
255
255
255
255
255
255
255
255
255
255
255
255
255
255
255
255
255
255
255
255
255
255
255
255
255
255
255
255
255
255
255
255
255
255
255
255
255
255
255
255
255
255
255
255
255
255
255
255
255
255
255
255
255
255
255
255
255
255
255
255
255
255
255
255
255
255
255
255
255
255
255
255
255
255
255
255
255
255
255
255
255
255
255
255
255
255
255
255
255
255
255
255
255
255
255
255
255
255
255
255
255
255
255
255
255
255
255
255
255
255
255
255
255
255
255
255
255
255
255
255
255
255
255
254
254
253
244
243
241
206
201
192
168
161
139
171
165
142
175
169
145
176
169
146
172
164
142
165
156
137
156
150
129
145
140
119
137
131
117
132
129
113
133
130
112
133
130
113
133
130
111
132
129
113
131
127
117
130
126
115
129
125
114
129
126
115
189
187
181
240
240
238
253
253
253
255
255
255
255
255
255
255
255
255
255
255
255
255
255
255
255
255
255
255
255
255
255
255
255
255
255
255
255
255
255
255
255
255
255
255
255
255
255
255
255
255
255
255
255
255
255
255
255
255
255
255
255
255
255
255
255
255
255
255
255
255
255
255
255
255
255
255
255
255
255
255
255
255
255
255
255
255
255
255
255
255
255
255
255
255
255
255
255
255
255
255
255
255
255
255
255
255
255
255
255
255
255
255
255
255
255
255
255
255
255
255
255
255
255
255
255
255
208
206
198
155
146
130
164
155
137
168
161
138
175
168
140
177
171
144
176
168
145
175
167
147
166
158
139
156
147
131
146
137
125
138
132
116
134
131
115
133
131
114
133
131
113
131
128
111
131
128
110
130
126
113
130
126
115
129
125
114
129
125
114
129
125
114
127
123
112
127
123
112
130
126
115
198
196
191
255
255
255
255
255
255
255
255
255
255
255
255
255
255
255
255
255
255
255
255
255
255
255
255
255
255
255
255
255
255
255
255
255
255
255
255
255
255
255
255
255
255
255
255
255
255
255
255
255
255
255
255
255
255
255
255
255
255
255
255
255
255
255
255
255
255
255
255
255
255
255
255
255
255
255
255
255
255
255
255
255
255
255
255
255
255
255
255
255
255
255
255
255
255
255
255
255
255
255
255
255
255
255
255
255
255
255
255
188
183
170
160
152
135
161
154
134
168
159
140
173
163
143
176
168
143
182
174
149
186
178
155
168
159
139
132
123
107
117
107
93
102
91
80
97
87
78
98
90
78
111
107
95
128
125
113
129
127
113
129
126
113
129
126
113
129
125
113
129
125
113
127
123
112
128
124
113
127
123
112
126
122
111
124
120
109
123
119
108
122
118
107
130
126
115
174
172
166
255
255
255
255
255
255
255
255
255
255
255
255
255
255
255
255
255
255
255
255
255
255
255
255
255
255
255
255
255
255
255
255
255
255
255
255
255
255
255
255
255
255
255
255
255
255
255
255
255
255
255
255
255
255
255
255
255
255
255
255
255
255
255
255
255
255
255
255
255
255
255
255
255
255
255
255
255
255
255
255
255
255
255
255
255
255
255
255
255
255
255
255
255
255
255
255
211
208
199
156
150
129
159
153
131
166
160
138
172
166
144
173
168
148
176
172
155
147
141
125
102
96
86
64
61
57
45
42
37
42
39
39
40
38
39
40
39
39
38
38
38
39
39
38
42
42
41
54
54
54
74
75
72
105
106
104
121
122
116
128
125
115
128
123
111
126
122
111
126
122
112
126
122
111
123
119
108
123
119
108
123
119
108
122
118
107
122
118
107
121
118
108
125
122
113
196
195
191
255
255
255
255
255
255
255
255
255
255
255
255
255
255
255
255
255
255
255
255
255
255
255
255
255
255
255
255
255
255
255
255
255
255
255
255
255
255
255
255
255
255
255
255
255
255
255
255
255
255
255
255
255
255
255
255
255
255
255
255
255
255
255
255
255
255
255
255
255
255
255
255
255
255
255
255
255
255
255
255
255
255
255
255
244
244
242
176
170
156
160
154
133
165
159
137
171
165
143
176
170
148
179
173
152
150
145
132
76
75
71
43
42
41
42
41
44
36
39
43
32
37
40
34
36
38
34
35
37
33
34
37
31
33
37
32
34
38
31
33
35
32
35
37
34
37
35
42
44
42
69
71
67
106
105
100
123
120
110
124
120
109
125
121
111
123
119
108
123
119
108
122
118
107
122
118
107
122
118
107
122
118
107
121
118
108
119
116
107
119
116
107
142
139
132
240
239
238
255
255
255
255
255
255
255
255
255
255
255
255
255
255
255
255
255
255
255
255
255
255
255
255
255
255
255
255
255
255
255
255
255
255
255
255
255
255
255
255
255
255
255
255
255
255
255
255
255
255
255
255
255
255
255
255
255
255
255
255
255
255
255
255
255
255
255
255
255
255
255
255
255
255
255
231
229
223
168
162
141
171
164
145
174
167
145
179
171
149
179
173
153
179
177
151
118
115
103
48
48
48
40
41
41
35
38
40
31
35
36
32
34
38
33
34
39
33
34
37
32
33
37
32
33
37
33
33
37
33
33
37
32
32
36
32
32
36
31
34
35
32
34
36
38
39
40
48
49
49
88
87
83
120
118
105
123
119
105
123
118
108
123
117
107
122
118
107
122
118
107
122
118
107
122
118
107
120
117
106
119
117
106
119
116
107
119
116
105
119
117
105
215
215
211
255
255
255
255
255
255
255
255
255
255
255
255
255
255
255
255
255
255
255
255
255
255
255
255
255
255
255
255
255
255
255
255
255
255
255
255
255
255
255
255
255
255
255
255
255
255
255
255
255
255
255
255
255
255
255
255
255
255
255
255
255
255
255
255
255
255
255
255
255
203
198
186
176
169
150
179
172
151
182
174
155
183
175
153
186
178
155
181
178
152
108
106
87
50
48
45
38
40
43
36
38
41
31
36
40
31
36
39
33
34
40
33
34
39
33
34
38
32
33
37
32
33
37
32
33
37
32
33
37
32
33
37
32
33
37
30
34
35
31
35
36
34
35
37
37
37
39
42
42
41
74
71
66
115
111
102
121
116
106
123
115
105
122
118
107
122
118
107
121
117
106
120
116
105
119
116
105
118
116
105
117
114
105
119
117
105
120
118
106
118
116
104
171
169
162
255
255
255
255
255
255
255
255
255
255
255
255
255
255
255
255
255
255
255
255
255
255
255
255
255
255
255
255
255
255
255
255
255
255
255
255
255
255
255
255
255
255
255
255
255
255
255
255
255
255
255
255
255
255
255
255
255
255
255
255
255
255
255
196
191
177
179
169
151
181
173
153
184
176
155
187
178
158
188
181
156
184
179
152
113
110
97
52
50
49
40
40
42
36
39
44
35
38
43
33
38
44
33
37
44
34
37
42
34
35
41
33
34
39
32
34
38
32
34
38
32
34
38
32
34
38
33
34
38
33
34
38
32
34
35
31
34
35
32
33
35
32
33
35
35
35
37
42
42
41
73
72
69
111
108
98
120
114
102
121
117
106
120
116
105
118
116
104
119
116
104
118
115
104
116
114
102
115
113
103
116
114
102
118
116
104
118
116
104
117
115
103
153
151
142
255
255
255
255
255
255
255
255
255
255
255
255
255
255
255
255
255
255
255
255
255
255
255
255
255
255
255
255
255
255
255
255
255
255
255
255
255
255
255
255
255
255
255
255
255
255
255
255
255
255
255
255
255
255
255
255
255
196
190
177
177
170
152
179
171
152
182
174
152
185
177
156
188
180
157
185
181
156
140
137
118
56
54
52
43
42
51
37
39
46
36
39
44
35
38
43
36
39
46
36
39
46
35
37
44
36
35
44
34
35
42
32
35
40
32
35
39
31
35
38
31
35
38
33
34
38
33
34
38
33
34
35
32
33
35
32
33
35
33
33
35
33
34
35
34
34
36
41
41
43
75
72
69
110
107
97
119
116
103
119
115
102
116
114
102
116
114
102
116
114
102
116
113
101
115
112
101
115
113
101
116
114
102
116
114
102
117
115
103
117
115
103
149
148
139
255
255
255
255
255
255
255
255
255
255
255
255
255
255
255
255
255
255
255
255
255
255
255
255
255
255
255
255
255
255
255
255
255
255
255
255
255
255
255
255
255
255
255
255
255
255
255
255
255
255
255
193
187
178
174
167
152
175
168
153
179
170
153
182
173
155
185
177
156
188
180
157
170
166
146
82
79
75
47
47
51
43
44
54
38
40
50
36
41
45
35
40
44
37
40
47
37
40
47
36
39
46
36
36
44
35
36
45
33
36
43
33
36
41
31
34
39
31
34
39
33
34
38
32
34
38
33
34
36
32
33
36
32
33
35
33
33
35
34
34
35
34
34
36
35
36
37
41
40
42
75
73
69
109
105
96
118
114
104
116
113
102
115
113
101
116
113
101
116
112
101
116
112
101
114
112
100
114
112
101
115
113
101
115
113
101
115
113
101
115
112
101
159
157
151
255
255
255
255
255
255
255
255
255
255
255
255
255
255
255
255
255
255
255
255
255
255
255
255
255
255
255
255
255
255
255
255
255
255
255
255
255
255
255
255
255
255
255
255
255
195
192
188
162
157
151
165
160
151
171
164
153
173
166
152
178
169
155
182
174
154
183
175
154
129
125
117
53
55
56
42
46
53
41
45
54
41
43
55
39
43
52
37
42
48
38
41
48
36
39
46
36
39
46
38
38
46
36
37
43
34
38
42
34
38
41
33
37
40
31
35
38
31
35
38
30
34
37
33
34
38
33
34
38
33
34
36
32
33
35
32
34
34
32
34
33
32
34
33
35
37
36
40
42
41
64
64
62
90
85
81
109
105
99
112
109
101
114
112
99
116
113
99
116
113
99
114
111
102
111
108
99
111
108
99
113
110
101
113
110
101
113
110
101
112
109
102
178
176
172
255
255
255
255
255
255
255
255
255
255
255
255
255
255
255
255
255
255
255
255
255
255
255
255
255
255
255
255
255
255
255
255
255
255
255
255
255
255
255
230
228
229
159
155
153
159
156
151
160
156
151
161
156
151
164
159
152
169
162
153
174
168
154
167
160
146
85
84
78
47
51
56
39
49
58
40
48
57
41
44
55
40
44
55
39
43
52
40
43
52
38
41
50
37
40
47
38
38
46
36
37
43
34
38
42
34
38
41
33
37
40
33
37
40
31
35
38
30
34
37
33
34
38
33
34
38
33
34
38
32
33
37
32
33
36
31
32
35
31
32
35
33
34
37
37
38
40
40
42
45
62
61
60
79
79
75
88
87
81
105
101
96
113
110
102
114
111
100
112
109
100
110
107
98
111
108
99
112
109
100
111
108
99
110
107
98
111
108
99
112
109
100
197
196
192
255
255
255
255
255
255
255
255
255
255
255
255
255
255
255
255
255
255
255
255
255
255
255
255
255
255
255
255
255
255
255
255
255
246
246
247
166
166
169
167
166
167
165
161
159
160
155
152
156
152
150
155
152
149
159
153
149
159
154
148
137
133
127
62
62
67
47
53
61
45
49
60
42
47
55
42
47
55
39
45
54
39
46
54
40
44
53
39
44
50
37
41
47
36
41
47
35
39
47
34
38
46
34
38
44
34
37
42
33
38
40
32
37
38
33
36
38
32
37
38
32
36
38
34
36
39
30
34
37
29
33
37
31
33
36
33
33
34
32
34
34
32
34
33
34
37
36
41
43
42
66
68
67
80
82
81
82
82
81
89
87
84
101
100
95
111
109
101
111
109
100
110
109
100
109
109
99
110
107
98
109
106
97
110
107
98
109
106
97
109
106
97
247
247
247
255
255
255
255
255
255
255
255
255
255
255
255
255
255
255
255
255
255
255
255
255
255
255
255
255
255
255
255
255
255
118
124
137
109
115
130
140
145
156
157
161
167
160
161
164
160
158
159
154
155
155
154
153
151
153
152
149
115
114
111
56
57
69
45
53
64
46
51
62
46
50
58
43
48
57
40
47
57
39
46
57
41
45
55
39
43
52
37
42
48
36
41
47
35
42
48
35
39
47
36
38
46
33
39
43
41
40
46
54
49
50
58
53
54
60
52
55
61
51
54
59
49
51
48
46
48
41
40
42
36
37
37
33
34
36
32
34
33
32
34
33
32
34
33
36
38
37
44
46
45
69
71
70
82
83
82
83
82
81
82
83
79
88
87
82
107
107
100
110
110
100
110
110
100
110
107
98
108
104
96
108
104
96
107
104
95
106
104
94
122
122
113
255
255
255
255
255
255
255
255
255
255
255
255
255
255
255
255
255
255
255
255
255
255
255
255
255
255
255
191
196
206
88
100
122
80
88
108
74
82
101
87
94
113
120
125
142
143
145
158
151
153
158
152
152
155
151
150
153
105
104
108
51
56
68
48
54
68
47
53
66
46
52
63
44
51
61
41
48
57
41
48
58
40
46
56
39
46
56
39
44
52
37
42
50
39
42
51
39
43
48
52
48
54
76
69
70
95
81
81
103
82
78
106
79
77
101
76
72
98
75
71
95
71
69
84
68
64
74
60
59
64
52
52
52
47
46
40
39
38
35
35
35
32
34
33
33
35
34
36
38
37
47
49
48
74
75
74
81
81
82
81
81
80
76
77
73
99
99
92
108
108
98
108
108
98
107
106
95
106
106
94
107
104
95
107
104
95
107
104
95
105
105
95
207
207
205
255
255
255
255
255
255
255
255
255
255
255
255
255
255
255
255
255
255
255
255
255
255
255
255
94
103
123
88
98
120
105
113
133
99
107
128
80
88
110
69
75
96
78
82
99
107
111
122
138
141
149
141
143
150
98
100
110
54
58
73
49
55
72
48
54
68
47
54
65
46
52
63
43
49
61
42
49
58
40
47
57
39
47
57
40
44
53
39
43
52
46
48
57
70
62
68
91
77
78
116
87
83
120
91
82
122
87
83
122
85
78
117
82
73
114
80
71
110
76
70
99
71
67
87
67
62
83
63
57
77
61
58
63
56
53
53
50
48
40
36
36
33
32
31
34
35
34
34
36
35
49
50
49
73
73
73
79
79
79
76
76
74
83
82
76
104
104
94
109
109
99
107
107
95
106
106
94
107
105
95
107
104
95
107
104
95
105
105
95
105
105
97
247
247
246
255
255
255
255
255
255
255
255
255
255
255
255
255
255
255
255
255
255
253
254
254
229
231
238
141
148
168
89
93
119
79
87
112
95
105
130
88
97
119
78
83
104
67
75
93
74
80
98
112
120
134
92
100
115
54
60
79
51
59
75
50
57
76
47
54
70
47
53
70
45
51
66
43
50
63
40
48
56
39
48
56
41
48
57
49
53
63
71
62
69
100
80
79
116
89
88
130
92
89
138
95
90
138
95
87
136
92
86
131
91
83
128
89
81
115
87
78
98
77
73
84
71
65
75
66
57
73
64
56
69
59
54
65
60
56
60
54
52
50
46
44
34
34
32
31
33
32
33
35
34
51
51
51
76
76
76
75
75
75
80
79
76
93
93
86
107
107
96
108
108
96
108
108
96
108
106
96
107
104
95
107
104
95
105
103
94
104
103
94
184
184
180
255
255
255
255
255
255
255
255
255
255
255
255
255
255
255
255
255
255
255
255
255
255
254
255
253
255
255
210
214
222
108
111
129
76
86
110
73
82
104
79
87
108
83
91
112
67
75
96
65
74
92
70
80
96
54
62
82
50
60
75
50
58
76
47
54
72
47
54
70
44
51
67
43
50
66
40
49
59
41
49
58
49
57
66
76
70
76
103
83
83
121
92
88
135
98
92
143
100
95
153
105
97
150
103
94
145
101
91
138
98
89
120
87
83
81
68
61
61
59
57
53
51
49
49
48
46
50
49
46
52
47
45
52
48
44
56
50
49
58
52
51
48
45
43
33
34
33
32
33
33
36
36
36
54
54
54
73
72
72
80
79
77
78
77
73
100
99
92
106
106
95
108
108
96
108
106
96
106
103
94
105
102
93
105
102
93
104
101
92
102
102
94
249
249
249
255
255
255
255
255
255
255
255
255
255
255
255
255
255
255
255
255
255
255
255
254
255
255
255
254
254
255
241
239
243
108
115
132
73
82
104
70
78
100
74
82
103
81
89
111
70
78
96
72
81
97
56
64
84
52
61
77
51
58
77
47
54
71
47
54
70
44
51
67
43
50
65
42
50
60
45
53
63
71
71
80
100
88
89
113
93
90
127
95
94
146
104
97
157
108
100
163
109
98
161
108
96
155
107
95
123
90
79
89
76
72
81
75
66
69
67
63
65
60
59
56
54
53
49
48
48
47
45
45
46
42
40
47
41
41
49
43
44
52
48
47
42
43
42
34
34
33
32
32
32
38
38
38
57
57
57
75
74
73
75
73
73
95
94
89
162
162
151
108
108
96
108
106
95
105
102
92
105
101
92
103
100
91
102
99
90
100
100
91
185
185
181
255
255
255
255
255
255
255
255
255
255
255
255
255
255
255
255
255
255
255
255
255
255
255
255
255
255
255
252
254
254
214
217
225
92
100
121
68
78
98
68
76
97
71
79
100
80
88
107
74
83
100
62
71
89
52
60
79
51
59
77
48
55
72
46
53
69
43
52
68
42
51
64
43
52
61
60
67
75
66
73
79
72
69
76
89
79
77
117
92
93
144
106
100
169
120
108
173
120
104
175
123
105
169
122
103
152
117
103
131
107
100
129
107
95
117
100
88
114
94
87
108
91
87
107
92
89
111
96
92
107
92
87
87
73
66
61
46
43
50
38
36
42
39
40
38
36
37
32
30
31
30
32
31
40
40
40
65
65
65
72
71
71
104
103
98
252
252
241
110
110
98
106
104
93
104
100
89
102
98
88
102
99
90
101
98
89
97
97
87
115
118
108
255
255
255
255
255
255
255
255
255
255
255
255
255
255
255
255
255
255
255
255
255
255
255
255
255
255
255
254
255
253
255
255
255
142
148
165
74
84
107
66
74
95
70
78
99
76
84
104
78
86
105
69
77
96
51
59
78
51
58
79
48
55
73
46
53
71
43
52
70
42
51
67
52
62
71
57
64
72
56
64
70
74
74
80
92
87
86
122
108
105
159
120
114
189
135
118
197
140
121
197
142
121
200
149
128
189
149
128
172
135
119
167
129
112
151
116
99
146
108
92
143
108
92
146
113
94
148
114
93
152
119
99
154
120
100
150
116
97
105
81
69
54
46
42
41
37
37
39
36
37
32
30
31
31
31
31
40
40
40
57
54
56
86
85
83
255
255
249
118
118
106
103
100
89
102
98
87
100
97
86
99
96
87
99
96
87
96
96
86
93
95
84
224
225
223
255
255
255
255
255
255
255
255
255
255
255
255
255
255
255
255
255
255
255
255
255
255
255
255
255
255
255
255
255
255
184
188
201
83
92
115
66
76
98
70
81
103
67
75
98
79
87
109
74
82
102
54
62
81
50
58
77
45
53
72
44
52
71
43
52
69
43
52
69
54
60
75
62
65
75
84
83
89
111
103
103
126
111
109
153
132
119
195
148
134
212
155
140
212
156
136
212
156
135
212
159
135
199
146
120
182
133
111
162
116
96
152
109
92
163
121
107
167
127
109
159
118
103
151
109
98
151
111
99
156
115
98
161
117
93
156
114
103
130
96
86
74
54
51
49
40
41
43
36
35
31
30
32
31
29
32
42
46
45
56
58
55
146
146
136
136
135
123
101
100
87
100
98
86
98
96
85
97
94
84
97
94
83
93
90
81
75
72
65
127
127
124
255
255
255
255
255
255
255
255
255
255
255
255
255
255
255
255
255
255
255
255
255
255
255
255
255
255
255
255
255
255
201
204
210
88
96
114
66
77
99
62
73
95
67
75
98
78
86
107
77
85
104
65
73
92
50
58
77
46
54
73
44
52
71
42
51
68
45
55
72
66
70
80
104
96
100
130
111
112
148
117
114
165
130
122
173
134
124
194
149
130
211
158
139
219
162
141
220
162
139
214
154
134
198
142
122
175
123
103
157
107
87
177
130
110
186
139
121
181
133
114
177
128
112
168
119
104
157
109
94
150
107
87
155
108
86
152
109
93
142
103
91
124
92
79
93
70
65
77
61
57
46
43
41
31
30
32
29
32
31
44
46
43
46
45
35
112
113
100
104
103
90
98
96
84
97
95
83
93
91
79
83
81
68
77
75
63
80
77
69
96
95
88
255
255
255
255
255
255
255
255
255
255
255
255
255
255
255
255
255
255
255
255
255
255
255
255
255
255
255
255
255
255
201
202
210
90
97
116
65
76
98
59
70
92
67
77
97
75
84
101
79
86
105
68
76
95
55
63
82
47
55
74
44
53
71
39
48
66
83
80
90
148
124
129
157
128
125
157
124
123
161
124
116
166
122
110
170
129
113
185
142
123
203
155
132
205
156
130
197
145
120
192
137
116
184
132
112
166
118
102
171
120
106
193
145
125
191
141
121
190
141
122
186
137
119
173
124
109
160
111
96
151
104
89
148
101
87
147
105
91
144
105
89
134
99
82
122
92
79
109
82
73
97
74
66
66
50
51
37
32
34
34
35
36
41
43
37
84
86
75
123
121
111
97
95
84
95
94
82
91
90
77
90
87
71
85
83
66
88
86
69
90
88
74
255
255
255
255
255
255
255
255
255
255
255
255
255
255
255
255
255
255
255
255
255
255
255
255
255
255
255
255
255
255
185
186
197
86
92
113
66
77
99
58
69
91
72
82
101
74
82
100
79
87
106
67
75
94
65
73
92
54
62
81
45
54
72
50
56
73
172
156
157
189
148
142
181
145
134
186
141
135
193
141
132
192
140
129
179
132
117
183
133
115
196
149
126
188
136
114
178
125
107
169
117
101
159
111
95
147
107
94
167
124
109
193
141
122
184
135
118
174
131
118
165
127
117
135
101
92
124
89
80
127
94
85
127
94
85
134
95
84
143
105
89
142
106
88
143
107
92
134
102
90
133
99
88
124
95
86
105
86
78
39
34
29
39
38
38
47
47
42
148
145
137
106
104
93
84
83
70
91
92
74
117
115
93
122
120
99
118
116
95
105
102
81
214
213
208
255
255
255
255
255
255
255
255
255
255
255
255
255
255
255
255
255
255
255
255
255
255
255
254
255
255
255
155
155
170
80
87
107
67
77
100
70
80
102
73
83
101
73
81
100
82
89
108
71
79
98
64
70
88
140
142
161
53
55
71
87
85
95
199
175
176
212
174
167
198
160
150
193
146
141
195
141
133
195
144
132
197
147
131
196
144
127
190
142
120
185
133
112
188
128
109
179
121
102
159
109
92
138
95
85
136
94
79
150
107
94
122
88
82
166
139
134
166
143
142
54
41
36
57
43
38
101
78
76
68
45
43
89
63
61
146
105
94
151
109
93
154
114
99
156
118
105
149
113
102
149
115
105
143
114
102
97
77
64
41
36
37
41
43
41
65
65
60
97
93
83
69
65
55
68
67
54
99
97
81
116
114
96
125
124
103
128
123
102
181
177
166
255
255
255
255
255
255
255
255
255
255
255
255
255
255
255
255
255
255
255
255
255
255
255
253
250
250
252
120
122
135
78
85
105
63
75
99
57
69
94
73
83
102
74
82
101
83
91
110
71
79
98
58
62
80
192
194
199
172
172
170
138
127
125
204
175
164
240
210
205
218
180
176
196
154
149
184
141
134
181
129
120
188
138
127
194
146
132
201
146
126
201
135
118
191
124
107
181
119
101
170
114
97
156
109
95
143
99
85
129
87
74
125
93
82
137
112
101
136
110
103
122
89
80
131
95
88
138
101
91
142
105
95
143
103
92
151
109
89
157
117
98
163
123
105
169
131
113
160
126
109
159
127
112
156
123
110
137
112
95
51
41
36
43
45
41
75
74
69
109
106
97
70
67
56
50
47
39
76
74
64
103
101
89
108
107
90
114
112
97
135
134
122
255
255
255
255
255
255
255
255
255
255
255
255
255
255
255
255
255
255
255
254
253
255
254
252
198
201
208
94
106
123
69
82
104
63
78
101
56
71
95
73
84
102
78
87
106
85
93
112
73
82
100
61
66
82
213
216
212
219
219
215
192
180
175
199
177
161
247
227
221
177
155
151
122
101
99
102
86
84
108
80
80
154
112
101
190
141
122
223
154
133
224
154
127
217
145
117
196
134
110
175
119
97
174
118
100
170
117
101
164
115
96
151
107
90
137
97
82
137
99
86
148
104
88
158
112
96
171
121
99
168
118
96
164
118
93
169
125
99
170
126
106
171
131
111
176
138
116
171
135
116
169
138
119
160
127
112
141
112
95
92
77
68
40
39
35
61
57
52
102
98
88
84
83
73
55
53
46
44
41
38
50
48
44
53
52
44
47
48
43
55
56
50
255
255
255
255
255
255
255
255
255
255
255
255
255
255
255
255
255
255
254
254
252
252
252
254
148
153
165
81
93
115
75
89
109
72
86
106
71
84
107
67
78
98
85
95
116
90
97
117
75
84
101
82
90
102
229
233
225
233
232
225
232
225
217
204
187
176
140
129
125
126
117
111
159
143
144
79
64
67
103
86
88
196
157
144
229
176
155
244
177
153
249
179
147
247
180
146
235
165
138
207
143
118
181
121
101
186
127
106
185
127
105
185
128
108
183
125
106
177
122
101
172
119
100
178
121
94
185
128
99
196
135
108
196
138
109
192
143
116
189
143
121
184
141
120
178
138
115
175
139
119
174
143
123
155
127
113
121
99
86
109
90
79
40
37
32
67
65
59
80
81
72
44
47
41
32
33
28
34
34
32
37
37
37
39
42
41
41
48
44
51
59
55
255
255
255
255
255
255
255
255
255
255
255
255
255
255
255
255
255
255
255
254
253
206
216
219
104
110
130
105
115
135
134
142
164
80
89
108
95
103
125
60
68
89
99
112
132
91
100
118
78
86
106
136
144
149
240
246
231
250
251
237
247
246
233
215
206
197
181
171
168
172
161
154
159
137
133
153
126
122
192
173
170
254
233
222
254
228
203
255
230
196
252
218
179
248
194
156
240
178
143
239
170
145
220
155
131
191
132
110
197
137
115
201
138
113
203
138
110
207
141
108
204
140
110
205
136
107
211
143
113
219
154
124
218
163
132
214
162
132
205
153
128
192
144
122
180
139
118
178
141
121
176
145
125
162
133
119
116
98
82
111
90
76
61
50
41
37
36
30
36
35
29
32
34
35
32
34
34
35
37
36
38
41
40
41
46
45
46
51
48
54
59
55
255
255
255
255
255
255
255
255
255
255
255
255
255
255
255
255
255
255
249
251
253
145
156
167
79
88
107
147
156
168
137
147
156
139
149
163
100
108
127
70
78
97
108
117
137
91
103
120
78
90
103
203
208
212
252
255
243
255
254
245
252
253
241
248
239
232
228
206
203
199
170
167
194
157
149
204
166
157
244
204
197
248
209
192
249
200
173
244
188
158
237
182
146
183
131
116
85
54
46
101
68
50
186
135
119
202
139
121
197
133
111
211
147
121
219
154
127
222
156
128
224
157
131
222
155
129
224
158
126
220
159
128
214
159
127
211
154
126
198
148
120
191
144
120
179
140
117
174
138
117
171
140
121
154
127
112
111
91
77
135
106
95
143
119
106
179
157
144
147
115
106
66
53
46
32
36
34
37
39
38
40
42
41
46
48
46
49
53
52
53
56
55
255
255
255
255
255
255
255
255
255
255
255
255
255
255
255
253
255
255
201
210
216
99
112
131
113
122
133
167
176
174
175
184
182
148
157
164
83
90
107
94
102
120
107
116
136
96
107
125
74
86
98
241
243
244
254
253
251
254
253
250
255
252
249
254
251
242
237
215
211
231
197
194
234
188
181
244
196
190
235
188
180
139
99
87
159
113
98
218
151
136
212
147
120
127
83
76
60
45
45
49
42
44
139
109
102
189
125
109
196
127
107
218
149
126
224
158
132
227
160
128
230
163
136
235
167
138
233
166
135
233
169
139
225
166
134
213
155
130
191
144
120
180
139
114
178
137
115
171
135
115
164
132
113
137
117
103
104
86
80
156
118
104
181
135
113
145
99
78
116
66
46
78
58
53
31
36
35
37
39
38
40
42
40
46
48
47
50
50
50
54
55
54
255
255
255
255
255
255
255
255
255
255
255
255
255
255
254
244
244
249
131
139
156
84
93
114
132
140
147
149
154
153
144
150
148
129
136
139
59
66
81
116
124
143
106
115
134
91
99
118
124
129
141
255
254
253
254
253
252
254
253
251
254
253
251
255
252
248
245
225
212
241
210
200
249
206
194
247
199
183
223
175
159
125
89
85
76
51
56
168
119
110
177
121
102
155
105
93
175
127
121
201
147
137
209
146
130
194
124
108
209
137
113
227
160
131
229
162
133
225
163
131
225
163
133
234
171
140
234
169
138
233
167
137
228
164
134
206
153
125
188
136
115
178
131
111
176
135
114
171
131
114
161
125
104
134
114
97
102
91
77
157
121
100
163
110
86
170
120
92
144
82
67
97
61
60
33
36
35
35
38
36
39
40
42
43
45
44
48
48
48
55
55
55
255
255
255
255
255
255
255
255
255
255
255
255
248
250
251
200
206
218
98
108
128
92
99
115
134
139
146
136
142
140
128
135
133
105
113
115
86
93
108
118
126
144
106
114
133
91
98
119
242
242
248
253
253
253
253
253
251
254
254
251
253
254
251
255
253
248
249
234
218
252
229
215
251
211
198
249
197
182
229
176
161
210
158
145
202
153
141
216
160
145
203
147
128
207
147
126
207
146
125
204
145
120
199
144
118
210
147
125
226
158
132
226
159
132
222
156
129
219
159
130
215
158
132
216
159
131
219
157
128
219
157
128
212
155
126
196
144
119
179
134
115
170
130
112
170
132
110
167
130
110
152
119
104
132
111
95
103
90
75
160
127
105
142
92
67
190
133
109
176
109
90
107
70
66
32
35
36
35
36
38
37
38
40
41
43
43
45
47
46
56
59
58
255
255
255
255
255
255
255
255
255
255
254
254
241
241
242
138
146
161
85
93
110
122
127
132
154
159
156
137
142
139
126
133
135
64
72
82
120
132
146
112
121
141
108
113
132
114
123
136
253
250
251
254
255
253
254
255
251
253
253
252
252
255
250
254
253
246
252
244
227
255
239
222
251
216
200
250
198
183
246
200
179
222
176
163
218
171
161
216
166
146
211
163
151
195
151
133
180
143
125
162
128
111
155
122
102
179
137
117
201
151
130
208
155
130
208
155
126
207
155
127
203
152
126
204
153
126
203
150
125
202
148
125
199
146
119
190
139
115
170
132
112
165
127
110
164
125
113
148
115
105
136
105
92
132
111
94
135
118
99
160
130
104
144
96
71
181
118
95
182
114
90
103
69
63
32
33
37
34
35
36
36
38
37
39
41
40
41
46
45
57
61
60
255
255
255
255
255
255
255
255
253
235
237
240
204
207
213
105
112
130
105
111
123
155
159
159
165
168
158
141
146
141
110
114
119
87
90
107
122
129
146
115
122
139
93
100
118
230
235
239
253
252
251
254
254
255
252
255
254
253
253
251
253
253
247
250
240
232
252
237
219
255
234
217
247
216
201
245
208
192
252
220
201
238
206
193
182
152
147
137
111
101
145
116
104
132
109
102
101
84
80
94
87
80
95
85
79
97
85
78
107
93
80
131
105
90
143
116
100
152
124
109
173
137
118
179
139
116
186
142
121
190
143
118
190
140
118
181
135
113
165
128
109
157
120
107
151
116
106
121
92
84
95
75
70
132
114
94
157
137
108
161
130
101
161
112
84
184
118
90
192
131
107
52
39
29
33
34
37
33
34
34
35
37
35
38
40
39
41
44
43
75
78
77
255
255
255
255
255
255
255
255
253
232
237
241
149
154
168
89
95
116
146
152
156
161
166
160
170
173
162
141
143
147
69
73
87
127
134
154
117
128
145
108
122
141
140
144
158
255
255
255
255
255
252
255
253
251
255
253
252
244
237
226
248
233
222
246
217
201
241
213
196
251
218
202
247
208
194
249
217
201
227
203
190
150
131
120
110
91
84
101
80
72
122
91
84
172
139
130
203
159
148
168
134
122
126
99
89
88
69
64
74
65
60
77
63
58
79
68
62
85
76
69
99
86
79
122
103
93
159
129
117
181
140
123
180
135
117
168
127
106
150
119
102
130
104
91
112
93
81
83
75
67
59
53
48
77
64
48
158
139
109
203
174
142
195
146
115
192
138
105
163
115
98
31
27
22
32
34
36
32
34
33
33
35
33
36
37
37
40
43
42
131
133
133
255
255
255
255
255
255
237
238
237
200
206
215
109
114
128
100
108
121
159
166
163
166
174
163
158
165
156
107
112
123
87
94
111
123
137
155
112
130
146
91
103
121
227
230
236
253
255
253
255
255
255
255
254
254
253
248
242
224
216
200
238
222
202
231
197
172
230
194
175
244
206
188
241
204
192
215
186
175
148
133
124
135
114
105
182
152
140
215
176
160
226
179
163
236
181
168
231
172
154
235
172
154
235
177
154
206
159
140
136
100
89
86
68
60
68
64
60
69
60
59
66
59
54
69
61
58
93
78
70
140
112
102
151
117
103
134
105
90
118
96
84
90
75
64
75
66
57
47
45
38
45
44
39
49
44
33
109
100
76
177
158
126
206
164
133
184
142
108
126
90
70
31
30
24
32
34
35
32
34
33
33
35
34
34
35
37
39
40
39
201
202
201
255
255
255
253
253
253
213
216
218
145
153
169
86
91
102
123
133
137
168
176
169
164
173
155
150
158
154
74
83
97
125
138
154
115
132
149
115
128
145
156
163
172
255
255
255
255
255
255
255
255
255
255
255
253
240
236
219
189
181
164
231
213
196
224
190
169
225
188
167
233
196
179
199
173
164
145
121
123
123
109
101
216
173
162
246
191
173
245
189
169
241
184
164
225
174
154
221
164
145
222
162
146
222
162
144
218
154
137
206
142
125
153
114
105
71
62
57
60
52
52
57
53
50
62
60
56
66
63
61
82
72
68
99
80
74
86
70
62
75
64
60
54
51
47
43
45
43
40
42
36
37
37
34
39
37
34
49
49
37
97
81
62
156
114
98
187
142
115
130
94
76
33
32
29
32
34
35
32
34
33
33
35
34
34
35
37
38
40
39
255
255
255
255
255
255
240
240
242
208
212
218
110
117
136
88
95
106
146
154
152
163
174
158
162
170
158
111
117
119
88
101
117
122
139
151
113
129
147
99
113
129
226
232
234
254
255
255
255
255
255
255
255
255
255
255
251
202
196
181
117
107
101
205
185
180
219
185
175
220
187
172
208
178
166
145
128
123
112
98
97
167
147
135
227
179
163
233
180
162
222
169
151
201
153
133
181
135
125
179
128
116
177
123
117
175
123
113
174
118
106
170
118
105
157
114
101
108
88
79
67
56
56
53
52
50
56
51
50
53
53
51
51
50
48
51
49
46
50
48
44
48
44
42
43
41
40
37
37
35
36
36
34
34
34
32
39
40
36
39
38
37
48
47
41
59
48
39
129
94
78
98
70
58
34
36
35
30
34
33
30
34
33
33
34
36
35
35
38
66
69
69
255
255
255
255
255
255
235
237
240
143
151
163
81
90
109
132
141
147
161
173
164
164
174
161
155
165
159
69
81
89
120
137
151
118
134
148
117
132
148
151
159
169
255
255
255
255
255
254
255
255
254
255
255
251
246
246
231
150
147
136
95
86
85
168
150
152
208
180
178
211
187
180
172
152
148
115
105
103
109
102
99
173
147
137
208
158
145
192
144
132
169
127
118
148
110
105
143
101
100
133
95
85
110
73
65
98
62
52
105
68
60
94
57
47
90
57
44
90
63
53
85
65
61
62
60
59
53
48
48
49
48
46
47
46
44
41
40
39
41
39
39
41
40
40
36
36
36
33
34
33
31
33
32
30
32
31
31
36
31
35
36
32
36
40
39
40
46
41
40
48
41
39
43
39
36
39
39
32
36
37
31
35
37
33
34
36
35
35
38
113
115
114
255
255
255
255
255
255
244
244
246
117
128
143
91
100
111
159
168
168
162
172
163
165
168
162
116
121
123
97
104
123
127
138
155
123
133
150
113
125
139
240
242
244
255
254
255
255
255
255
255
255
252
255
255
246
226
227
209
127
125
114
79
72
71
116
106
107
156
147
147
172
155
151
137
124
122
93
90
94
91
88
89
166
135
128
170
123
119
132
88
87
85
47
48
137
96
96
183
140
125
214
161
149
225
172
158
228
170
161
208
156
143
193
148
133
183
140
118
175
133
118
148
111
105
93
76
68
62
54
51
51
52
50
46
48
45
42
42
41
38
37
38
34
32
33
32
33
32
31
33
33
32
33
34
35
37
36
35
38
34
32
34
31
35
37
36
46
46
47
46
48
48
40
44
43
37
40
40
33
37
38
31
35
36
31
34
36
36
37
39
215
216
216
255
255
255
255
255
255
253
253
254
91
99
117
127
132
139
166
173
162
167
175
157
157
162
160
69
75
83
127
135
153
122
136
153
122
133
149
145
151
159
253
254
255
255
255
255
255
255
255
255
255
255
249
250
231
202
203
181
103
102
89
68
63
65
99
98
102
96
95
99
105
103
101
91
93
95
80
77
84
79
77
75
127
96
95
161
118
117
182
132
136
191
143
148
239
178
178
242
184
170
244
184
172
247
189
174
244
183
168
236
172
155
227
165
140
217
159
136
183
132
114
132
92
81
82
62
56
54
48
47
42
44
41
40
42
39
40
42
41
39
40
40
35
34
34
33
34
34
34
36
35
33
35
34
33
35
32
29
32
31
28
32
31
36
39
38
46
48
47
46
50
49
41
45
44
36
40
39
33
37
38
31
35
36
32
35
36
63
63
64
255
255
255
255
255
255
255
255
255
255
255
255
181
185
188
150
154
153
163
168
154
162
168
157
122
127
132
97
103
119
131
141
159
124
139
156
119
131
143
251
255
255
255
254
255
255
255
255
255
255
255
255
255
246
229
227
205
189
187
164
100
97
87
64
61
67
95
97
102
87
87
92
82
83
86
84
85
90
79
77
82
103
93
90
182
150
147
246
218
210
251
228
215
254
232
219
250
220
201
254
219
193
254
209
190
252
198
184
234
176
162
219
159
135
201
140
117
167
114
98
141
97
85
106
78
71
73
61
59
48
44
45
40
42
39
38
40
37
36
39
36
36
38
35
36
38
36
36
38
37
33
35
34
30
31
29
27
29
24
27
29
25
28
31
30
36
38
38
45
49
48
46
50
49
43
45
45
38
41
41
33
37
38
32
36
37
32
36
37
158
158
159
255
255
255
255
255
255
255
255
255
255
255
255
255
255
255
166
170
163
165
169
154
153
162
156
67
73
86
134
139
160
127
137
154
121
137
151
143
152
157
253
255
255
255
255
254
255
255
255
255
255
253
253
252
240
210
208
181
176
172
146
102
99
89
68
66
71
95
96
101
92
93
98
82
83
87
82
83
87
79
77
80
112
102
99
215
182
175
254
220
209
255
220
206
251
214
195
238
177
163
216
153
141
179
126
117
146
105
97
133
98
91
129
94
81
127
87
72
125
88
77
100
78
69
76
62
57
56
51
48
45
43
41
35
37
34
33
35
32
34
36
33
33
35
32
34
36
34
34
36
35
36
38
37
32
34
33
27
30
26
28
32
30
32
33
30
55
55
55
50
53
52
45
48
48
45
46
46
38
41
40
33
37
38
32
36
37
33
36
37
250
250
250
255
255
255
255
255
255
255
255
255
255
255
255
255
255
255
201
203
198
167
168
162
121
130
133
89
96
115
133
139
160
128
138
154
110
121
133
244
245
248
255
255
255
255
255
255
255
255
254
255
255
251
237
237
213
190
190
159
168
164
143
119
115
106
75
73
78
86
87
92
82
83
88
78
81
85
78
81
85
78
79
80
90
80
76
149
127
119
180
150
141
173
136
129
154
106
97
114
85
79
90
68
66
63
49
49
69
59
62
78
67
65
82
71
69
86
72
69
92
76
73
71
61
55
55
47
45
43
42
40
43
45
42
36
37
35
33
35
32
39
41
39
37
39
38
35
37
35
33
35
34
31
34
32
32
35
34
29
32
30
31
34
32
37
36
33
62
61
60
50
52
50
44
47
47
41
43
45
38
41
41
33
37
38
32
36
37
153
155
155
255
255
255
255
255
255
255
255
255
255
255
255
255
255
255
255
255
255
255
255
255
165
168
168
77
82
93
135
144
162
126
140
156
124
140
156
158
164
174
255
255
255
255
255
255
255
255
255
255
255
254
252
254
240
217
216
187
178
176
149
161
156
136
127
124
114
89
87
92
79
80
85
83
84
89
78
83
87
77
82
85
70
75
74
70
65
63
92
82
74
118
105
95
113
97
95
89
78
76
72
67
65
61
57
53
55
50
49
64
56
58
71
61
61
75
66
64
71
64
62
62
55
54
51
48
45
40
38
38
36
36
34
37
41
37
34
36
33
28
30
27
35
37
36
37
39
38
32
34
33
32
34
33
30
32
31
30
31
28
30
32
29
32
32
29
62
54
51
89
84
79
52
52
48
43
46
46
38
42
43
36
40
41
35
39
40
32
36
37
244
245
245
255
255
255
255
255
255
255
255
255
255
255
255
255
255
255
255
255
255
255
255
255
193
196
199
80
86
105
136
141
160
129
140
154
107
123
131
229
229
233
255
254
255
255
255
255
255
255
255
255
255
253
243
244
219
200
198
165
168
164
142
159
154
135
140
136
127
100
99
100
74
75
80
93
94
99
77
82
85
68
73
76
62
70
69
58
59
58
58
58
53
68
66
59
77
71
70
74
72
72
62
56
52
61
53
50
68
59
58
72
62
63
62
54
53
54
50
47
54
50
47
54
49
46
41
39
37
39
38
35
38
40
38
37
37
35
35
36
34
36
38
35
35
37
35
35
37
36
34
36
35
34
36
35
33
35
33
28
30
27
26
28
25
41
40
37
86
73
66
102
89
79
62
59
53
42
45
44
38
42
43
37
41
42
35
39
40
175
177
177
255
255
255
255
255
255
255
255
255
255
255
255
255
255
255
255
255
255
255
255
255
255
255
255
255
255
255
149
157
171
134
142
155
129
138
149
146
154
162
255
255
255
255
255
255
255
255
255
255
255
254
255
255
246
226
226
195
184
183
154
166
161
139
156
154
139
152
150
137
116
116
106
72
73
75
91
93
94
75
79
82
58
63
66
55
62
60
58
60
58
54
54
52
54
54
53
57
55
55
54
52
49
68
61
57
91
80
78
96
80
80
85
74
73
70
61
59
55
50
47
50
46
43
47
43
41
39
40
40
39
39
39
37
39
38
37
39
38
38
40
39
36
38
37
33
35
34
32
34
33
34
36
35
35
37
36
32
34
33
33
33
31
32
33
28
64
60
54
99
83
73
112
93
83
66
60
56
36
40
40
35
39
40
34
38
39
57
61
62
254
254
254
255
255
255
255
255
255
255
255
255
255
255
255
255
255
255
255
255
255
255
255
255
255
255
255
255
255
255
241
242
244
131
138
156
117
124
135
224
227
230
255
255
255
255
255
255
255
255
255
255
255
255
249
247
233
207
205
170
175
170
149
164
157
138
156
154
139
153
150
140
133
132
124
59
60
62
86
87
89
78
79
83
69
72
76
64
68
69
65
66
66
59
61
60
53
55
54
56
56
56
63
61
58
82
74
70
91
84
81
80
78
73
70
62
60
61
55
52
56
51
48
52
48
45
46
42
41
37
38
37
34
34
34
33
35
34
34
36
35
35
37
36
33
35
34
32
34
33
34
36
35
35
37
36
30
32
31
30
32
31
31
33
31
42
40
37
84
75
67
117
95
83
126
104
89
81
72
64
34
35
34
31
36
37
30
34
35
248
248
248
255
255
255
255
255
255
255
255
255
255
255
255
255
255
255
255
255
255
255
255
255
255
255
255
255
255
255
255
255
255
255
255
255
217
220
225
121
128
143
255
255
255
255
255
255
255
255
255
255
255
255
255
255
252
235
233
209
192
191
160
171
166
141
164
158
139
158
154
138
154
152
136
128
129
118
57
57
63
93
94
97
84
85
87
63
64
67
51
55
57
59
60
60
55
57
56
48
50
49
49
51
50
65
64
64
73
68
67
71
68
68
67
69
66
60
59
57
53
51
49
48
49
47
42
43
40
36
37
35
34
36
35
33
35
34
33
35
34
39
41
40
37
39
38
36
38
37
33
35
34
29
31
30
30
33
31
28
33
30
27
30
27
32
34
31
54
51
46
93
79
72
126
102
88
138
110
97
106
92
88
26
28
28
23
27
28
172
173
173
255
255
255
255
255
255
255
255
255
255
255
255
255
255
255
255
255
255
255
255
255
255
255
255
255
255
255
255
255
255
255
255
255
255
255
255
255
255
255
236
237
242
254
255
255
255
255
255
255
255
255
255
255
253
255
254
243
217
216
188
181
180
152
167
164
144
162
159
141
158
155
138
152
152
133
115
116
106
57
58
63
90
91
93
89
90
92
75
76
79
62
67
67
58
59
59
48
49
49
44
46
45
53
55
54
63
64
63
65
62
61
57
57
59
57
59
58
55
53
54
49
47
48
45
46
45
40
42
40
40
42
41
43
45
44
43
45
44
35
37
36
34
36
35
35
37
36
37
39
38
35
37
36
29
31
30
30
32
30
29
30
27
27
27
24
49
47
43
76
69
64
104
87
80
134
107
94
150
117
104
131
110
101
25
25
27
122
123
124
255
255
255
255
255
255
255
255
255
255
255
255
255
255
255
255
255
255
255
255
255
255
255
255
255
255
255
255
255
255
255
255
255
255
255
255
255
255
255
255
255
255
255
255
255
255
255
255
255
255
255
255
255
255
253
255
250
245
245
222
203
202
174
173
172
145
168
162
142
164
159
139
159
154
135
149
148
128
104
106
93
74
75
82
88
90
90
83
84
86
71
72
74
54
57
59
54
55
55
52
56
54
51
56
55
54
58
57
57
58
57
50
49
47
42
43
43
32
34
33
34
34
34
37
36
36
36
35
35
36
38
37
31
34
33
30
32
31
38
40
39
42
44
43
33
35
34
32
34
33
31
33
32
29
31
30
27
29
28
27
27
26
27
27
25
41
39
38
71
65
60
88
77
69
111
92
82
141
111
99
157
119
105
140
117
106
88
86
86
255
255
255
255
255
255
255
255
255
255
255
255
255
255
255
255
255
255
255
255
255
255
255
255
255
255
255
255
255
255
255
255
255
255
255
255
255
255
255
255
255
255
255
255
255
255
255
255
255
255
255
255
255
255
255
255
255
254
254
246
229
228
194
193
191
162
173
171
150
168
163
142
163
158
138
157
154
135
141
140
120
91
92
81
68
69
74
78
80
82
64
65
68
60
61
63
53
57
58
53
55
54
46
50
49
48
54
52
57
61
60
59
60
58
56
54
53
42
41
41
30
31
30
42
42
42
47
45
46
42
40
41
34
34
34
33
34
34
32
32
32
31
31
31
32
33
33
32
33
33
32
33
32
31
32
31
30
30
30
27
28
28
27
28
27
30
29
27
52
46
42
88
77
68
102
84
74
124
100
86
150
115
100
163
121
105
166
140
130
254
254
254
255
255
255
255
255
255
255
255
255
255
255
255
255
255
255
255
255
255
255
255
255
255
255
255
255
255
255
255
255
255
255
255
255
255
255
255
255
255
255
255
255
255
255
255
255
255
255
255
255
255
255
255
255
255
255
255
252
252
253
235
213
213
182
182
181
153
171
170
148
168
164
143
163
158
138
157
154
134
140
139
121
87
88
74
59
60
62
79
80
83
71
72
74
67
67
69
68
70
72
58
59
60
46
50
49
42
48
46
41
47
45
42
45
44
42
42
40
39
40
38
35
37
35
40
40
40
44
42
43
44
43
44
39
38
39
33
33
33
29
29
29
30
30
30
31
31
31
31
31
31
30
30
30
30
30
30
29
29
29
27
27
27
27
28
28
38
35
34
77
64
60
102
83
74
120
95
84
137
105
92
158
118
101
187
156
143
255
254
254
255
255
255
255
255
255
255
255
255
255
255
255
255
255
255
255
255
255
255
255
255
255
255
255
255
255
255
255
255
255
255
255
255
255
255
255
255
255
255
255
255
255
255
255
255
255
255
255
255
255
255
255
255
255
255
255
255
255
255
255
247
247
234
202
200
170
182
177
152
174
170
148
170
165
144
164
159
139
153
149
127
138
136
115
76
75
63
45
46
48
63
64
66
69
70
73
68
69
71
65
66
68
61
62
64
66
68
68
63
68
68
48
54
53
40
45
44
44
44
42
40
42
39
35
37
34
37
38
37
40
39
39
41
41
41
34
34
34
35
35
35
34
34
34
36
36
36
33
33
33
30
30
30
29
29
29
29
29
29
28
28
28
26
26
26
31
30
30
53
48
44
91
72
66
114
86
77
133
100
88
147
108
93
204
179
168
255
255
255
255
255
255
255
255
255
255
255
255
255
255
255
255
255
255
255
255
255
255
255
255
255
255
255
255
255
255
255
255
255
255
255
255
255
255
255
255
255
255
255
255
255
255
255
255
255
255
255
255
255
255
255
255
255
255
255
255
255
255
255
255
255
255
255
255
255
229
228
216
184
176
152
176
169
149
171
166
145
164
159
139
154
149
125
139
135
110
69
67
58
42
43
45
55
56
58
62
63
65
58
59
61
55
57
57
52
54
54
44
45
46
42
43
45
31
36
37
28
33
31
34
36
32
37
39
36
39
41
38
33
35
34
31
32
31
33
33
33
32
32
32
31
31
31
31
31
31
29
29
29
29
29
29
26
26
26
25
25
25
25
26
26
26
24
25
29
29
29
45
40
38
74
62
58
105
80
73
134
99
87
155
114
98
219
204
198
255
255
255
255
255
255
255
255
255
255
255
255
255
255
255
255
255
255
255
255
255
255
255
255
255
255
255
255
255
255
255
255
255
255
255
255
255
255
255
255
255
255
255
255
255
255
255
255
255
255
255
255
255
255
255
255
255
255
255
255
255
255
255
255
255
255
255
255
255
255
255
255
255
255
255
251
251
250
187
182
163
170
165
144
165
160
138
153
148
125
136
131
109
63
60
55
41
41
43
45
45
47
48
49
51
62
63
65
58
60
57
53
55
52
56
58
56
51
53
53
44
45
47
39
42
43
35
39
35
35
37
34
33
35
32
31
34
33
30
31
31
33
33
33
32
32
32
29
29
29
29
29
29
27
27
27
26
26
26
25
25
25
23
24
25
25
25
24
32
32
28
45
38
36
70
55
48
103
81
71
136
98
86
168
128
115
252
251
250
255
255
255
255
255
255
255
255
255
255
255
255
255
255
255
255
255
255
255
255
255
255
255
255
255
255
255
255
255
255
255
255
255
255
255
255
255
255
255
255
255
255
255
255
255
255
255
255
255
255
255
255
255
255
255
255
255
255
255
255
255
255
255
255
255
255
255
255
255
255
255
255
255
255
255
255
255
255
255
255
255
255
255
255
228
226
219
164
159
137
152
146
126
133
127
109
54
50
49
40
40
42
43
43
45
52
53
55
67
68
70
75
77
75
72
74
71
53
55
51
48
50
47
38
40
39
36
37
36
35
35
35
29
31
30
29
31
30
30
32
31
30
29
29
27
27
27
25
25
25
26
26
26
26
26
26
27
27
27
26
26
26
25
25
25
25
25
27
35
28
25
50
42
35
80
57
51
107
79
63
138
101
83
220
204
197
255
254
254
255
255
255
255
255
255
255
255
255
255
255
255
255
255
255
255
255
255
255
255
255
255
255
255
255
255
255
255
255
255
255
255
255
255
255
255
255
255
255
255
255
255
255
255
255
255
255
255
255
255
255
255
255
255
255
255
255
255
255
255
255
255
255
255
255
255
255
255
255
255
255
255
255
255
255
255
255
255
255
255
255
255
255
255
255
255
255
255
255
255
250
250
248
206
204
193
124
122
106
46
45
42
41
41
41
45
45
45
45
46
44
54
56
54
72
74
71
198
200
197
147
149
144
74
79
72
42
40
34
41
35
30
39
38
33
33
32
31
31
34
30
32
32
34
29
28
29
27
26
24
25
24
22
24
24
22
24
23
22
25
24
25
27
25
28
35
28
29
39
33
32
59
44
39
84
58
51
120
84
72
202
184
177
250
248
247
255
255
255
255
255
255
255
255
255
255
255
255
255
255
255
255
255
255
255
255
255
255
255
255
255
255
255
255
255
255
255
255
255
255
255
255
255
255
255
255
255
255
255
255
255
255
255
255
255
255
255
255
255
255
255
255
255
255
255
255
255
255
255
255
255
255
255
255
255
255
255
255
255
255
255
255
255
255
255
255
255
255
255
255
255
255
255
255
255
255
255
255
255
255
255
255
255
255
255
255
255
255
251
251
250
161
161
161
69
69
69
52
52
52
66
68
65
61
63
60
59
61
58
169
171
168
192
194
188
139
144
136
111
107
100
138
123
117
100
87
83
54
49
42
31
34
29
30
30
33
27
28
28
27
26
25
27
25
23
26
25
22
26
25
21
29
27
26
34
32
31
55
43
38
80
56
47
121
91
82
194
177
171
253
252
251
255
255
255
255
255
255
255
255
255
255
255
255
255
255
255
255
255
255
255
255
255
255
255
255
255
255
255
255
255
255
255
255
255
255
255
255
255
255
255
255
255
255
255
255
255
255
255
255
255
255
255
255
255
255
255
255
255
255
255
255
255
255
255
255
255
255
255
255
255
255
255
255
255
255
255
255
255
255
255
255
255
255
255
255
255
255
255
255
255
255
255
255
255
255
255
255
255
255
255
255
255
255
255
255
255
255
255
255
255
255
255
255
255
255
255
255
255
227
227
227
116
118
120
63
66
69
39
41
41
68
68
71
79
81
80
84
85
82
125
114
108
229
189
183
220
178
166
155
134
129
81
64
62
72
58
51
68
55
48
56
44
38
56
46
41
56
43
35
61
44
38
67
51
44
103
87
79
155
137
128
231
224
222
255
255
255
255
255
255
255
255
255
255
255
255
255
255
255
255
255
255
255
255
255
255
255
255
255
255
255
255
255
255
255
255
255
255
255
255
255
255
255
255
255
255
255
255
255
255
255
255
255
255
255
255
255
255
255
255
255
255
255
255
255
255
255
255
255
255
255
255
255
255
255
255
255
255
255
255
255
255
255
255
255
255
255
255
255
255
255
255
255
255
255
255
255
255
255
255
255
255
255
255
255
255
255
255
255
255
255
255
255
255
255
255
255
255
255
255
255
255
255
255
255
255
255
255
255
255
255
255
255
255
255
255
255
255
255
255
255
255
207
207
208
153
154
154
109
109
110
94
82
79
206
164
154
232
184
165
224
178
154
215
162
142
202
156
134
186
140
118
159
120
108
145
115
107
174
152
146
220
210
208
255
255
255
255
255
255
255
255
255
255
255
255
255
255
255
255
255
255
255
255
255
255
255
255
255
255
255
255
255
255
255
255
255
255
255
255
255
255
255
255
255
255
255
255
255
255
255
255
255
255
255
255
255
255
255
255
255
255
255
255
255
255
255
255
255
255
255
255
255
255
255
255
255
255
255
