P3
64 64
255
255
255
255
255
255
255
255
255
255
255
255
255
255
255
255
255
255
255
255
255
255
255
255
255
255
255
255
255
255
255
255
255
255
255
255
255
255
255
255
255
255
255
255
255
255
255
255
255
255
255
255
255
255
255
255
255
255
255
255
255
255
255
255
255
255
255
255
255
255
255
255
255
255
254
250
255
254
244
253
251
234
250
247
224
244
242
215
243
242
210
241
238
204
237
234
199
239
236
203
242
239
207
245
243
213
245
243
217
241
239
218
241
241
224
247
248
237
251
251
247
255
255
255
255
255
255
255
255
255
255
255
255
255
255
255
255
255
255
255
255
255
255
255
255
255
255
255
255
255
255
255
255
255
255
255
255
255
255
255
255
255
255
255
255
255
255
255
255
255
255
255
255
255
255
255
255
255
255
255
255
255
255
255
255
255
255
255
255
255
255
255
255
255
255
255
255
255
255
255
255
255
255
255
255
255
255
255
255
255
255
255
255
255
255
255
255
255
255
255
255
255
255
255
255
255
255
255
255
255
255
255
255
255
255
255
255
255
255
255
255
255
255
255
255
255
255
255
255
255
255
255
255
255
255
255
255
255
252
253
252
230
252
250
212
253
251
212
252
250
212
252
249
214
253
250
213
249
245
207
249
245
207
249
245
208
249
245
208
247
244
209
243
240
207
244
241
208
247
244
211
239
236
203
223
219
184
225
222
189
227
224
191
222
219
190
231
230
214
251
251
249
255
255
254
255
255
255
255
255
255
255
255
255
255
255
255
255
255
255
255
255
255
255
255
255
255
255
255
255
255
255
255
255
255
255
255
255
255
255
255
255
255
255
255
255
255
255
255
255
255
255
255
255
255
255
255
255
255
255
255
255
255
255
255
255
255
255
255
255
255
255
255
255
255
255
255
255
255
255
255
255
255
255
255
255
255
255
255
255
255
255
255
255
255
255
255
255
255
255
255
255
255
255
255
255
255
255
255
255
255
255
255
255
255
255
255
255
255
255
255
255
254
253
234
254
252
218
254
252
214
251
249
212
249
247
208
251
249
210
250
248
207
252
250
210
254
252
212
251
248
209
252
249
211
255
253
214
255
253
214
253
250
212
249
247
209
250
247
209
251
249
212
250
248
210
230
228
191
226
224
187
232
229
194
224
221
189
212
211
180
214
215
184
236
236
207
248
248
229
255
255
255
255
255
255
255
255
255
255
255
255
255
255
255
255
255
255
255
255
255
255
255
255
255
255
255
255
255
255
255
255
255
255
255
255
255
255
255
255
255
255
255
255
255
255
255
255
255
255
255
255
255
255
255
255
255
255
255
255
255
255
255
255
255
255
255
255
255
255
255
255
255
255
255
255
255
255
255
255
255
255
255
255
255
255
255
255
255
255
255
255
255
255
255
255
255
255
255
255
255
255
255
255
255
255
255
252
254
252
233
254
252
214
254
252
214
255
253
215
253
251
213
250
248
210
250
248
211
247
245
206
245
243
203
249
247
206
251
249
210
255
254
219
255
255
222
255
255
223
255
255
224
255
255
221
255
255
218
255
255
220
255
255
220
251
249
212
237
235
198
232
230
193
236
233
198
228
225
190
220
218
182
232
232
197
247
246
211
249
248
210
245
242
204
250
248
230
254
254
252
255
255
255
255
255
255
255
255
255
255
255
255
255
255
255
255
255
255
255
255
255
255
255
255
255
255
255
255
255
255
255
255
255
255
255
255
255
255
255
255
255
255
255
255
255
255
255
255
255
255
255
255
255
255
255
255
255
255
255
255
255
255
255
255
255
255
255
255
255
255
255
255
255
255
255
255
255
255
255
255
255
255
255
255
255
255
255
255
255
255
255
255
255
249
249
239
253
252
218
254
253
215
254
252
214
255
253
215
255
253
215
255
254
216
254
253
215
254
253
215
254
251
217
254
252
220
247
247
215
231
228
199
192
191
163
164
163
134
140
139
110
123
122
93
129
125
99
126
122
96
141
137
111
173
169
143
201
197
171
220
217
187
238
234
204
234
231
199
232
229
196
227
224
189
232
232
194
245
243
205
249
247
209
253
249
212
250
245
210
237
235
197
245
244
232
254
254
254
255
255
255
255
255
255
255
255
255
255
255
255
255
255
255
255
255
255
255
255
255
255
255
255
255
255
255
255
255
255
255
255
255
255
255
255
255
255
255
255
255
255
255
255
255
255
255
255
255
255
255
255
255
255
255
255
255
255
255
255
255
255
255
255
255
255
255
255
255
255
255
255
255
255
255
255
255
255
255
255
255
243
243
242
149
150
131
177
178
152
213
216
185
235
238
205
248
248
211
254
253
216
254
252
214
255
253
215
255
253
215
255
254
216
248
247
215
161
157
131
129
124
104
125
122
102
123
122
102
121
120
100
110
108
88
106
104
84
87
82
65
93
87
72
104
98
83
106
100
85
92
86
72
92
87
65
105
101
78
148
144
118
223
220
191
243
241
209
237
235
195
241
239
200
246
242
205
251
245
209
242
237
201
228
224
187
221
219
181
212
210
183
247
247
245
255
255
255
255
255
255
255
255
255
255
255
255
255
255
255
255
255
255
255
255
255
255
255
255
255
255
255
255
255
255
255
255
255
255
255
255
255
255
255
255
255
255
255
255
255
255
255
255
255
255
255
255
255
255
255
255
255
255
255
255
255
255
255
255
255
255
255
255
255
255
255
255
255
255
255
192
193
184
109
112
91
108
112
89
109
113
89
126
130
107
156
160
137
195
198
171
227
230
200
245
245
212
252
250
215
255
255
220
202
198
174
139
134
111
137
132
110
144
139
119
137
133
114
123
121
104
120
115
99
126
119
101
130
120
104
128
121
103
112
106
89
110
106
90
110
107
92
109
107
94
110
106
93
85
84
70
71
69
54
80
81
64
129
129
111
227
223
195
252
249
213
248
244
207
239
233
201
227
222
189
235
232
194
239
237
199
221
221
188
143
143
117
198
198
189
255
255
255
255
255
255
255
255
255
255
255
255
255
255
255
255
255
255
255
255
255
255
255
255
255
255
255
255
255
255
255
255
255
255
255
255
255
255
255
255
255
255
255
255
255
255
255
255
255
255
255
255
255
255
255
255
255
255
255
255
255
255
255
255
255
255
254
254
254
176
177
166
103
106
86
104
107
87
105
108
87
107
110
89
108
111
90
103
106
85
109
111
90
132
134
111
174
177
153
212
214
188
153
153
127
92
89
68
94
92
71
100
97
78
117
113
97
122
119
101
126
120
101
136
131
112
130
122
105
129
122
104
122
114
97
116
110
91
121
115
99
113
110
94
105
103
88
94
89
78
84
82
70
84
82
71
69
70
58
70
69
57
72
69
51
177
174
148
250
246
214
242
238
203
235
231
196
238
235
197
246
244
205
237
237
202
161
161
132
123
123
99
227
226
213
255
255
255
255
255
255
255
255
255
255
255
255
255
255
255
255
255
255
255
255
255
255
255
255
255
255
255
255
255
255
255
255
255
255
255
255
255
255
255
255
255
255
255
255
255
255
255
255
255
255
255
255
255
255
255
255
255
255
255
255
255
255
255
148
154
134
101
106
83
99
102
83
101
104
85
102
105
86
103
106
87
104
107
87
103
106
87
101
102
86
101
102
84
103
104
85
118
117
95
94
93
70
124
118
94
121
114
92
130
123
103
135
126
107
119
111
92
133
125
104
128
120
100
113
107
89
122
115
99
124
116
97
118
111
92
107
100
82
115
109
93
100
96
79
103
98
86
92
90
78
82
79
69
76
76
68
63
63
55
73
70
61
63
59
45
136
133
108
250
247
213
248
244
207
249
245
206
250
248
207
243
243
208
192
192
162
105
105
80
184
182
157
220
219
198
255
255
255
255
255
255
255
255
255
255
255
255
255
255
255
255
255
255
255
255
255
255
255
255
255
255
255
255
255
255
255
255
255
255
255
255
255
255
255
255
255
255
255
255
255
255
255
255
255
255
255
255
255
255
255
255
255
139
149
122
100
111
79
99
103
79
97
99
80
99
101
83
99
102
82
99
102
83
97
100
81
96
99
80
97
100
86
98
100
81
112
109
85
149
141
112
183
172
140
205
192
159
211
197
164
201
187
156
179
165
135
149
136
110
122
110
87
119
108
88
103
95
77
100
93
77
109
100
80
116
108
88
114
106
88
106
100
81
112
107
90
103
100
81
90
89
72
91
89
76
78
78
68
68
68
59
62
61
54
64
61
52
64
60
44
129
127
98
249
245
209
254
252
211
255
255
212
245
245
207
195
196
165
95
95
70
164
162
137
213
210
181
230
228
205
255
255
255
255
255
255
255
255
255
255
255
255
255
255
255
255
255
255
255
255
255
255
255
255
255
255
255
255
255
255
255
255
255
255
255
255
255
255
255
255
255
255
255
255
255
255
255
255
254
255
254
140
150
127
93
107
73
96
105
76
94
99
76
92
94
78
94
96
80
94
97
80
95
98
81
94
97
80
93
97
80
91
95
77
108
107
84
166
159
128
209
197
158
226
212
172
239
225
184
243
229
188
244
228
189
233
217
179
216
201
166
202
189
160
161
148
124
110
100
79
87
80
62
94
86
67
105
96
78
100
93
75
119
112
95
101
95
77
110
106
85
98
94
75
88
84
69
82
79
67
79
76
65
74
72
62
73
70
60
72
70
55
69
68
47
172
170
139
255
255
218
254
255
212
250
250
208
217
216
182
125
125
98
108
109
84
168
166
139
223
220
189
249
245
220
255
255
255
255
255
255
255
255
255
255
255
255
255
255
255
255
255
255
255
255
255
255
255
255
255
255
255
255
255
255
255
255
255
255
255
255
255
255
255
255
255
255
255
255
255
167
174
159
87
101
71
91
100
73
95
100
77
93
96
77
90
92
77
92
94
77
92
95
76
93
96
77
93
96
78
92
96
79
96
98
76
175
170
141
219
209
173
239
225
186
242
230
190
242
231
188
245
232
190
245
230
189
242
225
185
234
217
178
222
204
168
218
199
168
187
171
144
128
121
95
106
95
76
109
99
81
105
96
79
108
101
85
104
98
82
93
86
68
113
105
88
106
99
83
96
88
73
99
92
76
94
88
73
100
95
78
99
95
76
108
107
86
107
107
82
251
253
218
252
252
211
255
253
211
245
241
206
170
173
142
84
88
63
112
114
90
211
208
177
248
242
204
252
251
231
255
255
255
255
255
255
255
255
255
255
255
255
255
255
255
255
255
255
255
255
255
255
255
255
255
255
255
255
255
255
255
255
255
255
255
255
255
255
255
185
191
180
73
88
59
78
93
64
89
99
72
97
105
81
96
101
80
89
92
74
88
91
72
89
92
74
90
93
76
91
92
74
92
95
73
163
160
134
213
207
175
232
219
182
242
227
187
242
230
190
243
231
189
242
229
187
243
228
187
244
227
187
238
220
179
235
214
173
230
206
170
220
198
166
204
188
158
173
158
133
125
110
87
116
103
81
114
102
83
115
104
86
112
100
86
117
106
89
141
130
111
141
131
110
152
142
119
152
141
119
154
143
123
152
143
120
146
139
114
134
129
105
167
163
136
254
253
215
254
253
213
251
248
212
200
200
168
95
98
71
104
106
82
204
203
172
245
240
203
246
244
203
250
249
233
255
255
255
255
255
255
255
255
255
255
255
255
255
255
255
255
255
255
255
255
255
255
255
255
255
255
255
255
255
255
255
255
255
242
243
240
84
98
69
69
84
55
70
85
56
84
94
69
92
102
77
88
96
73
86
91
68
86
91
68
87
90
71
92
93
79
95
94
76
118
116
90
210
203
172
220
207
172
232
217
176
241
225
183
241
227
188
241
229
187
240
227
185
243
228
187
243
226
186
237
219
178
233
211
171
232
206
169
224
198
164
215
195
160
210
190
158
190
171
140
166
147
122
151
132
110
140
122
103
143
131
111
156
145
123
164
153
129
173
162
136
166
155
128
158
144
118
151
138
112
148
136
111
142
131
108
133
125
105
125
118
96
174
169
139
252
249
213
243
241
203
209
207
174
117
118
90
111
113
89
201
200
171
239
235
199
237
235
195
230
228
189
252
251
248
255
255
255
255
255
255
255
255
255
255
255
255
255
255
255
255
255
255
255
255
255
255
255
255
255
255
255
254
254
253
97
111
81
78
93
61
72
87
58
71
86
57
81
94
68
94
104
79
94
104
77
92
101
74
90
97
72
86
91
70
93
94
80
97
92
74
178
173
144
217
208
173
221
207
170
234
215
173
239
222
179
238
224
182
240
228
186
239
226
184
240
225
184
235
218
178
230
212
173
226
206
170
226
202
166
221
197
163
213
193
159
215
192
156
212
189
155
204
180
150
186
163
139
176
154
131
166
152
124
162
147
120
159
145
119
159
145
119
159
144
121
150
137
110
144
132
108
142
131
110
127
119
99
128
116
99
122
111
94
105
98
74
225
221
189
233
232
193
210
206
170
144
143
114
108
110
87
162
162
134
222
219
186
226
224
186
225
223
186
222
220
187
255
255
254
255
255
255
255
255
255
255
255
255
255
255
255
255
255
255
255
255
255
255
255
255
255
255
255
198
204
192
76
91
57
76
91
59
71
86
57
67
82
54
76
87
58
87
98
68
89
97
69
89
97
68
91
95
70
90
93
70
92
97
74
115
113
87
220
205
176
219
206
168
220
206
168
227
212
170
232
217
175
237
221
178
236
220
179
234
216
176
235
215
175
227
205
166
224
200
162
224
198
163
219
194
158
216
191
158
212
188
156
214
187
156
211
185
153
209
182
152
202
176
147
182
157
126
171
150
126
169
151
126
166
148
124
157
139
115
152
136
111
154
139
116
148
135
111
139
128
106
132
121
101
127
115
98
120
107
92
114
104
86
134
128
103
213
217
183
201
203
167
155
158
127
101
103
78
113
115
89
187
188
158
210
207
173
217
215
177
210
207
171
236
235
225
255
255
255
255
255
255
255
255
255
255
255
255
255
255
255
255
255
255
255
255
255
245
246
245
75
90
57
76
91
57
79
94
63
75
89
60
66
81
52
71
88
56
78
92
62
79
93
63
80
93
63
84
92
64
87
92
68
96
100
76
159
156
127
217
200
169
221
205
168
220
206
167
226
209
168
232
214
174
233
215
173
229
210
170
225
205
165
221
199
160
211
187
149
211
185
149
212
183
149
207
181
147
209
183
151
209
184
153
207
180
151
206
179
150
205
178
149
201
174
145
192
165
137
181
158
132
184
162
136
183
163
136
171
153
126
167
150
123
160
144
119
151
137
112
145
132
109
133
121
99
125
113
94
120
107
91
118
105
89
92
87
63
168
172
140
190
194
157
158
161
130
101
104
79
91
93
68
155
156
128
189
188
151
200
199
161
192
191
157
138
136
111
245
245
244
255
255
255
255
255
255
255
255
255
255
255
255
255
255
255
255
255
255
160
168
155
70
87
54
69
86
54
72
89
57
76
93
61
70
88
55
72
93
60
72
91
59
73
91
59
79
96
64
89
101
71
94
101
72
100
104
75
185
178
149
216
201
166
220
204
165
222
203
166
227
208
168
227
207
167
227
205
164
223
202
163
221
199
160
217
193
155
210
184
147
201
175
139
200
172
140
195
168
136
197
170
140
199
174
144
199
172
144
200
173
145
199
172
144
197
170
141
195
167
139
194
168
138
189
165
135
188
165
135
185
163
132
177
158
128
173
155
128
170
153
127
159
143
118
141
126
102
134
122
98
129
114
96
125
111
94
106
99
75
133
135
103
178
182
146
164
167
136
115
117
92
89
92
67
130
133
104
157
160
120
168
171
133
155
156
127
97
97
81
155
155
150
255
255
255
255
255
255
255
255
255
255
255
255
255
255
255
255
255
255
61
76
50
65
84
54
70
89
57
76
95
64
79
99
64
72
92
57
74
95
62
74
93
61
64
81
49
74
91
59
92
106
73
101
112
77
106
109
78
195
187
154
215
199
162
223
203
166
226
204
167
234
211
173
233
209
170
227
202
162
222
199
160
222
198
160
216
190
153
208
181
144
201
173
138
195
166
136
186
159
129
184
158
128
186
160
133
188
161
134
187
160
133
187
160
133
193
166
139
194
167
140
192
164
135
187
160
131
184
159
129
180
156
126
179
156
125
177
156
127
175
155
127
168
150
123
154
137
111
147
131
105
135
119
97
134
119
100
119
111
88
108
107
77
138
143
106
135
138
106
115
117
93
92
95
70
112
115
87
125
131
96
128
134
100
113
117
93
72
74
61
48
51
45
255
255
255
255
255
255
255
255
255
255
255
255
255
255
255
147
154
141
51
66
41
58
76
48
65
84
55
69
88
55
71
91
55
69
89
52
73
90
58
80
97
65
82
97
66
86
100
69
96
112
78
102
115
80
119
121
90
197
187
153
214
197
159
217
195
158
229
206
169
234
209
171
232
205
168
225
199
159
217
192
155
217
193
155
218
192
155
215
187
150
210
182
148
205
176
146
187
160
131
174
148
119
171
145
118
173
145
121
173
145
121
179
151
127
177
149
125
179
151
127
181
150
125
180
150
125
173
144
120
174
147
122
177
152
125
173
149
118
173
152
122
167
147
118
159
139
112
149
133
105
145
129
104
140
124
103
130
120
98
109
108
79
121
126
89
129
132
101
119
122
97
104
106
81
109
112
85
112
118
88
110
116
86
99
104
81
72
75
61
54
57
50
146
149
145
255
255
255
255
255
255
255
255
255
253
254
253
72
84
65
48
62
41
53
68
44
60
75
50
61
79
50
63
82
49
68
89
52
76
95
57
80
103
68
89
98
69
89
97
64
98
109
74
91
103
67
125
133
94
200
186
151
217
195
160
221
201
165
227
205
170
232
210
173
228
205
167
223
199
160
219
193
157
215
190
156
212
187
155
211
186
156
207
182
152
206
177
147
195
164
136
178
148
123
173
143
119
169
141
117
167
139
115
167
139
115
165
137
113
167
139
115
168
140
116
163
135
111
161
135
111
163
139
113
165
142
115
162
141
112
164
143
114
163
142
113
156
134
105
151
129
105
149
127
104
145
125
104
134
123
101
109
107
82
109
113
89
112
115
91
113
115
93
100
102
81
94
94
72
99
101
80
92
94
76
78
81
69
67
68
63
56
58
54
73
73
70
253
253
253
255
255
255
255
255
255
243
244
242
63
77
52
51
65
40
52
66
44
55
68
44
59
75
47
60
79
48
65
84
52
71
91
55
74
91
60
92
87
60
210
197
169
231
221
189
135
131
97
135
131
94
208
190
155
223
202
165
229
205
167
228
203
165
233
209
171
236
212
174
229
206
168
224
198
161
216
190
153
207
180
145
203
177
143
202
176
145
200
173
144
197
170
141
180
153
126
182
154
130
175
147
123
170
142
118
164
136
112
164
136
112
161
133
109
159
131
107
156
128
104
154
128
103
154
130
104
155
131
105
153
132
105
153
132
105
149
128
101
148
127
100
147
125
100
144
122
99
140
121
100
137
123
102
112
107
83
112
115
88
103
105
81
98
100
78
88
90
69
80
82
62
72
76
60
52
56
43
46
49
41
45
47
42
47
48
46
47
47
45
241
241
241
255
255
255
255
255
255
151
160
143
60
74
48
54
68
42
53
65
43
57
69
45
63
77
52
61
77
50
61
78
49
64
80
50
67
75
47
141
119
97
154
118
94
209
175
145
200
179
145
158
143
107
218
194
158
227
206
168
233
208
168
233
209
171
235
212
176
222
202
169
194
172
143
194
174
141
201
179
147
194
171
138
192
167
135
190
163
133
190
163
136
189
162
135
184
156
129
189
162
133
184
156
132
172
144
120
158
130
106
163
135
111
161
133
109
154
126
102
150
122
98
148
122
97
150
126
100
149
125
99
146
124
100
144
122
98
143
121
96
143
121
97
141
121
97
140
120
96
136
116
94
129
116
93
101
94
70
189
189
161
188
189
162
107
109
87
79
82
61
79
83
65
56
62
51
41
44
35
57
57
49
38
37
32
30
29
25
32
31
29
126
126
125
255
255
255
255
255
255
68
82
56
62
76
52
55
69
45
54
63
39
55
67
43
58
71
47
60
74
50
60
75
50
61
75
49
73
76
53
185
157
137
124
77
54
181
138
107
203
177
141
204
185
146
227
200
163
230
207
169
227
205
168
215
194
159
160
142
113
123
107
84
116
101
81
117
102
84
128
112
92
154
136
115
170
149
128
174
150
127
176
150
125
175
149
122
176
152
121
185
160
129
187
160
134
181
153
129
175
147
123
179
151
127
167
139
115
163
135
111
162
134
110
162
136
111
158
134
108
151
128
102
150
128
104
143
121
97
141
119
95
140
118
94
139
120
96
137
119
95
133
112
91
125
110
89
96
87
65
228
225
196
239
239
212
207
211
187
109
113
94
66
71
55
36
38
29
44
42
33
96
92
81
82
74
64
47
40
32
36
31
25
39
33
27
255
255
255
228
230
227
53
67
44
58
71
50
55
68
48
52
61
39
55
64
41
57
67
46
62
75
51
62
78
52
63
76
52
101
98
75
152
120
98
219
172
146
180
139
106
204
175
138
209
188
147
231
204
167
229
205
167
213
194
157
145
127
95
92
78
52
73
62
45
60
50
38
56
49
40
54
44
35
62
50
38
92
76
64
130
111
95
153
130
106
157
133
107
169
144
116
181
155
126
188
159
133
184
154
130
192
164
140
193
165
141
184
156
132
178
150
126
174
146
122
175
149
124
170
146
121
162
138
112
156
132
107
150
127
103
143
120
97
140
118
95
137
119
94
131
114
90
127
106
85
118
104
82
93
85
61
227
223
196
239
238
212
231
235
211
160
164
147
45
48
36
28
26
19
40
36
27
94
85
75
96
83
72
59
47
36
53
43
33
52
43
34
229
227
227
199
201
196
47
56
37
47
59
39
46
59
39
47
58
38
53
62
41
59
67
44
61
74
49
62
82
54
66
79
54
122
108
82
196
157
131
223
178
150
206
166
135
199
166
134
217
192
154
227
205
166
224
200
159
195
175
137
144
126
94
118
103
82
102
90
77
69
59
52
53
48
44
44
38
34
40
31
24
40
30
22
57
45
34
106
90
74
126
108
89
142
119
96
166
139
114
170
139
114
155
123
99
160
130
106
166
135
114
165
134
113
164
136
112
167
139
115
173
145
121
169
141
117
161
134
109
155
128
101
154
128
103
148
124
100
137
115
92
135
116
92
130
111
87
121
102
81
109
94
71
91
84
61
122
116
97
149
148
126
171
176
155
115
116
103
38
37
33
22
23
21
33
31
26
89
81
72
92
80
69
57
45
34
53
44
35
53
44
37
200
198
197
162
165
158
46
55
38
44
55
38
46
58
38
46
60
38
47
61
38
53
64
42
56
69
46
59
74
50
62
71
48
126
110
85
185
146
122
161
117
92
190
150
121
175
145
111
229
204
167
230
206
168
216
191
151
191
167
134
162
140
112
145
126
107
82
67
56
69
55
50
68
60
53
67
58
52
59
50
43
55
46
39
39
30
21
47
36
25
77
62
48
111
93
74
139
117
95
155
132
106
162
137
112
161
135
112
147
118
99
141
111
93
149
123
99
155
128
104
152
125
102
148
121
98
147
121
98
139
115
91
136
113
88
136
115
91
134
113
88
133
114
90
125
107
83
117
100
78
107
92
72
91
79
60
69
56
43
68
61
48
67
67
56
55
56
50
30
29
27
22
22
20
27
26
21
69
63
56
84
75
66
56
46
37
48
40
33
44
37
31
159
157
154
125
126
117
62
63
48
78
81
62
74
76
56
58
64
44
51
60
39
47
59
39
49
61
42
52
63
43
57
63
40
139
120
97
141
101
79
122
77
55
115
77
50
190
160
126
232
208
170
227
203
165
213
184
146
201
172
139
170
143
114
118
93
73
72
52
38
59
41
32
44
33
24
38
27
18
42
33
25
47
38
31
53
44
38
50
40
33
57
43
32
80
63
47
125
104
83
155
134
108
119
98
73
132
111
89
115
93
75
116
93
78
124
103
84
130
110
91
132
111
92
132
111
93
131
111
91
121
103
80
122
103
79
128
109
84
139
119
94
132
114
88
120
103
79
110
96
75
102
86
70
93
76
62
104
83
74
93
80
71
71
68
62
47
48
44
28
28
26
22
21
17
25
23
19
51
46
40
76
70
63
55
49
43
38
34
27
31
29
24
112
111
108
117
118
104
104
99
81
126
114
94
127
112
92
114
104
88
85
84
66
55
61
45
46
56
39
51
59
43
53
56
34
160
138
116
139
99
79
133
88
69
204
167
141
222
194
160
229
205
167
225
200
163
216
185
147
205
173
137
197
168
136
181
154
128
159
138
117
123
102
86
89
75
64
63
50
41
41
31
22
36
27
20
45
34
29
59
46
41
65
49
39
90
69
51
144
122
98
163
138
113
149
126
102
114
95
74
79
64
48
72
59
45
81
68
56
88
75
62
86
73
61
93
81
68
110
97
82
121
106
85
132
116
93
137
119
95
140
120
95
129
111
85
118
102
77
105
93
71
92
76
61
109
88
78
135
108
96
104
87
78
65
59
53
42
43
36
28
31
23
23
22
18
22
21
17
28
25
20
44
41
36
38
35
29
30
27
22
24
23
18
71
72
68
153
145
126
181
161
136
190
166
137
170
147
117
149
130
110
116
104
86
69
66
48
48
53
37
48
56
41
55
55
36
186
163
140
166
127
102
163
126
102
224
196
167
214
190
153
225
199
162
223
195
159
218
191
151
207
179
140
197
169
134
186
159
129
164
137
110
132
106
81
104
85
65
94
75
60
82
65
56
69
55
45
64
47
39
79
57
51
102
80
64
150
125
100
190
163
136
181
156
128
139
118
93
93
77
58
64
52
40
51
43
35
40
35
24
41
33
25
39
30
23
37
35
24
44
44
31
69
60
47
94
86
70
117
106
86
135
119
96
128
109
88
116
101
79
98
83
66
85
67
54
108
83
76
112
92
79
70
62
51
48
50
43
40
43
36
30
30
23
25
25
23
22
21
19
21
21
18
29
29
25
27
27
24
23
23
19
17
18
15
43
44
41
167
154
133
200
175
148
196
169
140
178
156
125
148
127
107
115
99
81
78
72
55
52
55
40
47
56
40
57
58
38
193
169
145
237
199
170
190
158
128
201
178
145
208
186
149
221
193
156
222
193
157
217
193
152
213
187
149
206
180
145
201
174
142
188
161
132
162
135
107
121
96
72
97
73
55
91
67
54
84
62
49
91
67
54
118
89
75
159
130
107
206
176
147
209
179
148
184
158
128
143
121
95
89
72
53
59
46
36
49
40
34
45
44
31
46
41
33
47
40
34
39
35
25
33
32
20
36
33
25
46
43
31
65
58
42
116
101
84
124
106
87
115
99
80
93
78
62
91
73
60
104
79
72
84
69
57
53
50
39
43
47
41
38
42
36
31
30
25
28
28
26
24
24
22
21
21
19
24
24
22
24
24
22
22
22
20
19
19
17
26
26
24
141
123
100
145
122
96
138
114
87
128
107
82
89
71
51
86
74
56
83
76
61
60
61
48
53
59
46
50
50
33
209
185
160
234
199
168
211
183
148
171
150
114
206
184
147
216
188
151
219
190
154
217
192
152
213
187
150
211
185
147
208
182
148
196
170
137
188
161
130
170
142
116
151
123
102
136
107
90
129
101
83
146
116
95
172
138
113
213
180
149
221
188
154
205
171
141
178
151
123
136
113
89
90
71
54
59
45
34
42
33
25
31
31
18
34
31
22
52
46
40
73
64
56
62
53
44
43
37
31
38
36
25
43
38
25
68
56
43
116
98
81
114
98
78
86
74
57
112
97
83
100
79
71
67
57
48
46
43
38
41
44
41
38
39
35
30
31
25
27
27
26
23
23
21
19
19
17
18
18
16
18
18
16
18
18
16
18
18
16
18
18
16
130
108
85
103
82
55
118
97
72
135
116
96
90
75
56
88
76
60
87
80
66
111
111
100
72
75
66
39
36
24
198
175
155
231
197
166
206
182
147
157
139
103
202
179
143
210
183
146
214
185
149
212
188
147
209
183
146
210
184
147
211
185
148
204
178
143
193
167
132
192
164
136
184
156
131
183
153
130
184
152
127
192
161
130
215
181
147
229
197
159
217
185
150
195
163
135
176
147
124
138
113
91
96
76
60
76
61
49
59
48
39
47
42
30
25
21
12
29
24
18
33
23
15
66
56
46
78
68
59
58
50
40
49
41
30
53
39
28
106
88
71
113
97
77
77
65
48
72
58
45
70
53
43
52
48
43
42
40
37
37
37
37
34
36
33
28
31
24
26
26
24
22
22
20
19
19
17
16
16
14
15
15
13
16
16
14
15
15
13
17
17
15
152
129
105
147
127
100
155
138
114
144
127
111
115
99
84
143
132
115
175
168
156
76
75
65
51
52
45
38
34
29
154
131
116
231
199
173
191
169
138
146
129
94
201
177
141
202
175
138
208
179
142
205
181
140
210
183
148
210
184
147
212
186
149
211
185
148
207
181
142
200
176
143
198
174
144
190
162
134
192
163
131
209
179
142
232
201
163
230
201
162
210
182
149
183
157
131
164
136
114
138
112
91
112
90
74
84
67
55
73
60
50
73
60
51
76
68
61
55
51
44
44
38
29
35
25
15
64
49
37
85
73
60
79
66
51
76
59
46
116
95
78
110
94
74
123
111
94
143
131
117
125
111
100
49
49
46
38
38
38
33
32
35
30
31
30
25
28
22
24
24
22
20
20
18
15
15
13
16
16
14
17
17
15
19
20
18
19
19
17
27
27
25
150
134
113
137
117
90
138
117
92
118
101
80
140
133
114
166
161
142
124
124
107
39
41
32
46
47
45
40
35
33
52
41
34
145
126
113
134
111
95
160
136
113
203
180
149
205
181
144
209
185
144
214
188
149
213
189
152
213
187
152
214
186
153
209
180
149
205
174
144
193
166
136
184
157
129
174
147
119
182
157
120
226
200
159
240
210
172
227
198
165
201
174
147
174
146
126
150
123
103
143
118
97
119
97
77
106
86
69
93
75
59
84
64
54
84
66
57
88
71
61
83
68
57
65
52
39
48
36
20
84
67
50
103
83
62
101
85
60
118
99
79
118
102
80
139
119
96
134
104
86
122
100
85
53
54
47
34
36
32
32
34
29
26
28
25
23
25
22
24
24
22
17
17
15
17
17
15
20
20
18
22
24
21
23
28
24
23
25
22
48
48
46
145
137
118
131
116
91
161
148
124
156
148
126
157
151
132
148
145
125
111
111
95
37
38
29
41
43
42
37
38
34
20
17
10
38
27
16
103
86
69
178
157
132
205
182
150
209
185
148
216
192
152
217
191
154
214
190
154
210
184
148
204
177
144
199
170
140
192
160
131
180
150
122
170
140
114
158
128
100
204
175
142
240
212
173
235
205
169
211
182
150
188
160
135
168
140
120
151
126
106
140
115
94
122
97
80
126
103
85
119
98
81
113
90
75
102
79
64
97
76
60
94
74
58
94
77
61
95
81
64
95
78
58
108
90
68
112
96
71
117
98
77
121
104
83
119
93
72
96
58
45
100
72
61
47
49
41
35
37
32
31
33
28
26
28
25
25
27
24
28
28
26
23
23
21
22
22
20
27
27
25
30
32
29
28
33
29
27
29
26
76
77
75
200
199
186
154
150
126
123
121
98
116
117
97
123
123
107
139
139
123
106
107
92
33
35
26
39
40
37
37
42
36
15
18
12
33
31
19
106
94
76
177
158
131
205
182
149
207
183
145
213
188
149
214
188
153
210
186
152
201
175
142
191
163
133
190
160
132
175
144
115
162
131
106
152
122
94
185
154
126
238
208
178
230
200
170
221
190
161
197
167
140
182
154
131
167
139
120
157
132
114
130
104
87
120
94
77
134
108
91
139
113
95
138
111
90
137
110
90
127
102
81
121
99
77
119
99
77
119
101
81
118
101
80
119
103
79
122
104
80
117
96
76
115
93
72
122
91
73
92
52
42
96
70
62
45
47
40
37
40
34
31
33
28
26
28
25
27
29
26
32
32
30
28
28
26
28
28
26
32
32
30
32
35
32
29
34
30
26
28
25
110
110
109
183
184
175
89
88
68
68
69
48
68
72
54
73
75
63
132
134
119
101
104
89
36
38
29
37
37
35
36
39
35
14
18
16
29
27
20
119
105
88
181
159
132
205
182
146
204
181
142
207
182
144
207
181
148
203
178
145
188
161
131
180
151
122
172
142
115
158
126
101
148
115
91
164
132
104
176
144
115
176
143
118
206
174
150
192
160
135
174
143
120
167
139
119
159
130
112
151
126
110
142
116
101
115
89
72
138
111
92
150
120
101
148
123
100
148
124
100
142
121
96
136
115
91
133
111
87
130
107
84
126
109
84
123
108
82
124
106
82
111
87
67
118
94
73
134
101
84
95
61
52
83
70
61
49
52
44
39
41
36
30
32
27
26
28
25
27
29
26
32
32
30
28
28
26
30
30
28
34
34
32
31
34
30
26
31
27
25
27
24
152
153
151
205
205
201
72
72
55
64
65
50
53
56
43
51
55
43
128
132
117
93
95
81
45
47
38
33
34
29
39
40
36
20
23
20
39
37
30
134
119
102
175
152
123
197
175
138
200
177
136
203
178
142
201
175
143
187
162
131
167
140
110
150
122
94
149
119
93
145
113
88
173
138
114
196
162
135
188
154
126
112
77
53
163
129
109
157
125
102
146
116
95
147
119
99
145
116
100
131
107
93
140
114
99
115
86
70
142
113
96
148
120
99
148
125
102
149
126
103
146
125
101
142
124
99
145
124
100
144
121
97
134
116
90
124
109
83
117
98
75
92
66
49
94
67
49
116
84
67
106
79
69
62
60
50
45
48
41
37
39
34
30
32
27
26
28
25
27
29
26
32
32
30
29
29
27
27
27
25
31
31
29
28
30
28
24
28
24
23
25
22
193
193
192
232
233
231
65
67
56
60
62
50
45
46
38
38
40
27
119
121
107
89
91
77
51
52
46
33
33
33
38
39
34
34
34
27
60
52
40
139
124
103
165
143
114
184
160
126
191
167
131
190
165
132
183
157
130
161
133
111
147
119
95
142
114
89
145
118
89
173
145
116
198
164
136
207
174
143
199
165
137
184
149
128
151
117
98
121
90
68
118
89
70
123
96
80
109
83
70
88
65
49
104
77
62
122
90
75
134
106
87
140
118
97
146
119
98
148
121
100
146
122
98
142
121
95
140
119
93
137
117
90
129
113
83
122
104
79
112
86
71
107
80
72
81
54
43
105
80
62
93
78
66
50
52
46
44
44
42
37
37
35
28
28
26
27
27
25
27
27
25
31
31
29
30
30
28
28
28
26
29
29
27
28
28
26
25
25
23
24
24
22
225
225
224
255
255
255
71
73
62
73
75
63
44
45
37
47
48
38
68
69
58
85
87
75
60
61
54
31
31
30
37
38
33
36
36
30
58
51
39
118
104
82
147
124
97
171
147
116
185
162
127
179
155
123
167
142
115
152
125
102
138
111
87
148
122
96
188
161
135
191
164
138
196
165
138
196
165
137
190
160
133
169
137
117
148
117
100
109
80
63
86
58
43
94
66
54
82
54
42
82
59
43
112
85
70
128
95
80
130
102
84
136
114
93
142
115
94
142
115
94
142
118
94
137
116
90
134
113
87
133
113
89
122
106
80
111
92
70
106
80
64
103
76
65
87
64
52
109
90
78
66
57
49
46
48
43
41
41
39
34
34
32
26
26
24
27
27
25
27
27
25
29
29
27
31
31
29
29
29
27
29
29
27
26
26
24
24
24
22
26
26
24
255
255
255
255
255
255
160
161
155
73
75
63
41
41
34
49
50
45
42
43
34
85
87
77
65
66
60
31
31
29
35
36
32
36
36
30
54
46
35
111
96
75
131
109
85
153
130
104
168
145
115
164
142
110
166
143
116
159
133
108
140
114
89
185
159
136
180
154
131
177
151
129
176
149
125
173
146
120
170
142
118
140
111
94
105
79
66
77
54
41
79
55
44
81
59
48
90
66
56
104
81
67
128
100
86
131
98
83
125
97
78
131
108
87
136
109
88
135
109
87
136
112
88
134
112
87
131
110
83
124
104
80
114
97
76
97
78
59
102
76
59
97
71
56
111
91
79
83
74
66
56
55
50
41
43
39
35
35
33
28
28
26
23
23
21
25
25
23
25
25
23
27
27
25
30
30
28
30
30
28
28
28
26
25
25
23
24
24
22
122
122
121
255
255
255
255
255
255
243
243
242
69
72
60
48
49
42
30
30
29
30
31
25
81
82
74
73
74
68
41
41
39
33
34
29
37
37
30
41
33
22
109
95
73
123
101
79
129
107
85
134
113
84
147
126
96
154
132
106
166
142
116
157
133
107
149
125
101
136
111
89
130
105
85
128
101
79
133
106
81
127
101
79
98
71
54
82
59
48
63
51
41
66
53
43
69
53
44
79
62
51
117
94
80
130
103
88
128
96
81
119
91
73
126
103
82
134
106
85
132
105
84
129
105
81
125
103
78
120
98
73
111
90
71
100
82
66
78
58
42
120
95
75
141
116
96
114
97
85
60
57
54
37
42
42
31
33
31
28
28
26
23
23
21
21
21
19
23
23
21
23
23
21
26
26
24
28
28
26
29
29
27
29
29
27
27
27
25
24
24
22
240
240
239
255
255
255
255
255
255
253
253
253
69
70
62
31
32
25
24
24
22
27
28
24
54
55
49
81
82
77
59
60
55
32
32
29
35
35
30
43
35
25
122
106
86
119
98
77
124
104
86
110
93
71
120
104
80
147
129
104
153
132
104
133
110
85
111
88
65
93
67
50
117
90
74
158
135
110
155
131
107
125
102
80
94
71
55
61
42
28
52
40
29
64
52
41
67
56
43
67
55
43
116
94
80
130
105
90
130
102
85
115
89
69
121
98
75
124
100
77
123
100
76
126
104
78
122
100
76
117
95
73
104
83
62
88
67
51
86
62
47
129
102
84
127
104
88
91
78
70
51
54
52
36
43
42
33
35
32
32
32
30
25
25
23
22
22
20
21
21
19
23
23
21
25
24
22
27
26
24
29
29
27
30
29
27
27
27
25
48
48
47
253
253
253
255
255
255
255
255
255
255
255
255
152
153
148
44
45
39
27
27
25
33
33
32
35
36
31
87
88
83
66
67
61
31
31
28
34
34
29
36
30
19
114
98
81
101
81
62
105
87
73
93
80
65
87
75
58
113
98
75
118
101
77
108
89
65
121
97
76
165
136
116
157
126
109
109
80
60
121
94
75
133
106
91
132
108
94
111
88
77
87
70
58
80
63
50
68
53
40
63
50
36
88
70
55
118
98
82
130
107
88
117
92
71
122
96
74
120
99
76
121
101
74
124
105
77
119
98
75
108
87
67
95
78
56
71
52
37
114
92
80
123
101
85
114
97
89
64
58
54
50
53
52
39
44
42
37
37
33
31
31
29
26
26
24
22
22
20
19
19
17
21
21
19
23
22
20
26
25
23
29
28
26
29
28
26
26
26
24
135
135
134
255
255
255
255
255
255
255
255
255
255
255
255
255
255
255
48
49
43
26
26
24
35
35
33
36
37
32
61
62
57
70
71
65
36
37
32
30
30
25
37
30
22
126
112
96
95
79
63
87
76
62
81
71
59
68
57
43
89
73
56
96
81
62
118
100
78
140
115
92
185
153
130
194
157
134
185
151
138
161
129
118
113
81
73
65
35
29
74
46
39
93
72
61
101
81
71
99
81
69
79
61
49
68
53
38
84
67
52
117
96
79
119
92
73
121
91
71
119
99
74
123
103
78
122
105
77
116
98
75
99
82
64
82
71
55
61
47
38
103
89
82
109
94
85
80
72
67
59
59
56
48
53
49
36
37
35
33
29
28
26
26
24
24
24
22
19
19
17
17
17
15
19
19
17
21
21
19
22
22
20
25
25
23
26
26
24
25
25
23
255
255
255
255
255
255
255
255
255
255
255
255
255
255
255
255
255
255
147
147
144
26
26
25
37
37
35
39
40
35
43
44
39
77
78
72
47
48
43
27
28
23
30
27
20
107
96
84
82
70
57
76
67
57
65
58
49
59
50
40
88
72
59
117
100
80
128
107
86
142
116
93
163
130
105
158
122
96
137
102
90
124
90
81
122
88
80
119
87
83
104
74
68
77
50
40
69
43
34
65
42
31
82
61
50
90
75
61
83
67
52
88
68
52
116
91
73
120
93
73
117
95
74
123
103
78
115
99
72
107
92
70
89
76
61
52
47
34
66
60
57
78
73
73
78
74
74
71
70
72
58
60
60
47
50
46
34
35
32
35
33
32
32
33
31
30
30
28
25
25
23
19
19
17
18
18
16
19
20
18
20
22
19
22
24
21
23
25
22
135
136
135
255
255
255
255
255
255
255
255
255
255
255
255
255
255
255
255
255
255
244
244
243
28
28
26
31
31
29
38
39
34
39
40
35
70
71
65
58
58
54
26
27
22
29
27
21
54
45
34
63
54
42
57
54
45
54
50
44
56
46
39
76
61
51
124
101
79
143
118
95
140
113
89
127
97
72
123
91
66
122
91
74
108
78
64
93
63
52
97
69
59
96
68
59
98
69
61
98
70
62
94
66
57
81
55
45
69
49
37
77
58
45
92
73
58
109
90
71
116
95
75
116
93
74
117
97
73
109
93
68
93
79
58
63
53
37
43
42
35
69
70
70
65
66
72
60
62
69
60
62
68
56
57
60
39
40
37
35
38
33
35
40
39
38
38
35
35
35
33
34
34
32
25
25
23
20
20
18
19
21
18
20
22
19
21
23
20
22
24
21
242
242
242
255
255
255
255
255
255
255
255
255
255
255
255
255
255
255
255
255
255
255
255
255
182
183
181
28
30
24
39
40
34
38
39
33
55
56
50
65
66
59
35
36
32
29
29
26
23
25
18
62
58
50
48
43
35
43
43
35
51
48
38
70
62
48
110
91
67
145
121
96
150
123
98
142
110
85
148
113
88
121
90
70
94
66
48
82
57
42
78
57
44
78
54
45
85
56
48
96
68
58
99
72
59
109
86
71
109
80
74
89
63
53
97
77
62
112
94
73
110
90
69
107
87
66
108
91
72
90
77
62
64
55
44
56
53
43
63
66
59
68
71
68
71
72
77
69
69
80
62
64
71
52
56
58
37
38
38
38
39
38
37
38
36
35
35
33
34
34
32
34
34
32
31
31
29
25
25
23
21
21
19
21
21
19
21
21
19
182
182
181
255
255
255
255
255
255
255
255
255
255
255
255
255
255
255
255
255
255
255
255
255
255
255
255
253
253
253
56
57
52
35
36
30
36
37
31
32
33
27
72
73
67
42
42
38
25
25
22
23
24
18
66
62
52
62
52
43
47
41
32
53
47
36
67
59
43
100
83
59
149
129
102
155
130
104
155
128
101
164
132
105
151
122
103
136
109
90
92
67
52
71
48
35
78
54
43
88
60
49
94
67
56
103
78
65
108
85
70
99
72
61
88
65
52
100
84
69
106
91
75
97
81
65
88
71
53
80
66
50
62
52
40
50
44
34
78
75
66
94
97
87
118
121
114
109
111
109
81
83
85
64
67
69
53
57
58
40
41
41
38
38
36
37
37
35
34
34
32
35
35
33
37
37
35
35
35
33
32
32
30
29
29
27
26
26
24
49
49
48
253
253
253
255
255
255
255
255
255
255
255
255
255
255
255
255
255
255
255
255
255
255
255
255
255
255
255
255
255
255
237
238
237
38
39
33
39
40
34
32
33
27
63
64
57
54
55
51
27
27
25
27
28
22
36
30
19
110
98
86
53
42
33
57
48
37
61
54
38
92
79
57
130
115
90
143
122
99
163
138
114
167
139
116
159
132
114
144
117
101
131
105
90
109
86
71
92
68
55
92
66
54
94
69
56
90
67
53
88
66
53
100
79
65
92
75
60
80
69
54
71
60
48
67
56
47
69
57
44
58
48
37
44
37
28
54
49
42
88
87
79
85
87
76
82
84
73
99
101
92
118
118
112
105
108
101
67
72
67
45
47
43
37
38
33
35
36
31
32
34
31
34
36
33
36
37
34
33
35
32
31
33
30
37
37
35
41
41
39
237
237
236
255
255
255
255
255
255
255
255
255
255
255
255
255
255
255
255
255
255
255
255
255
255
255
255
255
255
255
255
255
255
255
255
255
164
165
162
34
35
29
34
35
29
40
41
34
58
59
55
32
32
30
25
26
20
23
19
8
66
56
46
53
41
36
48
40
34
56
54
43
80
71
54
85
72
55
104
87
71
128
107
90
143
119
102
137
111
96
134
108
93
126
100
85
112
86
71
108
82
66
101
78
63
93
70
56
91
70
57
93
74
61
94
78
66
69
58
45
52
48
34
48
42
32
47
41
32
47
42
34
38
33
26
33
30
23
44
42
37
53
52
47
59
59
52
66
66
58
76
76
66
86
86
76
98
101
91
99
105
94
68
71
64
39
41
34
32
33
28
32
37
33
34
39
35
33
39
35
28
33
29
33
38
34
41
41
39
168
168
167
255
255
255
255
255
255
255
255
255
255
255
255
255
255
255
255
255
255
255
255
255
255
255
255
255
255
255
255
255
255
255
255
255
255
255
255
255
255
255
141
141
138
38
39
34
24
25
18
51
52
48
40
41
38
23
24
19
26
24
14
32
26
17
73
62
60
39
34
31
48
51
44
66
59
48
64
52
42
70
55
46
84
64
55
99
77
66
111
88
72
123
97
82
111
86
71
112
86
70
109
85
68
94
71
56
104
82
68
105
85
73
83
64
53
63
49
41
45
37
29
37
35
23
34
35
22
35
33
21
33
32
26
32
31
26
40
39
35
43
44
39
45
45
41
55
54
52
55
54
49
50
50
43
50
50
39
58
61
48
75
80
67
90
93
82
78
79
73
38
40
34
31
34
31
33
37
34
31
35
31
29
34
30
35
38
35
145
145
144
255
255
255
255
255
255
255
255
255
255
255
255
255
255
255
255
255
255
255
255
255
255
255
255
255
255
255
255
255
255
255
255
255
255
255
255
255
255
255
255
255
255
254
254
254
95
95
94
27
27
25
31
31
29
46
46
44
26
26
24
21
22
18
21
22
16
54
49
45
53
47
41
43
41
32
48
44
35
51
44
36
55
44
38
60
46
40
70
54
49
89
67
54
91
69
56
90
69
57
87
67
56
82
65
54
74
61
49
91
78
65
93
80
68
70
57
45
42
35
29
32
28
24
32
29
21
31
31
22
33
33
24
31
33
23
36
37
29
42
43
38
44
44
41
43
43
41
41
42
37
48
49
44
53
54
49
55
56
51
56
58
51
58
58
50
62
63
55
57
58
50
64
65
57
35
35
33
34
35
30
31
32
27
32
34
29
100
101
97
254
254
254
255
255
255
255
255
255
255
255
255
255
255
255
255
255
255
255
255
255
255
255
255
255
255
255
255
255
255
255
255
255
255
255
255
255
255
255
255
255
255
255
255
255
255
255
255
255
255
255
89
89
87
23
23
21
38
38
36
33
33
31
22
23
19
22
22
18
25
21
17
52
47
41
36
32
25
33
33
23
37
34
25
34
30
21
38
31
23
51
41
34
67
49
38
71
55
44
69
53
44
63
49
40
52
40
31
52
43
32
67
58
48
68
59
49
47
37
27
32
26
19
28
24
20
28
25
20
27
26
21
30
29
25
36
37
31
41
42
36
42
43
38
45
46
41
48
49
46
42
43
38
42
43
38
46
47
42
50
51
46
51
52
46
51
52
46
54
55
49
58
59
53
56
57
51
49
50
45
34
35
30
28
29
24
87
88
85
255
255
255
255
255
255
255
255
255
255
255
255
255
255
255
255
255
255
255
255
255
255
255
255
255
255
255
255
255
255
255
255
255
255
255
255
255
255
255
255
255
255
255
255
255
255
255
255
255
255
255
255
255
255
255
255
255
95
95
94
22
22
20
31
31
29
23
23
21
21
20
18
19
18
14
34
31
26
40
35
31
29
28
18
29
29
19
27
26
16
28
25
16
38
34
25
50
40
31
51
41
32
41
33
25
40
32
25
35
29
22
40
34
23
46
40
29
45
39
29
39
33
23
29
24
18
28
24
19
30
26
22
31
30
28
30
29
27
35
35
33
39
39
37
41
42
37
41
42
37
45
46
41
50
51
46
44
45
40
40
41
36
43
44
39
47
48
43
47
48
43
47
48
43
50
51
46
51
52
47
46
47
41
36
37
31
95
95
92
255
255
255
255
255
255
255
255
255
255
255
255
255
255
255
255
255
255
255
255
255
255
255
255
255
255
255
255
255
255
255
255
255
255
255
255
255
255
255
255
255
255
255
255
255
255
255
255
255
255
255
255
255
255
255
255
255
255
255
255
255
255
254
137
137
136
27
27
25
27
25
25
21
20
18
20
20
18
21
19
15
46
39
35
45
40
32
28
24
15
27
23
14
25
21
12
29
25
15
31
27
20
31
27
20
24
23
18
26
26
21
27
27
21
35
35
27
34
34
25
31
31
22
25
24
16
29
24
18
36
33
27
57
53
51
20
19
19
33
31
33
33
33
35
37
37
37
40
40
38
40
41
36
39
40
35
44
45
40
45
46
41
41
42
37
41
42
37
44
45
40
45
46
40
44
46
40
45
46
41
45
46
41
43
44
36
145
145
142
254
254
254
255
255
255
255
255
255
255
255
255
255
255
255
255
255
255
255
255
255
255
255
255
255
255
255
255
255
255
255
255
255
255
255
255
255
255
255
255
255
255
255
255
255
255
255
255
255
255
255
255
255
255
255
255
255
255
255
255
255
255
255
255
255
255
255
255
255
161
161
160
33
30
29
22
21
20
20
22
18
18
18
12
29
26
21
52
43
35
47
39
30
37
29
20
31
24
15
29
23
14
24
23
15
20
20
14
21
23
17
21
24
20
22
24
20
26
26
20
28
27
20
27
26
19
30
28
20
62
53
43
69
61
54
39
35
32
19
17
17
33
31
33
32
32
32
36
36
36
38
38
36
39
39
35
40
41
37
38
39
34
44
45
40
43
44
39
42
43
38
42
43
39
42
42
39
42
42
39
43
43
40
48
48
45
168
169
164
255
255
255
255
255
255
255
255
255
255
255
255
255
255
255
255
255
255
255
255
255
255
255
255
255
255
255
255
255
255
255
255
255
255
255
255
255
255
255
255
255
255
255
255
255
255
255
255
255
255
255
255
255
255
255
255
255
255
255
255
255
255
255
255
255
255
255
255
255
255
255
255
255
255
255
237
237
237
47
48
43
20
21
15
19
20
14
19
20
12
46
37
25
53
42
30
51
41
29
49
40
30
50
41
30
38
33
23
27
23
14
20
19
11
21
20
15
23
21
16
27
24
17
33
28
21
44
36
29
56
43
37
75
58
48
61
50
41
15
10
6
19
18
16
34
32
30
33
33
31
35
35
33
38
38
36
39
39
37
40
40
38
40
41
36
41
42
37
42
43
38
43
44
39
41
42
37
41
42
37
41
42
37
66
67
63
238
238
238
255
255
255
255
255
255
255
255
255
255
255
255
255
255
255
255
255
255
255
255
255
255
255
255
255
255
255
255
255
255
255
255
255
255
255
255
255
255
255
255
255
255
255
255
255
255
255
255
255
255
255
255
255
255
255
255
255
255
255
255
255
255
255
255
255
255
255
255
255
255
255
255
255
255
255
255
255
255
255
255
255
253
253
253
180
181
179
21
22
17
19
20
14
35
26
17
51
40
28
58
46
34
59
45
32
59
45
33
56
44
35
55
44
34
53
42
33
53
43
35
55
45
35
60
49
38
71
55
45
78
59
50
84
62
56
71
56
47
29
22
14
11
10
6
18
18
16
34
33
30
34
34
33
34
34
32
38
38
36
39
39
37
40
40
38
39
40
35
40
41
36
41
42
37
42
43
38
41
42
37
41
42
37
187
187
186
253
253
253
255
255
255
255
255
255
255
255
255
255
255
255
255
255
255
255
255
255
255
255
255
255
255
255
255
255
255
255
255
255
255
255
255
255
255
255
255
255
255
255
255
255
255
255
255
255
255
255
255
255
255
255
255
255
255
255
255
255
255
255
255
255
255
255
255
255
255
255
255
255
255
255
255
255
255
255
255
255
255
255
255
255
255
255
255
255
255
255
255
255
243
243
242
135
136
133
26
20
14
43
35
28
60
49
40
63
50
40
62
48
36
61
46
36
67
51
41
69
51
40
70
53
40
71
53
40
75
57
42
79
61
47
81
63
52
73
53
45
28
19
10
19
16
11
10
11
9
16
18
16
34
33
30
36
36
34
35
35
33
37
37
35
37
37
35
40
40
38
40
41
36
40
41
36
40
41
36
40
41
36
145
145
142
243
243
243
255
255
255
255
255
255
255
255
255
255
255
255
255
255
255
255
255
255
255
255
255
255
255
255
255
255
255
255
255
255
255
255
255
255
255
255
255
255
255
255
255
255
255
255
255
255
255
255
255
255
255
255
255
255
255
255
255
255
255
255
255
255
255
255
255
255
255
255
255
255
255
255
255
255
255
255
255
255
255
255
255
255
255
255
255
255
255
255
255
255
255
255
255
255
255
255
255
255
255
255
255
255
255
255
255
135
133
132
57
51
48
49
40
34
57
46
38
66
53
41
72
56
42
73
55
41
74
56
40
76
56
40
78
59
44
77
62
49
61
52
40
24
19
9
19
17
9
24
25
21
7
11
11
17
19
18
35
35
30
37
37
35
35
35
33
35
35
33
36
36
34
38
39
36
40
41
36
63
64
59
144
144
142
255
255
255
255
255
255
255
255
255
255
255
255
255
255
255
255
255
255
255
255
255
255
255
255
255
255
255
255
255
255
255
255
255
255
255
255
255
255
255
255
255
255
255
255
255
255
255
255
255
255
255
255
255
255
255
255
255
255
255
255
255
255
255
255
255
255
255
255
255
255
255
255
255
255
255
255
255
255
255
255
255
255
255
255
255
255
255
255
255
255
255
255
255
255
255
255
255
255
255
255
255
255
255
255
255
255
255
255
255
255
255
255
255
255
255
255
255
253
253
253
239
239
239
118
117
115
29
23
17
43
34
27
62
51
42
74
59
46
75
60
47
75
59
50
51
42
32
24
20
13
13
16
11
23
24
20
14
14
12
9
10
8
18
18
16
37
38
35
38
38
37
38
38
36
36
38
35
37
41
38
130
131
129
241
241
240
253
253
253
255
255
255
255
255
255
255
255
255
255
255
255
255
255
255
255
255
255
255
255
255
255
255
255
255
255
255
255
255
255
255
255
255
255
255
255
255
255
255
255
255
255
255
255
255
255
255
255
255
255
255
255
255
255
255
255
255
255
255
255
255
255
255
255
255
255
255
255
255
255
255
255
255
255
255
255
255
255
255
255
255
255
255
255
255
255
255
255
255
255
255
255
255
255
255
255
255
255
255
255
255
255
255
255
255
255
255
255
255
255
255
255
255
255
255
255
255
255
255
255
255
255
255
255
255
255
255
255
255
255
255
255
224
223
223
195
193
191
158
154
150
116
110
105
80
74
69
49
46
41
26
25
23
15
16
15
40
40
39
24
24
22
36
36
34
71
71
69
120
120
119
159
159
158
197
197
196
227
227
227
255
255
255
255
255
255
255
255
255
255
255
255
255
255
255
255
255
255
255
255
255
255
255
255
255
255
255
255
255
255
255
255
255
255
255
255
255
255
255
255
255
255
255
255
255
255
255
255
255
255
255
255
255
255
255
255
255
255
255
255
255
255
255
255
255
255
255
255
255
255
255
255
